<?xml version="1.0" encoding="utf-8"?>
<!-- Generator: Adobe Illustrator 18.0.0, SVG Export Plug-In . SVG Version: 6.00 Build 0)  -->
<!DOCTYPE svg PUBLIC "-//W3C//DTD SVG 1.1//EN" "http://www.w3.org/Graphics/SVG/1.1/DTD/svg11.dtd">
<svg version="1.1" id="Layer_1" xmlns="http://www.w3.org/2000/svg" xmlns:xlink="http://www.w3.org/1999/xlink" x="0px" y="0px"
	 viewBox="0 0 91 91" enable-background="new 0 0 91 91" xml:space="preserve">
<g>
	<path d="M71.3,29.8h-1.1c-0.4-1.6-1-3.4-2-5.3c-3.3-6.2-9.1-9.6-16.5-9.6c-9.2,0-15.8,5.2-18.2,14.2c-0.6,2.1,0.7,4.3,2.9,4.9
		c2.1,0.6,4.3-0.7,4.9-2.9c2.2-8.3,8.4-8.3,10.4-8.3c4.4,0,7.4,1.7,9.4,5.1c1.6,2.9,1.8,6,1.8,6c0.1,2.1,1.9,3.8,4,3.8h4.5
		c5.2,0,8.7,3.2,8.7,8c0,3.8-2.7,8-8.7,8H49H35.1H7.1c-2.2,0-4,1.8-4,4c0,2.2,1.8,4,4,4h28.1H49h22.2c9.5,0,16.7-6.9,16.7-16
		C87.9,36.5,80.9,29.8,71.3,29.8z"/>
	<path d="M17.3,47.4h33.5c2.2,0,4-1.8,4-4c0-2.2-1.8-4-4-4H17.3c-2.2,0-4,1.8-4,4C13.3,45.6,15.1,47.4,17.3,47.4z"/>
	<path d="M65.1,68.1h-42c-2.2,0-4,1.8-4,4c0,2.2,1.8,4,4,4h42c2.2,0,4-1.8,4-4C69.1,69.9,67.3,68.1,65.1,68.1z"/>
</g>
</svg>
