<?xml version="1.0" encoding="utf-8"?>
<!-- Generator: Adobe Illustrator 18.0.0, SVG Export Plug-In . SVG Version: 6.00 Build 0)  -->
<!DOCTYPE svg PUBLIC "-//W3C//DTD SVG 1.1//EN" "http://www.w3.org/Graphics/SVG/1.1/DTD/svg11.dtd">
<svg version="1.1" id="Layer_1" xmlns="http://www.w3.org/2000/svg" xmlns:xlink="http://www.w3.org/1999/xlink" x="0px" y="0px"
	 viewBox="0 0 91 91" enable-background="new 0 0 91 91" xml:space="preserve">
<g>
	<path d="M74.4,34.2c0-8.6-7-15.6-15.6-15.6c-3.1,0-6.2,0.9-8.7,2.7c-1.4,0.9-1.7,2.8-0.8,4.2c0.9,1.4,2.8,1.7,4.2,0.8
		c1.6-1.1,3.5-1.6,5.4-1.6c5.3,0,9.6,4.3,9.6,9.6c0,1.6-0.4,3.1-1.1,4.4c-0.8,1.5-0.2,3.3,1.3,4C69,42.9,69.5,43,70,43
		c1.1,0,2.1-0.6,2.7-1.6C73.8,39.2,74.4,36.7,74.4,34.2z"/>
	<path d="M58.8,13.9c1.7,0,3-1.3,3-3V5.2c0-1.7-1.3-3-3-3c-1.7,0-3,1.3-3,3v5.7C55.8,12.5,57.1,13.9,58.8,13.9z"/>
	<path d="M87.8,31.2h-5.7c-1.7,0-3,1.3-3,3c0,1.7,1.3,3,3,3h5.7c1.7,0,3-1.3,3-3C90.8,32.6,89.5,31.2,87.8,31.2z"/>
	<path d="M75.3,20.7c0.8,0,1.5-0.3,2.1-0.9l4-4c1.2-1.2,1.2-3.1,0-4.2c-1.2-1.2-3.1-1.2-4.2,0l-4,4c-1.2,1.2-1.2,3.1,0,4.2
		C73.7,20.4,74.5,20.7,75.3,20.7z"/>
	<path d="M77.4,48.6c-1.2-1.2-3.1-1.2-4.2,0c-1.2,1.2-1.2,3.1,0,4.2l4,4c0.6,0.6,1.4,0.9,2.1,0.9c0.8,0,1.5-0.3,2.1-0.9
		c1.2-1.2,1.2-3.1,0-4.2L77.4,48.6z"/>
	<path d="M40.1,19.8c0.6,0.6,1.4,0.9,2.1,0.9c0.8,0,1.5-0.3,2.1-0.9c1.2-1.2,1.2-3.1,0-4.2l-4-4c-1.2-1.2-3.1-1.2-4.2,0
		c-1.2,1.2-1.2,3.1,0,4.2L40.1,19.8z"/>
	<path d="M51.5,39.7h-1.1c-0.4-1.6-1-3.4-2-5.3c-3.3-6.2-9.2-9.6-16.5-9.6c-7.4,0-13.3,3.4-16.5,9.6c-1,2-1.6,4-2,5.6
		C5.5,41.5,0.2,47.6,0.2,55.7c0,4.4,1.7,8.4,4.7,11.4c1.6,1.5,4.1,1.5,5.7-0.1c1.5-1.6,1.5-4.1-0.1-5.7c-1.5-1.5-2.3-3.5-2.3-5.7
		c0-4.8,3.5-8,8.7-8c2.2,0,3.9-1.7,4-3.9c0-1.1,0.6-11.1,10.9-11.1c4.4,0,7.5,1.7,9.4,5.1c1.6,2.9,1.8,6,1.8,6
		c0.1,2.1,1.9,3.8,4,3.8h4.5c5.2,0,8.7,3.2,8.7,8c0,3.5-2,6.3-5.3,7.5c-2.1,0.7-3.2,3-2.5,5.1c0.6,1.7,2.1,2.7,3.8,2.7
		c0.4,0,0.9-0.1,1.3-0.2c6.5-2.2,10.6-8.1,10.6-15C68.2,46.5,61.2,39.7,51.5,39.7z"/>
	<path d="M32.3,61.4c1.7,0,3-1.3,3-3v-2.8c0-1.7-1.3-3-3-3s-3,1.3-3,3v2.8C29.3,60.1,30.6,61.4,32.3,61.4z"/>
	<path d="M32.3,66.7c-1,0-2.1,0.4-2.8,1.2c-0.8,0.8-1.2,1.8-1.2,2.8c0,1.1,0.4,2.1,1.2,2.8c0.7,0.7,1.8,1.2,2.8,1.2
		c1.1,0,2.1-0.4,2.8-1.2c0.8-0.8,1.2-1.8,1.2-2.8c0-1-0.4-2.1-1.2-2.8C34.4,67.2,33.3,66.7,32.3,66.7z"/>
	<path d="M32.3,80c-1.7,0-3,1.3-3,3v2.8c0,1.7,1.3,3,3,3s3-1.3,3-3V83C35.3,81.3,33.9,80,32.3,80z"/>
	<path d="M42.9,67.6c0.5,0,1-0.1,1.5-0.4l2.5-1.4c1.4-0.8,1.9-2.7,1.1-4.1c-0.8-1.4-2.7-1.9-4.1-1.1L41.4,62
		c-1.4,0.8-1.9,2.7-1.1,4.1C40.9,67,41.9,67.6,42.9,67.6z"/>
	<path d="M20.1,74.3l-2.5,1.4c-1.4,0.8-1.9,2.7-1.1,4.1c0.6,1,1.6,1.5,2.6,1.5c0.5,0,1-0.1,1.5-0.4l2.5-1.4c1.4-0.8,1.9-2.7,1.1-4.1
		C23.4,73.9,21.6,73.4,20.1,74.3z"/>
	<path d="M46.9,75.7l-2.5-1.4c-1.4-0.8-3.3-0.3-4.1,1.1c-0.8,1.4-0.3,3.3,1.1,4.1l2.5,1.4c0.5,0.3,1,0.4,1.5,0.4c1,0,2-0.5,2.6-1.5
		C48.8,78.3,48.3,76.5,46.9,75.7z"/>
	<path d="M17.7,65.8l2.5,1.4c0.5,0.3,1,0.4,1.5,0.4c1,0,2-0.5,2.6-1.5c0.8-1.4,0.3-3.3-1.1-4.1l-2.5-1.4c-1.4-0.8-3.3-0.3-4.1,1.1
		C15.8,63.1,16.2,64.9,17.7,65.8z"/>
</g>
</svg>
