<?xml version="1.0" encoding="utf-8"?>
<!-- Generator: Adobe Illustrator 18.0.0, SVG Export Plug-In . SVG Version: 6.00 Build 0)  -->
<!DOCTYPE svg PUBLIC "-//W3C//DTD SVG 1.1//EN" "http://www.w3.org/Graphics/SVG/1.1/DTD/svg11.dtd">
<svg version="1.1" id="Layer_1" xmlns="http://www.w3.org/2000/svg" xmlns:xlink="http://www.w3.org/1999/xlink" x="0px" y="0px"
	 viewBox="0 0 91 91" enable-background="new 0 0 91 91" xml:space="preserve">
<g>
	<path d="M23.4,57.6c-1.9-0.5-3.8,0.6-4.3,2.5l-5.6,20.7c-0.5,1.9,0.6,3.8,2.5,4.3c0.3,0.1,0.6,0.1,0.9,0.1c1.5,0,3-1,3.4-2.6
		l5.6-20.7C26.4,60.1,25.3,58.1,23.4,57.6z"/>
	<path d="M45.8,65.9h-4.4l5.5-7.7c0.3-0.5,0.4-1.1,0.1-1.6c-0.3-0.5-0.8-0.8-1.3-0.8H34.7c-0.6,0-1.2,0.4-1.4,1l-6.1,15.8
		c-0.2,0.5-0.1,1,0.2,1.4c0.3,0.4,0.7,0.6,1.2,0.6h0l3.2,0l-4.2,11c-0.3,0.7,0,1.4,0.6,1.8c0.2,0.1,0.5,0.2,0.8,0.2
		c0.4,0,0.8-0.2,1.1-0.5l16.6-18.8c0.4-0.4,0.5-1.1,0.2-1.6C46.9,66.3,46.4,65.9,45.8,65.9z"/>
	<path d="M74.4,35.3c0-8.6-7-15.6-15.6-15.6c-3.1,0-6.2,0.9-8.7,2.7c-1.4,0.9-1.7,2.8-0.8,4.2c0.9,1.4,2.8,1.7,4.2,0.8
		c1.6-1.1,3.5-1.6,5.4-1.6c5.3,0,9.6,4.3,9.6,9.6c0,1.6-0.4,3.1-1.1,4.4c-0.8,1.5-0.2,3.3,1.3,4c0.4,0.2,0.9,0.3,1.4,0.3
		c1.1,0,2.1-0.6,2.7-1.6C73.8,40.3,74.4,37.9,74.4,35.3z"/>
	<path d="M58.8,15c1.7,0,3-1.3,3-3V6.3c0-1.7-1.3-3-3-3c-1.7,0-3,1.3-3,3V12C55.8,13.7,57.1,15,58.8,15z"/>
	<path d="M87.8,32.3h-5.7c-1.7,0-3,1.3-3,3s1.3,3,3,3h5.7c1.7,0,3-1.3,3-3S89.5,32.3,87.8,32.3z"/>
	<path d="M75.3,21.8c0.8,0,1.5-0.3,2.1-0.9l4-4c1.2-1.2,1.2-3.1,0-4.2c-1.2-1.2-3.1-1.2-4.2,0l-4,4c-1.2,1.2-1.2,3.1,0,4.2
		C73.7,21.6,74.5,21.8,75.3,21.8z"/>
	<path d="M77.4,49.7c-1.2-1.2-3.1-1.2-4.2,0c-1.2,1.2-1.2,3.1,0,4.2l4,4c0.6,0.6,1.4,0.9,2.1,0.9c0.8,0,1.5-0.3,2.1-0.9
		c1.2-1.2,1.2-3.1,0-4.2L77.4,49.7z"/>
	<path d="M40.1,21c0.6,0.6,1.4,0.9,2.1,0.9c0.8,0,1.5-0.3,2.1-0.9c1.2-1.2,1.2-3.1,0-4.2l-4-4c-1.2-1.2-3.1-1.2-4.2,0
		c-1.2,1.2-1.2,3.1,0,4.2L40.1,21z"/>
	<path d="M51.5,40.9h-1.1c-0.4-1.6-1-3.4-2-5.3c-3.3-6.2-9.2-9.6-16.5-9.6c-7.4,0-13.3,3.4-16.5,9.6c-1,2-1.6,4-2,5.6
		C5.5,42.6,0.2,48.8,0.2,56.9c0,5.2,2.5,10,6.6,12.9c1.8,1.3,4.3,0.9,5.6-0.9c1.3-1.8,0.9-4.3-0.9-5.6c-2-1.4-3.2-3.8-3.2-6.4
		c0-4.8,3.5-8,8.7-8c2.2,0,3.9-1.7,4-3.9c0-1.1,0.6-11.1,10.9-11.1c4.4,0,7.5,1.7,9.4,5.1c1.6,2.9,1.8,6,1.8,6
		c0.1,2.1,1.9,3.8,4,3.8h4.5c5.2,0,8.7,3.2,8.7,8c0,4-2.6,7-6.5,7.8c-2.2,0.4-3.6,2.5-3.2,4.7c0.4,1.9,2,3.2,3.9,3.2
		c0.3,0,0.5,0,0.8-0.1c7.7-1.5,13-7.9,13-15.7C68.2,47.6,61.2,40.9,51.5,40.9z"/>
</g>
</svg>
