<?xml version="1.0" encoding="utf-8"?>
<!-- Generator: Adobe Illustrator 18.0.0, SVG Export Plug-In . SVG Version: 6.00 Build 0)  -->
<!DOCTYPE svg PUBLIC "-//W3C//DTD SVG 1.1//EN" "http://www.w3.org/Graphics/SVG/1.1/DTD/svg11.dtd">
<svg version="1.1" id="Layer_1" xmlns="http://www.w3.org/2000/svg" xmlns:xlink="http://www.w3.org/1999/xlink" x="0px" y="0px"
	 viewBox="0 0 91 91" enable-background="new 0 0 91 91" xml:space="preserve">
<g>
	<path d="M53.4,26.8c1.6-1.1,3.5-1.6,5.4-1.6c5.3,0,9.6,4.3,9.6,9.6c0,1.6-0.4,3.1-1.1,4.4c-0.8,1.5-0.2,3.3,1.3,4
		c0.4,0.2,0.9,0.3,1.4,0.3c1.1,0,2.1-0.6,2.7-1.6c1.2-2.2,1.8-4.7,1.8-7.2c0-8.6-7-15.6-15.6-15.6c-3.1,0-6.2,0.9-8.7,2.7
		c-1.4,0.9-1.7,2.8-0.8,4.2C50.1,27.4,52,27.7,53.4,26.8z"/>
	<path d="M58.8,14.4c1.7,0,3-1.3,3-3V5.7c0-1.7-1.3-3-3-3c-1.7,0-3,1.3-3,3v5.7C55.8,13.1,57.1,14.4,58.8,14.4z"/>
	<path d="M87.8,31.8h-5.7c-1.7,0-3,1.3-3,3c0,1.7,1.3,3,3,3h5.7c1.7,0,3-1.3,3-3C90.8,33.1,89.5,31.8,87.8,31.8z"/>
	<path d="M75.3,21.3c0.8,0,1.5-0.3,2.1-0.9l4-4c1.2-1.2,1.2-3.1,0-4.2c-1.2-1.2-3.1-1.2-4.2,0l-4,4c-1.2,1.2-1.2,3.1,0,4.2
		C73.7,21,74.5,21.3,75.3,21.3z"/>
	<path d="M77.4,49.1c-1.2-1.2-3.1-1.2-4.2,0c-1.2,1.2-1.2,3.1,0,4.2l4,4c0.6,0.6,1.4,0.9,2.1,0.9c0.8,0,1.5-0.3,2.1-0.9
		c1.2-1.2,1.2-3.1,0-4.2L77.4,49.1z"/>
	<path d="M40.1,20.4c0.6,0.6,1.4,0.9,2.1,0.9c0.8,0,1.5-0.3,2.1-0.9c1.2-1.2,1.2-3.1,0-4.2l-4-4c-1.2-1.2-3.1-1.2-4.2,0
		c-1.2,1.2-1.2,3.1,0,4.2L40.1,20.4z"/>
	<path d="M4.2,60.3c2.2,0,4-1.8,4-4c0-4.8,3.5-8,8.7-8c2.2,0,3.9-1.7,4-3.9c0-1.1,0.6-11.1,10.9-11.1c4.4,0,7.5,1.7,9.4,5.1
		c1.6,2.9,1.8,6,1.8,6c0.1,2.1,1.9,3.8,4,3.8h4.5c5.2,0,8.7,3.2,8.7,8c0,2.2,1.8,4,4,4c2.2,0,4-1.8,4-4c0-9.3-7-16-16.7-16h-1.1
		c-0.4-1.6-1-3.4-2-5.3c-3.3-6.2-9.2-9.6-16.5-9.6c-7.4,0-13.3,3.4-16.5,9.6c-1,2-1.6,4-2,5.6C5.5,42,0.2,48.2,0.2,56.3
		C0.2,58.5,2,60.3,4.2,60.3z"/>
	<path d="M55.8,69.9c0-1.9-1.6-3.5-3.5-3.5H3.8c-1.9,0-3.5,1.6-3.5,3.5c0,1.9,1.6,3.5,3.5,3.5h48.5C54.2,73.4,55.8,71.8,55.8,69.9z"
		/>
	<path d="M73.6,81.3H18.4c-1.9,0-3.5,1.6-3.5,3.5c0,1.9,1.6,3.5,3.5,3.5h55.2c1.9,0,3.5-1.6,3.5-3.5C77.1,82.8,75.5,81.3,73.6,81.3z
		"/>
	<path d="M64.6,65.9h-0.2c-2.2,0-4,1.8-4,4c0,2.2,1.8,4,4,4h0.2c2.2,0,4-1.8,4-4C68.6,67.7,66.8,65.9,64.6,65.9z"/>
</g>
</svg>
