<?xml version="1.0" encoding="utf-8"?>
<!-- Generator: Adobe Illustrator 18.0.0, SVG Export Plug-In . SVG Version: 6.00 Build 0)  -->
<!DOCTYPE svg PUBLIC "-//W3C//DTD SVG 1.1//EN" "http://www.w3.org/Graphics/SVG/1.1/DTD/svg11.dtd">
<svg version="1.1" id="Layer_1" xmlns="http://www.w3.org/2000/svg" xmlns:xlink="http://www.w3.org/1999/xlink" x="0px" y="0px"
	 viewBox="0 0 91 91" enable-background="new 0 0 91 91" xml:space="preserve">
<g>
	<path d="M53.3,36.5h-1.1c-0.4-1.6-1-3.4-2-5.3c-3.3-6.2-9.2-9.6-16.5-9.6c-7.4,0-13.3,3.4-16.5,9.6c-1,2-1.6,4-2,5.6
		C7.3,38.3,2,44.4,2,52.5c0,5.2,2.5,10,6.6,12.9c1.8,1.3,4.3,0.9,5.6-0.9c1.3-1.8,0.9-4.3-0.9-5.6c-2-1.4-3.2-3.8-3.2-6.4
		c0-4.8,3.5-8,8.7-8c2.2,0,3.9-1.7,4-3.9c0-1.1,0.6-11.1,10.9-11.1c4.4,0,7.5,1.7,9.4,5.1c1.6,2.9,1.8,6,1.8,6
		c0.1,2.1,1.9,3.8,4,3.8h4.5c5.2,0,8.7,3.2,8.7,8c0,4-2.6,7-6.5,7.8c-2.2,0.4-3.6,2.5-3.2,4.7c0.4,1.9,2,3.2,3.9,3.2
		c0.3,0,0.5,0,0.8-0.1c7.7-1.5,13-7.9,13-15.7C70,43.3,62.9,36.5,53.3,36.5z"/>
	<path d="M88.5,33.4c-0.6-0.9-1.7-1.4-2.7-1.3c-4.8,0.4-9.5-2.1-11.9-6.3c-2.4-4.2-2.2-9.5,0.5-13.4c0.6-0.9,0.7-2.1,0.2-3
		c-0.5-1-1.5-1.6-2.6-1.7c-3.7-0.2-7.4,0.8-10.6,2.6c-5.3,3.1-8.9,8.4-9.7,14.5c-0.2,1.6,0.9,3.1,2.6,3.4c1.6,0.2,3.1-0.9,3.4-2.6
		c0.6-4.3,3-7.9,6.7-10.1c0.8-0.5,1.6-0.8,2.5-1.1c-1.4,4.8-0.8,10,1.8,14.4c2.6,4.4,6.8,7.5,11.6,8.7c-0.7,0.6-1.4,1.1-2.2,1.6
		c-0.8,0.5-1.7,0.8-2.5,1.1c-1.6,0.5-2.4,2.2-1.9,3.8c0.4,1.3,1.6,2.1,2.8,2.1c0.3,0,0.6,0,0.9-0.2c1.3-0.4,2.5-1,3.6-1.6
		c3.2-1.9,5.8-4.6,7.6-7.9C89.2,35.4,89.1,34.3,88.5,33.4z"/>
	<path d="M25.2,53.3c-1.9-0.5-3.8,0.6-4.3,2.5l-5.6,20.7c-0.5,1.9,0.6,3.8,2.5,4.3c0.3,0.1,0.6,0.1,0.9,0.1c1.5,0,3-1,3.4-2.6
		l5.6-20.7C28.2,55.7,27.1,53.8,25.2,53.3z"/>
	<path d="M47.6,61.6h-4.4l5.5-7.7c0.3-0.5,0.4-1.1,0.1-1.6c-0.3-0.5-0.8-0.8-1.3-0.8H36.5c-0.6,0-1.2,0.4-1.4,1l-6.1,15.8
		c-0.2,0.5-0.1,1,0.2,1.4c0.3,0.4,0.7,0.6,1.2,0.6h0l3.2,0l-4.2,11c-0.3,0.7,0,1.4,0.6,1.8c0.2,0.1,0.5,0.2,0.8,0.2
		c0.4,0,0.8-0.2,1.1-0.5l16.6-18.8c0.4-0.4,0.5-1.1,0.2-1.6C48.7,62,48.2,61.6,47.6,61.6z"/>
</g>
</svg>
