<?xml version="1.0" encoding="utf-8"?>
<!-- Generator: Adobe Illustrator 18.0.0, SVG Export Plug-In . SVG Version: 6.00 Build 0)  -->
<!DOCTYPE svg PUBLIC "-//W3C//DTD SVG 1.1//EN" "http://www.w3.org/Graphics/SVG/1.1/DTD/svg11.dtd">
<svg version="1.1" id="Layer_1" xmlns="http://www.w3.org/2000/svg" xmlns:xlink="http://www.w3.org/1999/xlink" x="0px" y="0px"
	 viewBox="0 0 91 91" enable-background="new 0 0 91 91" xml:space="preserve">
<g>
	<path d="M74.4,32.5c0-8.6-7-15.6-15.6-15.6c-3.1,0-6.2,0.9-8.7,2.7c-1.4,0.9-1.7,2.8-0.8,4.2c0.9,1.4,2.8,1.7,4.2,0.8
		c1.6-1.1,3.5-1.6,5.4-1.6c5.3,0,9.6,4.3,9.6,9.6c0,1.6-0.4,3.1-1.1,4.4c-0.8,1.5-0.2,3.3,1.3,4c0.4,0.2,0.9,0.3,1.4,0.3
		c1.1,0,2.1-0.6,2.7-1.6C73.8,37.5,74.4,35,74.4,32.5z"/>
	<path d="M58.8,12.2c1.7,0,3-1.3,3-3V3.5c0-1.7-1.3-3-3-3c-1.7,0-3,1.3-3,3v5.7C55.8,10.9,57.1,12.2,58.8,12.2z"/>
	<path d="M87.8,29.5h-5.7c-1.7,0-3,1.3-3,3c0,1.7,1.3,3,3,3h5.7c1.7,0,3-1.3,3-3C90.8,30.9,89.5,29.5,87.8,29.5z"/>
	<path d="M75.3,19c0.8,0,1.5-0.3,2.1-0.9l4-4c1.2-1.2,1.2-3.1,0-4.2c-1.2-1.2-3.1-1.2-4.2,0l-4,4c-1.2,1.2-1.2,3.1,0,4.2
		C73.7,18.7,74.5,19,75.3,19z"/>
	<path d="M77.4,46.9c-1.2-1.2-3.1-1.2-4.2,0c-1.2,1.2-1.2,3.1,0,4.2l4,4c0.6,0.6,1.4,0.9,2.1,0.9c0.8,0,1.5-0.3,2.1-0.9
		c1.2-1.2,1.2-3.1,0-4.2L77.4,46.9z"/>
	<path d="M40.1,18.2c0.6,0.6,1.4,0.9,2.1,0.9c0.8,0,1.5-0.3,2.1-0.9c1.2-1.2,1.2-3.1,0-4.2l-4-4c-1.2-1.2-3.1-1.2-4.2,0
		c-1.2,1.2-1.2,3.1,0,4.2L40.1,18.2z"/>
	<path d="M23.4,54.8c-1.9-0.5-3.8,0.6-4.3,2.5L13.5,78c-0.5,1.9,0.6,3.8,2.5,4.3c0.3,0.1,0.6,0.1,0.9,0.1c1.5,0,3-1,3.4-2.6
		l5.6-20.7C26.4,57.3,25.3,55.3,23.4,54.8z"/>
	<path d="M33,63c-1.9-0.5-3.8,0.6-4.3,2.5l-5.6,20.7c-0.5,1.9,0.6,3.8,2.5,4.3c0.3,0.1,0.6,0.1,0.9,0.1c1.5,0,3-1,3.4-2.6l5.6-20.7
		C36,65.4,34.9,63.5,33,63z"/>
	<path d="M47.1,54.8c-1.9-0.5-3.8,0.6-4.3,2.5L37.2,78c-0.5,1.9,0.6,3.8,2.5,4.3c0.3,0.1,0.6,0.1,0.9,0.1c1.5,0,3-1,3.4-2.6
		l5.6-20.7C50,57.3,48.9,55.3,47.1,54.8z"/>
	<path d="M51.5,38.1h-1.1c-0.4-1.6-1-3.4-2-5.3c-3.3-6.2-9.2-9.6-16.5-9.6c-7.4,0-13.3,3.4-16.5,9.6c-1,2-1.6,4-2,5.6
		C5.5,39.8,0.2,45.9,0.2,54c0,5.2,2.5,10,6.6,12.9c1.8,1.3,4.3,0.9,5.6-0.9c1.3-1.8,0.9-4.3-0.9-5.6c-2-1.4-3.2-3.8-3.2-6.4
		c0-4.8,3.5-8,8.7-8c2.2,0,3.9-1.7,4-3.9c0-1.1,0.6-11.1,10.9-11.1c4.4,0,7.5,1.7,9.4,5.1c1.6,2.9,1.8,6,1.8,6
		c0.1,2.1,1.9,3.8,4,3.8h4.5c5.2,0,8.7,3.2,8.7,8c0,4-2.6,7-6.5,7.8c-2.2,0.4-3.6,2.5-3.2,4.7c0.4,1.9,2,3.2,3.9,3.2
		c0.3,0,0.5,0,0.8-0.1c7.7-1.5,13-7.9,13-15.7C68.2,44.8,61.2,38.1,51.5,38.1z"/>
</g>
</svg>
