<?xml version="1.0" encoding="utf-8"?>
<!-- Generator: Adobe Illustrator 18.0.0, SVG Export Plug-In . SVG Version: 6.00 Build 0)  -->
<!DOCTYPE svg PUBLIC "-//W3C//DTD SVG 1.1//EN" "http://www.w3.org/Graphics/SVG/1.1/DTD/svg11.dtd">
<svg version="1.1" id="Layer_1" xmlns="http://www.w3.org/2000/svg" xmlns:xlink="http://www.w3.org/1999/xlink" x="0px" y="0px"
	 viewBox="0 0 91 91" enable-background="new 0 0 91 91" xml:space="preserve">
<g>
	<path d="M62.8,26.7h-1.1c-0.4-1.6-1-3.4-2-5.3c-3.3-6.2-9.2-9.6-16.5-9.6c-7.4,0-13.3,3.4-16.5,9.6c-1,2-1.6,4-2,5.6
		c-7.8,1.4-13.2,7.6-13.2,15.7c0,5.2,2.5,10,6.6,12.9c1.8,1.3,4.3,0.9,5.6-0.9c1.3-1.8,0.9-4.3-0.9-5.6c-2-1.4-3.2-3.8-3.2-6.4
		c0-4.8,3.5-8,8.7-8c2.2,0,3.9-1.7,4-3.9c0-1.1,0.6-11.1,10.9-11.1c4.4,0,7.5,1.7,9.4,5.1c1.6,2.9,1.8,6,1.8,6
		c0.1,2.1,1.9,3.8,4,3.8h4.5c5.2,0,8.7,3.2,8.7,8c0,4-2.6,7-6.5,7.8c-2.2,0.4-3.6,2.5-3.2,4.7c0.4,1.9,2,3.2,3.9,3.2
		c0.3,0,0.5,0,0.8-0.1c7.7-1.5,13-7.9,13-15.7C79.5,33.5,72.5,26.7,62.8,26.7z"/>
	<path d="M35.1,43.5c-1.9-0.5-3.8,0.6-4.3,2.5l-3.4,12.6c-0.5,1.9,0.6,3.8,2.5,4.3c0.3,0.1,0.6,0.1,0.9,0.1c1.5,0,3-1,3.4-2.6
		l3.4-12.6C38,45.9,36.9,44,35.1,43.5z"/>
	<path d="M26,65.5c-0.7,0.6-1,1.5-1,2.5c0,0.9,0.4,1.8,1,2.5c0.7,0.7,1.6,1,2.5,1c0.9,0,1.8-0.4,2.5-1c0.7-0.6,1-1.5,1-2.5
		c0-0.9-0.4-1.8-1-2.5C29.6,64.2,27.3,64.2,26,65.5z"/>
	<path d="M35.2,73.2c-0.7,0.6-1,1.5-1,2.5c0,0.9,0.4,1.8,1,2.5c0.6,0.6,1.5,1,2.5,1c0.9,0,1.8-0.4,2.5-1c0.6-0.6,1-1.5,1-2.5
		c0-0.9-0.4-1.8-1-2.5C38.9,71.9,36.5,71.9,35.2,73.2z"/>
	<path d="M48.5,65.5c-0.6,0.6-1,1.6-1,2.5c0,0.9,0.4,1.8,1,2.5c0.7,0.7,1.6,1,2.5,1c0.9,0,1.8-0.4,2.5-1c0.7-0.6,1-1.5,1-2.5
		c0-0.9-0.4-1.8-1-2.5C52.2,64.2,49.8,64.2,48.5,65.5z"/>
	<path d="M44.3,51.2c-1.9-0.5-3.8,0.6-4.3,2.5l-3.4,12.6c-0.5,1.9,0.6,3.8,2.5,4.3c0.3,0.1,0.6,0.1,0.9,0.1c1.5,0,3-1,3.4-2.6
		l3.4-12.6C47.3,53.6,46.2,51.7,44.3,51.2z"/>
	<path d="M57.6,43.5c-1.9-0.5-3.8,0.6-4.3,2.5l-3.4,12.6c-0.5,1.9,0.6,3.8,2.5,4.3c0.3,0.1,0.6,0.1,0.9,0.1c1.5,0,3-1,3.4-2.6
		l3.4-12.6C60.6,45.9,59.5,44,57.6,43.5z"/>
</g>
</svg>
