<?xml version="1.0" encoding="utf-8"?>
<!-- Generator: Adobe Illustrator 18.0.0, SVG Export Plug-In . SVG Version: 6.00 Build 0)  -->
<!DOCTYPE svg PUBLIC "-//W3C//DTD SVG 1.1//EN" "http://www.w3.org/Graphics/SVG/1.1/DTD/svg11.dtd">
<svg version="1.1" id="Layer_1" xmlns="http://www.w3.org/2000/svg" xmlns:xlink="http://www.w3.org/1999/xlink" x="0px" y="0px"
	 viewBox="0 0 91 91" enable-background="new 0 0 91 91" xml:space="preserve">
<g>
	<path d="M74.1,35.3c0-8.6-7-15.6-15.6-15.6c-3.1,0-6.2,0.9-8.7,2.7c-1.4,0.9-1.7,2.8-0.8,4.2c0.9,1.4,2.8,1.7,4.2,0.8
		c1.6-1.1,3.5-1.6,5.4-1.6c5.3,0,9.6,4.3,9.6,9.6c0,1.6-0.4,3.1-1.1,4.4c-0.8,1.5-0.2,3.3,1.3,4c0.4,0.2,0.9,0.3,1.4,0.3
		c1.1,0,2.1-0.6,2.7-1.6C73.5,40.3,74.1,37.9,74.1,35.3z"/>
	<path d="M58.5,15c1.7,0,3-1.3,3-3V6.3c0-1.7-1.3-3-3-3c-1.7,0-3,1.3-3,3V12C55.5,13.7,56.9,15,58.5,15z"/>
	<path d="M87.6,32.3h-5.7c-1.7,0-3,1.3-3,3s1.3,3,3,3h5.7c1.7,0,3-1.3,3-3S89.2,32.3,87.6,32.3z"/>
	<path d="M75,21.8c0.8,0,1.5-0.3,2.1-0.9l4-4c1.2-1.2,1.2-3.1,0-4.2c-1.2-1.2-3.1-1.2-4.2,0l-4,4c-1.2,1.2-1.2,3.1,0,4.2
		C73.5,21.6,74.2,21.8,75,21.8z"/>
	<path d="M77.1,49.7c-1.2-1.2-3.1-1.2-4.2,0c-1.2,1.2-1.2,3.1,0,4.2l4,4c0.6,0.6,1.4,0.9,2.1,0.9c0.8,0,1.5-0.3,2.1-0.9
		c1.2-1.2,1.2-3.1,0-4.2L77.1,49.7z"/>
	<path d="M39.9,21c0.6,0.6,1.4,0.9,2.1,0.9c0.8,0,1.5-0.3,2.1-0.9c1.2-1.2,1.2-3.1,0-4.2l-4-4c-1.2-1.2-3.1-1.2-4.2,0
		c-1.2,1.2-1.2,3.1,0,4.2L39.9,21z"/>
	<path d="M51.2,41.4h-1.5c-0.4-1.6-1-3.6-2.1-5.6c-2.3-4.3-6.9-9.3-16.1-9.3c-9.2,0-13.8,5.1-16,9.4c-1.1,2.1-1.7,4.2-2,5.8
		C5.8,42.9,0.4,48.9,0.4,56.9c0,5,2.4,9.7,6.4,12.5c1.6,1.1,3.8,0.8,4.9-0.8c1.1-1.6,0.8-3.8-0.8-4.9c-2.2-1.5-3.4-4-3.4-6.8
		c0-5.1,3.7-8.5,9.2-8.5c1.9,0,3.4-1.5,3.5-3.4c0-1.2,0.7-11.5,11.4-11.5c10.7,0,11.6,10.4,11.7,11.6c0.1,1.9,1.6,3.3,3.5,3.3h4.5
		c5.5,0,9.2,3.4,9.2,8.5c0,4.2-2.7,7.5-6.9,8.3c-1.9,0.4-3.1,2.2-2.8,4.1c0.3,1.7,1.8,2.8,3.4,2.8c0.2,0,0.4,0,0.7-0.1
		c7.4-1.4,12.6-7.7,12.6-15.2C67.4,47.9,60.6,41.4,51.2,41.4z"/>
	<path d="M23.1,56.9c-1.9-0.5-3.8,0.6-4.3,2.5l-1.2,4.4c-0.5,1.9,0.6,3.8,2.5,4.3c0.3,0.1,0.6,0.1,0.9,0.1c1.5,0,3-1,3.4-2.6
		l1.2-4.4C26.1,59.4,25,57.5,23.1,56.9z"/>
	<path d="M18.8,73.2c-1.9-0.5-3.8,0.6-4.3,2.5l-1.2,4.4c-0.5,1.9,0.6,3.8,2.5,4.3c0.3,0.1,0.6,0.1,0.9,0.1c1.5,0,3-1,3.4-2.6
		l1.2-4.4C21.8,75.6,20.7,73.7,18.8,73.2z"/>
	<path d="M45.5,65.9h-4.4l5.5-7.7c0.3-0.5,0.4-1.1,0.1-1.6c-0.3-0.5-0.8-0.8-1.3-0.8H34.5c-0.6,0-1.2,0.4-1.4,1L27,72.7
		c-0.2,0.5-0.1,1,0.2,1.4c0.3,0.4,0.7,0.6,1.2,0.6h0l3.2,0l-4.2,11c-0.3,0.7,0,1.4,0.6,1.8c0.2,0.1,0.5,0.2,0.8,0.2
		c0.4,0,0.8-0.2,1.1-0.5l16.6-18.8c0.4-0.4,0.5-1.1,0.2-1.6C46.6,66.3,46.1,65.9,45.5,65.9z"/>
</g>
</svg>
