<?xml version="1.0" encoding="utf-8"?>
<!-- Generator: Adobe Illustrator 18.0.0, SVG Export Plug-In . SVG Version: 6.00 Build 0)  -->
<!DOCTYPE svg PUBLIC "-//W3C//DTD SVG 1.1//EN" "http://www.w3.org/Graphics/SVG/1.1/DTD/svg11.dtd">
<svg version="1.1" id="Layer_1" xmlns="http://www.w3.org/2000/svg" xmlns:xlink="http://www.w3.org/1999/xlink" x="0px" y="0px"
	 viewBox="0 0 91 91" enable-background="new 0 0 91 91" xml:space="preserve">
<g>
	<path d="M25.5,50.5c-1.9-0.5-3.8,0.6-4.3,2.5l-3.4,12.6c-0.5,1.9,0.6,3.8,2.5,4.3c0.3,0.1,0.6,0.1,0.9,0.1c1.5,0,3-1,3.4-2.6
		L28,54.8C28.5,52.9,27.4,51,25.5,50.5z"/>
	<path d="M16.5,72.5c-0.7,0.7-1,1.6-1,2.5c0,0.9,0.4,1.8,1,2.5c0.6,0.6,1.5,1,2.5,1c0.9,0,1.8-0.4,2.5-1c0.7-0.7,1-1.6,1-2.5
		c0-0.9-0.4-1.8-1-2.5C20.1,71.2,17.8,71.2,16.5,72.5z"/>
	<path d="M25.7,80.2c-0.6,0.6-1,1.6-1,2.5c0,0.9,0.4,1.8,1,2.5c0.7,0.6,1.5,1,2.5,1c0.9,0,1.8-0.4,2.5-1c0.7-0.7,1-1.6,1-2.5
		c0-0.9-0.4-1.8-1-2.5C29.3,78.9,27,78.9,25.7,80.2z"/>
	<path d="M39,72.5c-0.7,0.7-1,1.6-1,2.5c0,0.9,0.4,1.8,1,2.5c0.7,0.6,1.6,1,2.5,1c0.9,0,1.8-0.4,2.5-1c0.6-0.7,1-1.6,1-2.5
		c0-0.9-0.4-1.8-1-2.5C42.6,71.2,40.3,71.2,39,72.5z"/>
	<path d="M34.8,58.2c-1.9-0.5-3.8,0.6-4.3,2.5l-3.4,12.6c-0.5,1.9,0.6,3.8,2.5,4.3c0.3,0.1,0.6,0.1,0.9,0.1c1.5,0,3-1,3.4-2.6
		l3.4-12.6C37.8,60.6,36.6,58.7,34.8,58.2z"/>
	<path d="M48.1,50.5c-1.9-0.5-3.8,0.6-4.3,2.5l-3.4,12.6c-0.5,1.9,0.6,3.8,2.5,4.3c0.3,0.1,0.6,0.1,0.9,0.1c1.5,0,3-1,3.4-2.6
		l3.4-12.6C51.1,52.9,50,51,48.1,50.5z"/>
	<path d="M53.3,33.7h-1.1c-0.4-1.6-1-3.4-2-5.3c-3.3-6.2-9.2-9.6-16.5-9.6c-7.4,0-13.3,3.4-16.5,9.6c-1,2-1.6,4-2,5.6
		C7.3,35.5,2,41.6,2,49.7c0,5.2,2.5,10,6.6,12.9c1.8,1.3,4.3,0.9,5.6-0.9c1.3-1.8,0.9-4.3-0.9-5.6c-2-1.4-3.2-3.8-3.2-6.4
		c0-4.8,3.5-8,8.7-8c2.2,0,3.9-1.7,4-3.9c0-1.1,0.6-11.1,10.9-11.1c4.4,0,7.5,1.7,9.4,5.1c1.6,2.9,1.8,6,1.8,6
		c0.1,2.1,1.9,3.8,4,3.8h4.5c5.2,0,8.7,3.2,8.7,8c0,4-2.6,7-6.5,7.8c-2.2,0.4-3.6,2.5-3.2,4.7c0.4,1.9,2,3.2,3.9,3.2
		c0.3,0,0.5,0,0.8-0.1c7.7-1.5,13-7.9,13-15.7C70,40.5,62.9,33.7,53.3,33.7z"/>
	<path d="M88.5,30.6c-0.6-0.9-1.7-1.4-2.7-1.3c-4.8,0.4-9.5-2.1-11.9-6.3c-2.4-4.2-2.2-9.5,0.5-13.4c0.6-0.9,0.7-2.1,0.2-3
		c-0.5-1-1.5-1.6-2.6-1.7c-3.7-0.2-7.4,0.8-10.6,2.6c-5.3,3.1-8.9,8.4-9.7,14.5c-0.2,1.6,0.9,3.1,2.6,3.4c1.7,0.2,3.1-0.9,3.4-2.6
		c0.6-4.3,3-7.9,6.7-10.1c0.8-0.5,1.6-0.8,2.5-1.1c-1.4,4.8-0.8,10,1.8,14.4c2.6,4.4,6.8,7.5,11.6,8.7c-0.7,0.6-1.4,1.1-2.2,1.6
		c-0.8,0.5-1.7,0.8-2.5,1.1c-1.6,0.5-2.4,2.2-1.9,3.8c0.4,1.3,1.6,2.1,2.8,2.1c0.3,0,0.6,0,0.9-0.2c1.3-0.4,2.5-1,3.6-1.6
		c3.2-1.9,5.8-4.6,7.6-7.9C89.2,32.6,89.1,31.5,88.5,30.6z"/>
</g>
</svg>
