<?xml version="1.0" encoding="utf-8"?>
<!-- Generator: Adobe Illustrator 18.0.0, SVG Export Plug-In . SVG Version: 6.00 Build 0)  -->
<!DOCTYPE svg PUBLIC "-//W3C//DTD SVG 1.1//EN" "http://www.w3.org/Graphics/SVG/1.1/DTD/svg11.dtd">
<svg version="1.1" id="Layer_1" xmlns="http://www.w3.org/2000/svg" xmlns:xlink="http://www.w3.org/1999/xlink" x="0px" y="0px"
	 viewBox="0 0 91 91" enable-background="new 0 0 91 91" xml:space="preserve">
<g>
	<path d="M58,35h-1.1c-0.4-1.6-1-3.4-2-5.3c-3.3-6.2-9.2-9.6-16.5-9.6c-7.4,0-13.3,3.4-16.5,9.6c-1,2-1.6,4-2,5.6
		C12.1,36.7,6.7,42.9,6.7,51c0,7.5,4.9,13.7,12.3,15.5c2.1,0.5,4.3-0.8,4.8-3c0.5-2.1-0.8-4.3-3-4.8c-3.7-0.9-6.1-3.9-6.1-7.7
		c0-4.8,3.5-8,8.7-8c2.2,0,3.9-1.7,4-3.9C27.4,38,28,28,38.3,28c4.4,0,7.5,1.7,9.4,5.1c1.6,2.9,1.8,6,1.8,6c0.1,2.1,1.9,3.8,4,3.8
		H58c5.2,0,8.7,3.2,8.7,8c0,3.9-2.7,8-8.7,8c-2.2,0-4,1.8-4,4s1.8,4,4,4c9.5,0,16.7-6.9,16.7-16C74.7,41.7,67.7,35,58,35z"/>
	<path d="M66.1,9.2c-5.4,0-10.5,2.4-14,6.6c-1.1,1.3-0.9,3.2,0.4,4.2c1.3,1.1,3.2,0.9,4.2-0.4c2.3-2.8,5.7-4.4,9.4-4.4
		c6.7,0,12.2,5.5,12.2,12.2c0,2.9-1,5.7-2.9,7.9c-1.1,1.3-0.9,3.2,0.4,4.2c0.6,0.5,1.3,0.7,1.9,0.7c0.9,0,1.7-0.4,2.3-1.1
		c2.8-3.3,4.3-7.5,4.3-11.8C84.3,17.3,76.1,9.2,66.1,9.2z"/>
	<path d="M47.3,60.1h-4.4l5.5-7.7c0.3-0.5,0.4-1.1,0.1-1.6c-0.3-0.5-0.8-0.8-1.3-0.8H36.3c-0.6,0-1.2,0.4-1.4,1l-6.1,15.8
		c-0.2,0.5-0.1,1,0.2,1.4c0.3,0.4,0.7,0.6,1.2,0.6h0l3.2,0l-4.2,11c-0.3,0.7,0,1.4,0.6,1.8c0.2,0.1,0.5,0.2,0.8,0.2
		c0.4,0,0.8-0.2,1.1-0.5l16.6-18.8c0.4-0.4,0.5-1.1,0.2-1.6C48.5,60.4,47.9,60.1,47.3,60.1z"/>
</g>
</svg>
