<?xml version="1.0" encoding="utf-8"?>
<!-- Generator: Adobe Illustrator 18.0.0, SVG Export Plug-In . SVG Version: 6.00 Build 0)  -->
<!DOCTYPE svg PUBLIC "-//W3C//DTD SVG 1.1//EN" "http://www.w3.org/Graphics/SVG/1.1/DTD/svg11.dtd">
<svg version="1.1" id="Layer_1" xmlns="http://www.w3.org/2000/svg" xmlns:xlink="http://www.w3.org/1999/xlink" x="0px" y="0px"
	 viewBox="0 0 91 91" enable-background="new 0 0 91 91" xml:space="preserve">
<g>
	<path d="M22.2,61.3c0.3,0.1,0.6,0.1,0.9,0.1c1.5,0,3-1,3.4-2.6l1.2-4.4c0.5-1.9-0.6-3.8-2.5-4.3c-1.9-0.5-3.8,0.6-4.3,2.5L19.7,57
		C19.2,58.9,20.3,60.8,22.2,61.3z"/>
	<path d="M48.9,50.2c-1.9-0.5-3.8,0.6-4.3,2.5L43.4,57c-0.5,1.9,0.6,3.8,2.5,4.3c0.3,0.1,0.6,0.1,0.9,0.1c1.5,0,3-1,3.4-2.6l1.2-4.4
		C51.8,52.6,50.7,50.7,48.9,50.2z"/>
	<path d="M34.8,58.3c-1.9-0.5-3.8,0.6-4.3,2.5l-1.2,4.4C28.9,67,30,69,31.9,69.5c0.3,0.1,0.6,0.1,0.9,0.1c1.5,0,3-1,3.4-2.6l1.2-4.4
		C37.8,60.7,36.7,58.8,34.8,58.3z"/>
	<path d="M20.8,66.4C19,65.9,17,67,16.5,68.9l-1.2,4.4c-0.5,1.9,0.6,3.8,2.5,4.3c0.3,0.1,0.6,0.1,0.9,0.1c1.5,0,3-1,3.4-2.6l1.2-4.4
		C23.8,68.8,22.7,66.9,20.8,66.4z"/>
	<path d="M44.5,66.4c-1.9-0.5-3.8,0.6-4.3,2.5L39,73.3c-0.5,1.9,0.6,3.8,2.5,4.3c0.3,0.1,0.6,0.1,0.9,0.1c1.5,0,3-1,3.4-2.6l1.2-4.4
		C47.5,68.8,46.4,66.9,44.5,66.4z"/>
	<path d="M30.5,74.5c-1.9-0.5-3.8,0.6-4.3,2.5L25,81.4c-0.5,1.9,0.6,3.8,2.5,4.3c0.3,0.1,0.6,0.1,0.9,0.1c1.5,0,3-1,3.4-2.6l1.2-4.4
		C33.5,77,32.4,75,30.5,74.5z"/>
	<path d="M53.3,34.1h-1.1c-0.4-1.6-1-3.4-2-5.3c-3.3-6.2-9.2-9.6-16.5-9.6c-7.4,0-13.3,3.4-16.5,9.6c-1,2-1.6,4-2,5.6
		C7.3,35.8,2,42,2,50.1c0,5.2,2.5,10,6.6,12.9c1.8,1.3,4.3,0.9,5.6-0.9c1.3-1.8,0.9-4.3-0.9-5.6c-2-1.4-3.2-3.8-3.2-6.4
		c0-4.8,3.5-8,8.7-8c2.2,0,3.9-1.7,4-3.9c0-1.1,0.6-11.1,10.9-11.1c4.4,0,7.5,1.7,9.4,5.1c1.6,2.9,1.8,6,1.8,6
		c0.1,2.1,1.9,3.8,4,3.8h4.5c5.2,0,8.7,3.2,8.7,8c0,4-2.6,7-6.5,7.8c-2.2,0.4-3.6,2.5-3.2,4.7c0.4,1.9,2,3.2,3.9,3.2
		c0.3,0,0.5,0,0.8-0.1c7.7-1.5,13-7.9,13-15.7C70,40.8,62.9,34.1,53.3,34.1z"/>
	<path d="M88.5,30.9c-0.6-0.9-1.7-1.4-2.7-1.3c-4.8,0.4-9.5-2.1-11.9-6.3c-2.4-4.2-2.2-9.5,0.5-13.4c0.6-0.9,0.7-2.1,0.2-3
		c-0.5-1-1.5-1.6-2.6-1.7C68.3,5,64.7,5.9,61.4,7.8c-5.3,3.1-8.9,8.4-9.7,14.5c-0.2,1.6,0.9,3.1,2.6,3.4c1.6,0.2,3.2-0.9,3.4-2.6
		c0.6-4.3,3-7.9,6.7-10.1c0.8-0.5,1.6-0.8,2.5-1.1c-1.4,4.8-0.8,10,1.8,14.4c2.6,4.4,6.8,7.5,11.6,8.7c-0.7,0.6-1.4,1.1-2.2,1.6
		c-0.8,0.5-1.7,0.8-2.5,1.1c-1.6,0.5-2.4,2.2-1.9,3.8c0.4,1.3,1.6,2.1,2.8,2.1c0.3,0,0.6,0,0.9-0.2c1.3-0.4,2.5-1,3.6-1.6
		c3.2-1.9,5.8-4.6,7.6-7.9C89.2,33,89.1,31.8,88.5,30.9z"/>
</g>
</svg>
