<?xml version="1.0" encoding="utf-8"?>
<!-- Generator: Adobe Illustrator 18.0.0, SVG Export Plug-In . SVG Version: 6.00 Build 0)  -->
<!DOCTYPE svg PUBLIC "-//W3C//DTD SVG 1.1//EN" "http://www.w3.org/Graphics/SVG/1.1/DTD/svg11.dtd">
<svg version="1.1" id="Layer_1" xmlns="http://www.w3.org/2000/svg" xmlns:xlink="http://www.w3.org/1999/xlink" x="0px" y="0px"
	 viewBox="0 0 91 91" enable-background="new 0 0 91 91" xml:space="preserve">
<g>
	<path d="M63,36.7h-0.8c-0.3-1.3-0.8-2.8-1.7-4.4c-2.8-5.2-7.7-8.1-13.9-8.1c-7.7,0-13.3,4.4-15.3,12c-0.5,1.9,0.6,3.8,2.5,4.3
		c1.9,0.5,3.8-0.6,4.3-2.5c1.8-6.8,6.9-6.8,8.6-6.8c8.2,0,9.1,7.6,9.1,9.1c0.1,1.9,1.6,3.3,3.5,3.3H63c4.3,0,7.1,2.6,7.1,6.5
		c0,3.1-2.2,6.5-7.1,6.5H44.5H32.8H9.4c-1.9,0-3.5,1.6-3.5,3.5c0,1.9,1.6,3.5,3.5,3.5h23.4h11.6H63c8,0,14.1-5.8,14.1-13.5
		C77.1,42.4,71.2,36.7,63,36.7z"/>
	<path d="M17.9,51.8h28c1.9,0,3.5-1.6,3.5-3.5c0-1.9-1.6-3.5-3.5-3.5h-28c-1.9,0-3.5,1.6-3.5,3.5C14.4,50.2,16,51.8,17.9,51.8z"/>
	<path d="M57.9,68.8H22.8c-1.9,0-3.5,1.6-3.5,3.5c0,1.9,1.6,3.5,3.5,3.5h35.1c1.9,0,3.5-1.6,3.5-3.5C61.4,70.3,59.8,68.8,57.9,68.8z
		"/>
	<path d="M69.7,15.2c-4.6,0-8.9,2-11.8,5.5c-1,1.2-0.8,2.9,0.4,3.9c1.2,1,2.9,0.8,3.9-0.4c1.9-2.3,4.7-3.6,7.6-3.6
		c5.5,0,9.9,4.4,9.9,9.9c0,2.3-0.8,4.6-2.3,6.4c-1,1.2-0.8,2.9,0.3,3.9c0.5,0.4,1.1,0.7,1.8,0.7c0.8,0,1.6-0.3,2.1-1
		c2.3-2.8,3.6-6.3,3.6-9.9C85.1,22.2,78.2,15.2,69.7,15.2z"/>
</g>
</svg>
