<?xml version="1.0" encoding="utf-8"?>
<!-- Generator: Adobe Illustrator 18.0.0, SVG Export Plug-In . SVG Version: 6.00 Build 0)  -->
<!DOCTYPE svg PUBLIC "-//W3C//DTD SVG 1.1//EN" "http://www.w3.org/Graphics/SVG/1.1/DTD/svg11.dtd">
<svg version="1.1" id="Layer_1" xmlns="http://www.w3.org/2000/svg" xmlns:xlink="http://www.w3.org/1999/xlink" x="0px" y="0px"
	 viewBox="0 0 91 91" enable-background="new 0 0 91 91" xml:space="preserve">
<g>
	<path d="M51.5,52.9h-1.1c-0.4-1.6-1-3.4-2-5.3c-3.3-6.2-9.2-9.6-16.5-9.6c-7.4,0-13.3,3.4-16.5,9.6c-1,2-1.6,4-2,5.6
		C5.6,54.6,0.2,60.8,0.2,68.9C0.2,77.1,6,83.4,14,84.7c0.4,0.1,0.9,0.2,1.3,0.2h36.2c9.5,0,16.7-6.9,16.7-16
		C68.2,59.6,61.2,52.9,51.5,52.9z M51.5,76.9H16.9c-6,0-8.7-4.1-8.7-8c0-4.8,3.5-8,8.7-8c2.1,0,3.9-1.7,4-3.9c0,0,0.1-3.1,1.7-6
		c1.8-3.4,4.9-5.1,9.2-5.1c4.4,0,7.5,1.7,9.4,5.1c1.6,2.9,1.8,6,1.8,6c0.1,2.1,1.9,3.8,4,3.8h4.5c5.2,0,8.7,3.2,8.7,8
		C60.2,72.7,57.5,76.9,51.5,76.9z"/>
	<path d="M78.9,42.2h-0.6c-0.3-1.1-0.7-2.3-1.4-3.6c-2.3-4.4-6.5-6.8-11.7-6.8c-1.8,0-3.4,0.3-4.9,0.8c-5.2,0.2-9.9-2.5-12.5-7
		c-2.7-4.6-2.4-10.5,0.6-14.9c0.6-0.9,0.7-2.1,0.2-3c-0.5-1-1.5-1.6-2.6-1.7c-4-0.2-7.9,0.8-11.4,2.8c-8.1,4.7-12.2,14.3-9.9,23.4
		c0.4,1.6,2,2.6,3.6,2.2c1.6-0.4,2.6-2,2.2-3.6c-1.6-6.5,1.3-13.4,7.1-16.7c1-0.6,2.1-1.1,3.2-1.4c-1.6,5.3-1.1,11.1,1.7,16
		c2.6,4.5,6.7,7.7,11.5,9.1c-0.2,0.3-0.3,0.6-0.5,0.9c-1.6,3.1-1.7,6.1-1.7,6.5c0,1.6,1.2,3,2.9,3.1c1.6,0,3-1.2,3.1-2.9
		c0.1-1.3,0.7-7.5,7.4-7.5c6.8,0,7.5,6.3,7.5,7.5c0.1,1.6,1.4,2.9,3,2.9h3.1c3.5,0,5.8,2.1,5.8,5.3c0,2.6-1.8,5.3-5.8,5.3h-3.6
		c-1.7,0-3,1.3-3,3s1.3,3,3,3h3.6c6.7,0,11.8-4.9,11.8-11.3C90.8,47,85.8,42.2,78.9,42.2z"/>
</g>
</svg>
