<?xml version="1.0" encoding="utf-8"?>
<!-- Generator: Adobe Illustrator 18.0.0, SVG Export Plug-In . SVG Version: 6.00 Build 0)  -->
<!DOCTYPE svg PUBLIC "-//W3C//DTD SVG 1.1//EN" "http://www.w3.org/Graphics/SVG/1.1/DTD/svg11.dtd">
<svg version="1.1" id="Layer_1" xmlns="http://www.w3.org/2000/svg" xmlns:xlink="http://www.w3.org/1999/xlink" x="0px" y="0px"
	 viewBox="0 0 91 91" enable-background="new 0 0 91 91" xml:space="preserve">
<path d="M62.8,69H26.6c-0.5,0-0.9-0.1-1.3-0.2c-8-1.2-13.8-7.6-13.8-15.8c0-8.1,5.4-14.3,13.2-15.7c0.4-1.6,1-3.6,2-5.6
	c3.2-6.2,9-9.6,16.5-9.6c7.4,0,13.3,3.4,16.5,9.6c1,1.9,1.6,3.8,2,5.3h1.1c9.7,0,16.7,6.7,16.7,16C79.5,62.1,72.3,69,62.8,69z
	 M28.2,61h34.6c6,0,8.7-4.1,8.7-8c0-4.8-3.5-8-8.7-8h-4.5c-2.1,0-3.9-1.7-4-3.8c0,0-0.2-3.1-1.8-6c-1.9-3.5-5-5.1-9.4-5.1
	C32.8,30,32.2,40,32.2,41.1c-0.1,2.2-1.8,3.9-4,3.9c-5.2,0-8.7,3.2-8.7,8C19.5,56.8,22.2,61,28.2,61z"/>
</svg>
