<?xml version="1.0" encoding="utf-8"?>
<!-- Generator: Adobe Illustrator 18.0.0, SVG Export Plug-In . SVG Version: 6.00 Build 0)  -->
<!DOCTYPE svg PUBLIC "-//W3C//DTD SVG 1.1//EN" "http://www.w3.org/Graphics/SVG/1.1/DTD/svg11.dtd">
<svg version="1.1" id="Layer_1" xmlns="http://www.w3.org/2000/svg" xmlns:xlink="http://www.w3.org/1999/xlink" x="0px" y="0px"
	 viewBox="0 0 91 91" enable-background="new 0 0 91 91" xml:space="preserve">
<g>
	<path d="M62.8,27.1h-1.1c-0.4-1.6-1-3.4-2-5.3c-3.3-6.2-9.2-9.6-16.5-9.6c-7.4,0-13.3,3.4-16.5,9.6c-1,2-1.6,4-2,5.6
		c-7.8,1.4-13.2,7.6-13.2,15.7c0,5.2,2.5,10,6.6,12.9c1.8,1.3,4.3,0.9,5.6-0.9c1.3-1.8,0.9-4.3-0.9-5.6c-2-1.4-3.2-3.8-3.2-6.4
		c0-4.8,3.5-8,8.7-8c2.2,0,3.9-1.7,4-3.9c0-1.1,0.6-11.1,10.9-11.1c4.4,0,7.5,1.7,9.4,5.1c1.6,2.9,1.8,6,1.8,6
		c0.1,2.1,1.9,3.8,4,3.8h4.5c5.2,0,8.7,3.2,8.7,8c0,4-2.6,7-6.5,7.8c-2.2,0.4-3.6,2.5-3.2,4.7c0.4,1.9,2,3.2,3.9,3.2
		c0.3,0,0.5,0,0.8-0.1c7.7-1.5,13-7.9,13-15.7C79.5,33.8,72.5,27.1,62.8,27.1z"/>
	<path d="M31.7,54.3c0.3,0.1,0.6,0.1,0.9,0.1c1.5,0,3-1,3.4-2.6l1.2-4.4c0.5-1.9-0.6-3.8-2.5-4.3c-1.9-0.5-3.8,0.6-4.3,2.5l-1.2,4.4
		C28.8,51.9,29.9,53.8,31.7,54.3z"/>
	<path d="M58.4,43.2c-1.9-0.5-3.8,0.6-4.3,2.5l-1.2,4.4c-0.5,1.9,0.6,3.8,2.5,4.3c0.3,0.1,0.6,0.1,0.9,0.1c1.5,0,3-1,3.4-2.6
		l1.2-4.4C61.4,45.6,60.3,43.7,58.4,43.2z"/>
	<path d="M44.4,51.3c-1.9-0.5-3.8,0.6-4.3,2.5l-1.2,4.4c-0.5,1.9,0.6,3.8,2.5,4.3c0.3,0.1,0.6,0.1,0.9,0.1c1.5,0,3-1,3.4-2.6
		l1.2-4.4C47.4,53.7,46.2,51.8,44.4,51.3z"/>
	<path d="M30.4,59.4c-1.9-0.5-3.8,0.6-4.3,2.5l-1.2,4.4c-0.5,1.9,0.6,3.8,2.5,4.3c0.3,0.1,0.6,0.1,0.9,0.1c1.5,0,3-1,3.4-2.6
		l1.2-4.4C33.3,61.9,32.2,59.9,30.4,59.4z"/>
	<path d="M54,59.4c-1.9-0.5-3.8,0.6-4.3,2.5l-1.2,4.4c-0.5,1.9,0.6,3.8,2.5,4.3c0.3,0.1,0.6,0.1,0.9,0.1c1.5,0,3-1,3.4-2.6l1.2-4.4
		C57,61.9,55.9,59.9,54,59.4z"/>
	<path d="M40,67.6c-1.9-0.5-3.8,0.6-4.3,2.5l-1.2,4.4c-0.5,1.9,0.6,3.8,2.5,4.3c0.3,0.1,0.6,0.1,0.9,0.1c1.5,0,3-1,3.4-2.6l1.2-4.4
		C43,70,41.9,68.1,40,67.6z"/>
</g>
</svg>
