<?xml version="1.0" encoding="utf-8"?>
<!-- Generator: Adobe Illustrator 18.0.0, SVG Export Plug-In . SVG Version: 6.00 Build 0)  -->
<!DOCTYPE svg PUBLIC "-//W3C//DTD SVG 1.1//EN" "http://www.w3.org/Graphics/SVG/1.1/DTD/svg11.dtd">
<svg version="1.1" id="Layer_1" xmlns="http://www.w3.org/2000/svg" xmlns:xlink="http://www.w3.org/1999/xlink" x="0px" y="0px"
	 viewBox="0 0 91 91" enable-background="new 0 0 91 91" xml:space="preserve">
<g>
	<path d="M40.5,42.3c-2.8,0-5.4,1.2-7.3,3.2c-1.3,1.4-1.2,3.6,0.2,4.9c1.4,1.3,3.6,1.2,4.9-0.2c0.6-0.6,1.3-0.9,2.2-0.9
		c1.6,0,3,1.3,3,3c0,1.6-1.3,3-3,3H4.1c-1.9,0-3.5,1.6-3.5,3.5c0,1.9,1.6,3.5,3.5,3.5h36.3c5.5,0,10-4.5,10-10
		C50.4,46.8,46,42.3,40.5,42.3z"/>
	<path d="M27.8,67.2H4.1c-1.9,0-3.5,1.6-3.5,3.5c0,1.9,1.6,3.5,3.5,3.5h23.7c1.6,0,3,1.3,3,3c0,1.6-1.3,3-3,3
		c-0.8,0-1.6-0.3-2.2-0.9c-1.3-1.4-3.5-1.5-4.9-0.2c-1.4,1.3-1.5,3.5-0.2,4.9c1.9,2,4.5,3.2,7.3,3.2c5.5,0,10-4.5,10-10
		C37.8,71.7,33.3,67.2,27.8,67.2z"/>
	<path d="M57.4,35.2h-0.8c-0.3-1.3-0.8-2.8-1.7-4.4c-2.8-5.2-7.7-8.1-13.9-8.1c-6.2,0-11.2,2.9-13.9,8.1c-0.8,1.6-1.4,3.3-1.7,4.6
		c-6.2,1.2-10.5,5.8-11,12.2c-0.1,1.9,1.3,3.6,3.2,3.7c1.9,0.1,3.6-1.3,3.7-3.2c0.3-3.6,3-5.9,7.1-5.9c1.9,0,3.4-1.5,3.5-3.4
		c0,0,0.1-2.4,1.3-4.7c1.5-2.9,4-4.3,7.7-4.3c3.6,0,6.1,1.4,7.7,4.2c1.3,2.4,1.5,4.9,1.5,4.9c0.1,1.9,1.6,3.3,3.5,3.3h3.8
		c4.3,0,7.1,2.6,7.1,6.5c0,3.1-2.2,6.5-7.1,6.5c-1.9,0-3.5,1.6-3.5,3.5c0,1.9,1.6,3.5,3.5,3.5c8,0,14.1-5.8,14.1-13.5
		C71.5,40.9,65.6,35.2,57.4,35.2z"/>
	<path d="M89.9,31.4c-0.6-0.8-1.5-1.3-2.5-1.2c-5.4,0.4-10.6-2.3-13.3-7c-2.7-4.7-2.5-10.6,0.6-15c0.6-0.8,0.6-1.9,0.2-2.8
		c-0.4-0.9-1.3-1.5-2.3-1.5c-3.9-0.1-7.8,0.8-11.2,2.8c-4.7,2.7-8.1,7.1-9.6,12.4c-0.4,1.5,0.4,3,1.9,3.4c1.5,0.4,3-0.4,3.4-1.9
		c1.1-3.9,3.6-7.1,7-9.1c1.2-0.7,2.4-1.2,3.7-1.5C66,15.1,66.5,21,69.3,25.9c2.8,4.9,7.7,8.3,13.1,9.4c-0.9,0.9-2,1.7-3.1,2.4
		c-1.2,0.7-2.4,1.2-3.7,1.5c-1.5,0.4-2.3,1.9-2,3.4c0.3,1.2,1.4,2,2.7,2c0.2,0,0.5,0,0.7-0.1c1.8-0.5,3.5-1.2,5.1-2.1
		c3.4-2,6.2-4.8,8-8.3C90.5,33.3,90.5,32.2,89.9,31.4z"/>
</g>
</svg>
