<?xml version="1.0" encoding="utf-8"?>
<!-- Generator: Adobe Illustrator 18.0.0, SVG Export Plug-In . SVG Version: 6.00 Build 0)  -->
<!DOCTYPE svg PUBLIC "-//W3C//DTD SVG 1.1//EN" "http://www.w3.org/Graphics/SVG/1.1/DTD/svg11.dtd">
<svg version="1.1" id="Layer_1" xmlns="http://www.w3.org/2000/svg" xmlns:xlink="http://www.w3.org/1999/xlink" x="0px" y="0px"
	 viewBox="0 0 91 91" enable-background="new 0 0 91 91" xml:space="preserve">
<g>
	<path d="M58,33.9h-1.1c-0.4-1.6-1-3.4-2-5.3c-3.3-6.2-9.2-9.6-16.5-9.6c-7.4,0-13.3,3.4-16.5,9.6c-1,2-1.6,4-2,5.6
		c-7.8,1.4-13.2,7.6-13.2,15.7c0,4.4,1.7,8.4,4.7,11.4c1.6,1.5,4.1,1.5,5.7-0.1c1.5-1.6,1.5-4.1-0.1-5.7c-1.5-1.5-2.3-3.5-2.3-5.7
		c0-4.8,3.5-8,8.7-8c2.2,0,3.9-1.7,4-3.9c0-1.1,0.6-11.1,10.9-11.1c4.4,0,7.5,1.7,9.4,5.1c1.6,2.9,1.8,6,1.8,6
		c0.1,2.1,1.9,3.8,4,3.8H58c5.2,0,8.7,3.2,8.7,8c0,3.5-2,6.3-5.3,7.5c-2.1,0.7-3.2,3-2.5,5.1c0.6,1.7,2.1,2.7,3.8,2.7
		c0.4,0,0.9-0.1,1.3-0.2c6.5-2.2,10.6-8.1,10.6-15C74.7,40.6,67.7,33.9,58,33.9z"/>
	<path d="M66.1,8c-5.4,0-10.5,2.4-14,6.6c-1.1,1.3-0.9,3.2,0.4,4.2c1.3,1.1,3.2,0.9,4.2-0.4c2.3-2.8,5.7-4.4,9.4-4.4
		c6.7,0,12.2,5.5,12.2,12.2c0,2.9-1,5.7-2.9,7.9c-1.1,1.3-0.9,3.2,0.4,4.2c0.6,0.5,1.3,0.7,1.9,0.7c0.9,0,1.7-0.4,2.3-1.1
		c2.8-3.3,4.3-7.5,4.3-11.8C84.3,16.2,76.1,8,66.1,8z"/>
	<path d="M38.8,55.6c1.7,0,3-1.3,3-3v-2.8c0-1.7-1.3-3-3-3s-3,1.3-3,3v2.8C35.8,54.2,37.1,55.6,38.8,55.6z"/>
	<path d="M38.8,60.8c-1.1,0-2.1,0.4-2.8,1.2c-0.7,0.8-1.2,1.8-1.2,2.8c0,1.1,0.4,2.1,1.2,2.8c0.8,0.7,1.8,1.2,2.8,1.2
		c1.1,0,2.1-0.4,2.8-1.2c0.8-0.8,1.2-1.8,1.2-2.8c0-1-0.4-2.1-1.2-2.8C40.9,61.3,39.8,60.8,38.8,60.8z"/>
	<path d="M38.8,74.1c-1.7,0-3,1.3-3,3V80c0,1.7,1.3,3,3,3s3-1.3,3-3v-2.8C41.8,75.5,40.4,74.1,38.8,74.1z"/>
	<path d="M50.4,54.7l-2.5,1.4c-1.4,0.8-1.9,2.7-1.1,4.1c0.6,1,1.6,1.5,2.6,1.5c0.5,0,1-0.1,1.5-0.4l2.5-1.4c1.4-0.8,1.9-2.7,1.1-4.1
		C53.6,54.4,51.8,53.9,50.4,54.7z"/>
	<path d="M26.6,68.4l-2.5,1.4c-1.4,0.8-1.9,2.7-1.1,4.1c0.6,1,1.6,1.5,2.6,1.5c0.5,0,1-0.1,1.5-0.4l2.5-1.4c1.4-0.8,1.9-2.7,1.1-4.1
		C29.9,68.1,28.1,67.6,26.6,68.4z"/>
	<path d="M53.4,69.8l-2.5-1.4c-1.4-0.8-3.3-0.3-4.1,1.1c-0.8,1.4-0.3,3.3,1.1,4.1l2.5,1.4c0.5,0.3,1,0.4,1.5,0.4c1,0,2-0.5,2.6-1.5
		C55.3,72.5,54.8,70.6,53.4,69.8z"/>
	<path d="M24.2,59.9l2.5,1.4c0.5,0.3,1,0.4,1.5,0.4c1,0,2-0.5,2.6-1.5c0.8-1.4,0.3-3.3-1.1-4.1l-2.5-1.4c-1.4-0.8-3.3-0.3-4.1,1.1
		C22.3,57.2,22.8,59.1,24.2,59.9z"/>
</g>
</svg>
