<?xml version="1.0" encoding="utf-8"?>
<!-- Generator: Adobe Illustrator 18.0.0, SVG Export Plug-In . SVG Version: 6.00 Build 0)  -->
<!DOCTYPE svg PUBLIC "-//W3C//DTD SVG 1.1//EN" "http://www.w3.org/Graphics/SVG/1.1/DTD/svg11.dtd">
<svg version="1.1" id="Layer_1" xmlns="http://www.w3.org/2000/svg" xmlns:xlink="http://www.w3.org/1999/xlink" x="0px" y="0px"
	 viewBox="0 0 91 91" enable-background="new 0 0 91 91" xml:space="preserve">
<g>
	<path d="M20.2,65.7c0.3,0.1,0.6,0.1,0.9,0.1c1.5,0,3-1,3.4-2.6l1.2-4.4c0.5-1.9-0.6-3.8-2.5-4.3c-1.9-0.5-3.8,0.6-4.3,2.5l-1.2,4.4
		C17.2,63.2,18.3,65.2,20.2,65.7z"/>
	<path d="M46.8,54.5C45,54,43,55.1,42.5,57l-1.2,4.4c-0.5,1.9,0.6,3.8,2.5,4.3c0.3,0.1,0.6,0.1,0.9,0.1c1.5,0,3-1,3.4-2.6l1.2-4.4
		C49.8,56.9,48.7,55,46.8,54.5z"/>
	<path d="M32.8,62.6c-1.9-0.5-3.8,0.6-4.3,2.5l-1.2,4.4c-0.5,1.9,0.6,3.8,2.5,4.3c0.3,0.1,0.6,0.1,0.9,0.1c1.5,0,3-1,3.4-2.6
		l1.2-4.4C35.8,65,34.7,63.1,32.8,62.6z"/>
	<path d="M18.8,70.7c-1.9-0.5-3.8,0.6-4.3,2.5l-1.2,4.4c-0.5,1.9,0.6,3.8,2.5,4.3c0.3,0.1,0.6,0.1,0.9,0.1c1.5,0,3-1,3.4-2.6
		l1.2-4.4C21.8,73.2,20.7,71.2,18.8,70.7z"/>
	<path d="M42.5,70.7c-1.9-0.5-3.8,0.6-4.3,2.5L37,77.6c-0.5,1.9,0.6,3.8,2.5,4.3c0.3,0.1,0.6,0.1,0.9,0.1c1.5,0,3-1,3.4-2.6l1.2-4.4
		C45.4,73.2,44.3,71.2,42.5,70.7z"/>
	<path d="M28.4,78.9c-1.9-0.5-3.8,0.6-4.3,2.5L23,85.8c-0.5,1.9,0.6,3.8,2.5,4.3c0.3,0.1,0.6,0.1,0.9,0.1c1.5,0,3-1,3.4-2.6l1.2-4.4
		C31.4,81.3,30.3,79.4,28.4,78.9z"/>
	<path d="M74.1,32.9c0-8.6-7-15.6-15.6-15.6c-3.1,0-6.2,0.9-8.7,2.7c-1.4,0.9-1.7,2.8-0.8,4.2c0.9,1.4,2.8,1.7,4.2,0.8
		c1.6-1.1,3.5-1.6,5.4-1.6c5.3,0,9.6,4.3,9.6,9.6c0,1.6-0.4,3.1-1.1,4.4c-0.8,1.5-0.2,3.3,1.3,4c0.4,0.2,0.9,0.3,1.4,0.3
		c1.1,0,2.1-0.6,2.7-1.6C73.5,37.9,74.1,35.4,74.1,32.9z"/>
	<path d="M58.5,12.5c1.7,0,3-1.3,3-3V3.8c0-1.7-1.3-3-3-3c-1.7,0-3,1.3-3,3v5.7C55.5,11.2,56.9,12.5,58.5,12.5z"/>
	<path d="M87.6,29.9h-5.7c-1.7,0-3,1.3-3,3c0,1.7,1.3,3,3,3h5.7c1.7,0,3-1.3,3-3C90.6,31.2,89.2,29.9,87.6,29.9z"/>
	<path d="M75,19.4c0.8,0,1.5-0.3,2.1-0.9l4-4c1.2-1.2,1.2-3.1,0-4.2C80,9,78.1,9,76.9,10.2l-4,4c-1.2,1.2-1.2,3.1,0,4.2
		C73.5,19.1,74.2,19.4,75,19.4z"/>
	<path d="M77.1,47.3c-1.2-1.2-3.1-1.2-4.2,0c-1.2,1.2-1.2,3.1,0,4.2l4,4c0.6,0.6,1.4,0.9,2.1,0.9c0.8,0,1.5-0.3,2.1-0.9
		c1.2-1.2,1.2-3.1,0-4.2L77.1,47.3z"/>
	<path d="M39.9,18.5c0.6,0.6,1.4,0.9,2.1,0.9c0.8,0,1.5-0.3,2.1-0.9c1.2-1.2,1.2-3.1,0-4.2l-4-4C38.9,9,37,9,35.8,10.2
		c-1.2,1.2-1.2,3.1,0,4.2L39.9,18.5z"/>
	<path d="M51.2,38.9h-1.5c-0.4-1.6-1-3.6-2.1-5.6C45.4,29,40.8,24,31.6,24c-9.2,0-13.8,5.1-16,9.4c-1.1,2.1-1.7,4.2-2,5.8
		C5.8,40.4,0.4,46.4,0.4,54.4c0,5,2.4,9.7,6.4,12.5c1.6,1.1,3.8,0.8,4.9-0.8c1.1-1.6,0.8-3.8-0.8-4.9c-2.2-1.5-3.4-4-3.4-6.8
		c0-5.1,3.7-8.5,9.2-8.5c1.9,0,3.4-1.5,3.5-3.4c0-1.2,0.7-11.5,11.4-11.5c10.7,0,11.6,10.4,11.7,11.6c0.1,1.9,1.6,3.3,3.5,3.3h4.5
		c5.5,0,9.2,3.4,9.2,8.5c0,4.2-2.7,7.5-6.9,8.3c-1.9,0.4-3.1,2.2-2.8,4.1c0.3,1.7,1.8,2.8,3.4,2.8c0.2,0,0.4,0,0.7-0.1
		c7.4-1.4,12.6-7.7,12.6-15.2C67.4,45.4,60.6,38.9,51.2,38.9z"/>
</g>
</svg>
