<?xml version="1.0" encoding="utf-8"?>
<!-- Generator: Adobe Illustrator 18.0.0, SVG Export Plug-In . SVG Version: 6.00 Build 0)  -->
<!DOCTYPE svg PUBLIC "-//W3C//DTD SVG 1.1//EN" "http://www.w3.org/Graphics/SVG/1.1/DTD/svg11.dtd">
<svg version="1.1" id="Layer_1" xmlns="http://www.w3.org/2000/svg" xmlns:xlink="http://www.w3.org/1999/xlink" x="0px" y="0px"
	 viewBox="0 0 91 91" enable-background="new 0 0 91 91" xml:space="preserve">
<g>
	<path d="M58,34.4h-1.1c-0.4-1.6-1-3.4-2-5.3c-3.3-6.2-9.2-9.6-16.5-9.6c-7.4,0-13.3,3.4-16.5,9.6c-1,2-1.6,4-2,5.6
		c-7.8,1.4-13.2,7.6-13.2,15.7c0,5.8,2.9,10.9,7.9,13.8c1.9,1.1,4.4,0.4,5.5-1.5c1.1-1.9,0.4-4.4-1.5-5.5c-2.4-1.4-3.8-3.9-3.8-6.8
		c0-4.8,3.5-8,8.7-8c2.2,0,3.9-1.7,4-3.9c0-1.1,0.6-11.1,10.9-11.1c4.4,0,7.5,1.7,9.4,5.1c1.6,2.9,1.8,6,1.8,6
		c0.1,2.1,1.9,3.8,4,3.8H58c5.2,0,8.7,3.2,8.7,8c0,3.9-2.7,8-8.7,8h-2.2c-2.2,0-4,1.8-4,4s1.8,4,4,4H58c9.5,0,16.7-6.9,16.7-16
		C74.7,41.2,67.7,34.4,58,34.4z"/>
	<path d="M66.1,8.6c-5.4,0-10.5,2.4-14,6.6c-1.1,1.3-0.9,3.2,0.4,4.2c1.3,1.1,3.2,0.9,4.2-0.4c2.3-2.8,5.7-4.4,9.4-4.4
		c6.7,0,12.2,5.5,12.2,12.2c0,2.9-1,5.7-2.9,7.9c-1.1,1.3-0.9,3.2,0.4,4.2c0.6,0.5,1.3,0.7,1.9,0.7c0.9,0,1.7-0.4,2.3-1.1
		c2.8-3.3,4.3-7.5,4.3-11.8C84.3,16.8,76.1,8.6,66.1,8.6z"/>
	<path d="M39.6,66.6c-0.8,0-1.5,0.4-2,1c-0.9,1.2-4,5.5-4,8.5c0,3.9,3,6.3,6,6.3c2.9,0,6-2.4,6-6.3c0-3.1-3-7.3-4-8.5
		C41.1,67,40.4,66.6,39.6,66.6z"/>
	<path d="M31.6,55.1c-0.8-1-2.4-1-3.2,0c-0.7,0.9-3,4.2-3,6.5c0,3,2.3,4.8,4.6,4.8s4.6-1.8,4.6-4.8C34.6,59.3,32.3,56,31.6,55.1z"/>
	<path d="M45.7,49.2c-0.5,0-0.9,0.2-1.2,0.6c-0.6,0.8-2.6,3.6-2.6,5.6c0,2.5,1.9,4,3.8,4h0c1.9,0,3.8-1.5,3.8-4
		C49.5,54.1,47.4,49.2,45.7,49.2z"/>
</g>
</svg>
