<?xml version="1.0" encoding="utf-8"?>
<!-- Generator: Adobe Illustrator 18.0.0, SVG Export Plug-In . SVG Version: 6.00 Build 0)  -->
<!DOCTYPE svg PUBLIC "-//W3C//DTD SVG 1.1//EN" "http://www.w3.org/Graphics/SVG/1.1/DTD/svg11.dtd">
<svg version="1.1" id="Layer_1" xmlns="http://www.w3.org/2000/svg" xmlns:xlink="http://www.w3.org/1999/xlink" x="0px" y="0px"
	 viewBox="0 0 91 91" enable-background="new 0 0 91 91" xml:space="preserve">
<g>
	<path d="M66.1,6.4c-5.4,0-10.5,2.4-14,6.6c-1.1,1.3-0.9,3.2,0.4,4.2c1.3,1.1,3.2,0.9,4.2-0.4c2.3-2.8,5.7-4.4,9.4-4.4
		c6.7,0,12.2,5.5,12.2,12.2c0,2.9-1,5.7-2.9,7.9c-1.1,1.3-0.9,3.2,0.4,4.2c0.6,0.5,1.3,0.7,1.9,0.7c0.9,0,1.7-0.4,2.3-1.1
		c2.8-3.3,4.3-7.5,4.3-11.8C84.3,14.5,76.1,6.4,66.1,6.4z"/>
	<path d="M58,32.2h-1.1c-0.4-1.6-1-3.4-2-5.3c-3.3-6.2-9.2-9.6-16.5-9.6c-7.4,0-13.3,3.4-16.5,9.6c-1,2-1.6,4-2,5.6
		c-7.8,1.4-13.2,7.6-13.2,15.7c0,5.2,2.5,10,6.6,12.9c1.8,1.3,4.3,0.9,5.6-0.9c1.3-1.8,0.9-4.3-0.9-5.6c-2-1.4-3.2-3.8-3.2-6.4
		c0-4.8,3.5-8,8.7-8c2.2,0,3.9-1.7,4-3.9c0-1.1,0.6-11.1,10.9-11.1c4.4,0,7.5,1.7,9.4,5.1c1.6,2.9,1.8,6,1.8,6
		c0.1,2.1,1.9,3.8,4,3.8H58c5.2,0,8.7,3.2,8.7,8c0,4-2.6,7-6.5,7.8c-2.2,0.4-3.6,2.5-3.2,4.7c0.4,1.9,2,3.2,3.9,3.2
		c0.3,0,0.5,0,0.8-0.1c7.7-1.5,13-7.9,13-15.7C74.7,38.9,67.7,32.2,58,32.2z"/>
	<path d="M30.3,49c-1.9-0.5-3.8,0.6-4.3,2.5L22.6,64c-0.5,1.9,0.6,3.8,2.5,4.3c0.3,0.1,0.6,0.1,0.9,0.1c1.5,0,3-1,3.4-2.6l3.4-12.6
		C33.2,51.4,32.1,49.5,30.3,49z"/>
	<path d="M21.2,71c-0.7,0.7-1,1.5-1,2.5c0,0.9,0.4,1.8,1,2.5c0.6,0.6,1.6,1,2.5,1c0.9,0,1.8-0.4,2.5-1c0.7-0.7,1-1.5,1-2.5
		c0-0.9-0.4-1.8-1-2.5C24.8,69.7,22.5,69.7,21.2,71z"/>
	<path d="M30.4,78.7c-0.6,0.6-1,1.6-1,2.5s0.4,1.8,1,2.5c0.7,0.7,1.6,1,2.5,1c0.9,0,1.8-0.4,2.5-1c0.7-0.7,1-1.6,1-2.5
		c0-0.9-0.4-1.8-1-2.5C34.1,77.4,31.7,77.4,30.4,78.7z"/>
	<path d="M43.7,71c-0.7,0.7-1,1.5-1,2.5c0,0.9,0.4,1.8,1,2.5c0.6,0.6,1.6,1,2.5,1c0.9,0,1.8-0.4,2.5-1c0.6-0.7,1-1.6,1-2.5
		c0-0.9-0.4-1.8-1-2.5C47.4,69.7,45,69.7,43.7,71z"/>
	<path d="M39.5,56.7c-1.9-0.5-3.8,0.6-4.3,2.5l-3.4,12.6c-0.5,1.9,0.6,3.8,2.5,4.3c0.3,0.1,0.6,0.1,0.9,0.1c1.5,0,3-1,3.4-2.6L42,61
		C42.5,59.1,41.4,57.2,39.5,56.7z"/>
	<path d="M52.8,49c-1.9-0.5-3.8,0.6-4.3,2.5L45.1,64c-0.5,1.9,0.6,3.8,2.5,4.3c0.3,0.1,0.6,0.1,0.9,0.1c1.5,0,3-1,3.4-2.6l3.4-12.6
		C55.8,51.4,54.7,49.5,52.8,49z"/>
</g>
</svg>
