<?xml version="1.0" encoding="utf-8"?>
<!-- Generator: Adobe Illustrator 18.0.0, SVG Export Plug-In . SVG Version: 6.00 Build 0)  -->
<!DOCTYPE svg PUBLIC "-//W3C//DTD SVG 1.1//EN" "http://www.w3.org/Graphics/SVG/1.1/DTD/svg11.dtd">
<svg version="1.1" id="Layer_1" xmlns="http://www.w3.org/2000/svg" xmlns:xlink="http://www.w3.org/1999/xlink" x="0px" y="0px"
	 viewBox="0 0 91 91" enable-background="new 0 0 91 91" xml:space="preserve">
<g>
	<path d="M88.5,32.8c-0.6-0.9-1.7-1.4-2.7-1.3c-4.8,0.4-9.5-2.1-11.9-6.3c-2.4-4.2-2.2-9.5,0.5-13.4c0.6-0.9,0.7-2.1,0.2-3
		c-0.5-1-1.5-1.6-2.6-1.7c-3.7-0.2-7.4,0.8-10.6,2.6c-5.3,3.1-8.9,8.4-9.7,14.5c-0.2,1.6,0.9,3.1,2.6,3.4c1.6,0.2,3.2-0.9,3.4-2.6
		c0.6-4.3,3-7.9,6.7-10.1c0.8-0.5,1.6-0.8,2.5-1.1c-1.4,4.8-0.8,10,1.8,14.4c2.6,4.4,6.8,7.5,11.6,8.7c-0.7,0.6-1.4,1.1-2.2,1.6
		c-0.8,0.5-1.7,0.8-2.5,1.1c-1.6,0.5-2.4,2.2-1.9,3.8c0.4,1.3,1.6,2.1,2.8,2.1c0.3,0,0.6,0,0.9-0.2c1.3-0.4,2.5-1,3.6-1.6
		c3.2-1.9,5.8-4.6,7.6-7.9C89.2,34.9,89.1,33.7,88.5,32.8z"/>
	<path d="M34.9,68.1c-0.8,0-1.5,0.4-2,1c-0.9,1.2-4,5.5-4,8.5c0,3.9,3,6.3,6,6.3s6-2.4,6-6.3c0-3.1-3-7.3-4-8.5
		C36.4,68.5,35.7,68.1,34.9,68.1z"/>
	<path d="M26.9,56.6c-0.8-1-2.4-1-3.2,0c-0.7,0.9-3,4.2-3,6.5c0,3,2.3,4.8,4.6,4.8s4.6-1.8,4.6-4.8C29.9,60.8,27.6,57.6,26.9,56.6z"
		/>
	<path d="M41,50.8c-0.5,0-0.9,0.2-1.2,0.6c-0.6,0.8-2.6,3.6-2.6,5.6c0,2.5,1.9,4,3.8,4h0c1.9,0,3.8-1.5,3.8-4
		C44.8,55.7,42.6,50.8,41,50.8z"/>
	<path d="M53.3,36h-1.1c-0.4-1.6-1-3.4-2-5.3C46.9,24.4,41,21,33.6,21c-7.4,0-13.3,3.4-16.5,9.6c-1,2-1.6,4-2,5.6
		C7.3,37.7,2,43.9,2,52c0,5.8,2.9,10.9,7.9,13.8c1.9,1.1,4.4,0.4,5.5-1.5c1.1-1.9,0.4-4.4-1.5-5.5C11.4,57.4,10,54.8,10,52
		c0-4.8,3.5-8,8.7-8c2.2,0,3.9-1.7,4-3.9C22.7,39,23.3,29,33.6,29c4.4,0,7.5,1.7,9.4,5.1c1.6,2.9,1.8,6,1.8,6c0.1,2.1,1.9,3.8,4,3.8
		h4.5c5.2,0,8.7,3.2,8.7,8c0,3.9-2.7,8-8.7,8H51c-2.2,0-4,1.8-4,4c0,2.2,1.8,4,4,4h2.2C62.8,68,70,61.1,70,52
		C70,42.7,62.9,36,53.3,36z"/>
</g>
</svg>
