<?xml version="1.0" encoding="utf-8"?>
<!-- Generator: Adobe Illustrator 18.0.0, SVG Export Plug-In . SVG Version: 6.00 Build 0)  -->
<!DOCTYPE svg PUBLIC "-//W3C//DTD SVG 1.1//EN" "http://www.w3.org/Graphics/SVG/1.1/DTD/svg11.dtd">
<svg version="1.1" id="Layer_1" xmlns="http://www.w3.org/2000/svg" xmlns:xlink="http://www.w3.org/1999/xlink" x="0px" y="0px"
	 viewBox="0 0 91 91" enable-background="new 0 0 91 91" xml:space="preserve">
<g>
	<path d="M45.5,89.1c24,0,43.6-19.6,43.6-43.6S69.5,1.9,45.5,1.9S1.9,21.5,1.9,45.5S21.5,89.1,45.5,89.1z M45.5,9.9
		c19.6,0,35.6,16,35.6,35.6s-16,35.6-35.6,35.6S9.9,65.1,9.9,45.5S25.9,9.9,45.5,9.9z"/>
	<path d="M42.7,67.5c0.4,1.2,1.6,1.9,2.8,1.9c1.2,0,2.4-0.8,2.8-1.9l14.4-37.9c0.5-1.3,0.1-2.7-1-3.5c-0.5-0.4-1.1-0.6-1.8-0.6
		c-0.7,0-1.3,0.2-1.9,0.7L45.5,36.4L33,26.2c-1.1-0.9-2.6-0.9-3.7-0.1c-1.1,0.8-1.5,2.2-1,3.5L42.7,67.5z M43.6,42.6
		c1.1,0.9,2.7,0.9,3.8,0l5.7-4.7l-7.6,20l-7.6-20L43.6,42.6z"/>
</g>
</svg>
