<?xml version="1.0" encoding="utf-8"?>
<!-- Generator: Adobe Illustrator 18.0.0, SVG Export Plug-In . SVG Version: 6.00 Build 0)  -->
<!DOCTYPE svg PUBLIC "-//W3C//DTD SVG 1.1//EN" "http://www.w3.org/Graphics/SVG/1.1/DTD/svg11.dtd">
<svg version="1.1" id="Layer_1" xmlns="http://www.w3.org/2000/svg" xmlns:xlink="http://www.w3.org/1999/xlink" x="0px" y="0px"
	 viewBox="0 0 91 91" enable-background="new 0 0 91 91" xml:space="preserve">
<g>
	<path d="M89.1,45.5c0-24-19.6-43.6-43.6-43.6S1.9,21.5,1.9,45.5s19.6,43.6,43.6,43.6S89.1,69.5,89.1,45.5z M9.9,45.5
		c0-19.6,16-35.6,35.6-35.6s35.6,16,35.6,35.6s-16,35.6-35.6,35.6S9.9,65.1,9.9,45.5z"/>
	<path d="M67.5,48.3c1.2-0.4,1.9-1.6,1.9-2.8c0-1.2-0.8-2.4-1.9-2.8L29.6,28.3c-1.3-0.5-2.7-0.1-3.5,1c-0.4,0.5-0.6,1.1-0.6,1.8
		c0,0.7,0.2,1.3,0.7,1.9l10.2,12.5L26.2,58c-0.9,1.1-0.9,2.6-0.1,3.7c0.8,1.1,2.2,1.5,3.5,1L67.5,48.3z M42.6,47.4
		c0.9-1.1,0.9-2.7,0-3.8L38,37.9l20,7.6l-20,7.6L42.6,47.4z"/>
</g>
</svg>
