<?xml version="1.0" encoding="utf-8"?>
<!-- Generator: Adobe Illustrator 18.0.0, SVG Export Plug-In . SVG Version: 6.00 Build 0)  -->
<!DOCTYPE svg PUBLIC "-//W3C//DTD SVG 1.1//EN" "http://www.w3.org/Graphics/SVG/1.1/DTD/svg11.dtd">
<svg version="1.1" id="Layer_1" xmlns="http://www.w3.org/2000/svg" xmlns:xlink="http://www.w3.org/1999/xlink" x="0px" y="0px"
	 viewBox="0 0 91 91" enable-background="new 0 0 91 91" xml:space="preserve">
<g>
	<path d="M1.9,45.5c0,24,19.6,43.6,43.6,43.6s43.6-19.6,43.6-43.6S69.5,1.9,45.5,1.9S1.9,21.5,1.9,45.5z M81.1,45.5
		c0,19.6-16,35.6-35.6,35.6S9.9,65.1,9.9,45.5s16-35.6,35.6-35.6S81.1,25.9,81.1,45.5z"/>
	<path d="M23.5,42.7c-1.2,0.4-1.9,1.6-1.9,2.8c0,1.2,0.8,2.4,1.9,2.8l37.9,14.4c1.3,0.5,2.7,0.1,3.5-1c0.4-0.5,0.6-1.1,0.6-1.8
		c0-0.7-0.2-1.3-0.7-1.9L54.6,45.5L64.8,33c0.9-1.1,0.9-2.6,0.1-3.7c-0.8-1.1-2.2-1.5-3.5-1L23.5,42.7z M48.4,43.6
		c-0.9,1.1-0.9,2.7,0,3.8l4.7,5.7l-20-7.6l20-7.6L48.4,43.6z"/>
</g>
</svg>
