<?xml version="1.0" encoding="utf-8"?>
<!-- Generator: Adobe Illustrator 18.0.0, SVG Export Plug-In . SVG Version: 6.00 Build 0)  -->
<!DOCTYPE svg PUBLIC "-//W3C//DTD SVG 1.1//EN" "http://www.w3.org/Graphics/SVG/1.1/DTD/svg11.dtd">
<svg version="1.1" id="Layer_1" xmlns="http://www.w3.org/2000/svg" xmlns:xlink="http://www.w3.org/1999/xlink" x="0px" y="0px"
	 viewBox="0 0 91 91" enable-background="new 0 0 91 91" xml:space="preserve">
<path d="M64.3,36.1c-0.5-1.1-1.6-1.8-2.7-1.8h-7.9l10.1-14.1c0.7-0.9,0.7-2.1,0.2-3.1c-0.5-1-1.5-1.6-2.7-1.6H40.8
	c-1.2,0-2.4,0.8-2.8,1.9L26.7,47.1c-0.4,0.9-0.2,2,0.3,2.8c0.6,0.8,1.5,1.3,2.5,1.3h0l5.8,0l-7.7,20.3c-0.5,1.4,0,2.9,1.2,3.6
	c0.5,0.3,1,0.4,1.6,0.4c0.8,0,1.7-0.3,2.2-1l31.2-35.2C64.6,38.4,64.8,37.2,64.3,36.1z M39,58.3l3.4-9c0.4-0.9,0.2-2-0.3-2.8
	c-0.6-0.8-1.5-1.3-2.5-1.3h0l-5.8,0l9.1-23.7h12.5L45.3,35.6c-0.7,0.9-0.7,2.1-0.2,3.1c0.5,1,1.5,1.6,2.7,1.6h7.1L39,58.3z"/>
</svg>
