<?xml version="1.0" encoding="utf-8"?>
<!-- Generator: Adobe Illustrator 18.0.0, SVG Export Plug-In . SVG Version: 6.00 Build 0)  -->
<!DOCTYPE svg PUBLIC "-//W3C//DTD SVG 1.1//EN" "http://www.w3.org/Graphics/SVG/1.1/DTD/svg11.dtd">
<svg version="1.1" id="Layer_1" xmlns="http://www.w3.org/2000/svg" xmlns:xlink="http://www.w3.org/1999/xlink" x="0px" y="0px"
	 viewBox="0 0 91 91" enable-background="new 0 0 91 91" xml:space="preserve">
<path d="M47.9,76.5C36.8,76.5,26.5,70.5,21,61c-4.1-7.2-5.2-15.5-3.1-23.5c2.1-8,7.3-14.7,14.4-18.8c4.1-2.4,8.6-3.7,13.3-4.1
	c1.7-0.1,3.3,0.9,4,2.4c0.7,1.6,0.3,3.4-1,4.5c-7.3,6.6-9.1,17.5-4.2,26c3.7,6.4,10.6,10.4,18.1,10.4c2.2,0,4.4-0.4,6.5-1
	c1.6-0.5,3.4,0,4.4,1.4c1,1.4,1.1,3.2,0.1,4.7c-2.6,3.9-6.1,7.1-10.2,9.5C58.6,75,53.3,76.5,47.9,76.5z M35.9,25.8
	c-5.1,3.1-8.7,7.9-10.3,13.7C24,45.4,24.8,51.6,27.9,57c4.1,7.1,11.7,11.5,19.9,11.5c3.8,0,7.6-1,11-2.8
	c-8.9-1.1-16.9-6.3-21.5-14.2C32.8,43.5,32.4,34,35.9,25.8z"/>
</svg>
