<?xml version="1.0" encoding="utf-8"?>
<!-- Generator: Adobe Illustrator 18.0.0, SVG Export Plug-In . SVG Version: 6.00 Build 0)  -->
<!DOCTYPE svg PUBLIC "-//W3C//DTD SVG 1.1//EN" "http://www.w3.org/Graphics/SVG/1.1/DTD/svg11.dtd">
<svg version="1.1" id="Layer_1" xmlns="http://www.w3.org/2000/svg" xmlns:xlink="http://www.w3.org/1999/xlink" x="0px" y="0px"
	 viewBox="0 0 91 91" enable-background="new 0 0 91 91" xml:space="preserve">
<path d="M47.2,78.1c-11.6,0-22.5-6.3-28.3-16.3c-9-15.6-3.6-35.6,11.9-44.6c5.3-3.1,11.5-4.6,17.6-4.3c1.5,0.1,2.8,0.9,3.4,2.2
	c0.7,1.3,0.5,2.9-0.3,4.1c-5,7.2-5.4,16.8-1,24.3c4.1,7,11.6,11.4,19.8,11.4c0.6,0,1.2,0,1.8-0.1c1.5-0.1,2.9,0.6,3.7,1.8
	c0.8,1.2,0.9,2.8,0.2,4.1c-2.9,5.5-7.2,10-12.6,13.1C58.5,76.6,52.9,78.1,47.2,78.1z M41.4,21.5c-2.3,0.5-4.5,1.4-6.6,2.6
	C23.1,31,19,46.1,25.8,57.8c4.4,7.6,12.6,12.3,21.4,12.3c4.3,0,8.5-1.1,12.3-3.3c2.1-1.2,4-2.7,5.6-4.4c-8.9-1.6-16.8-7-21.4-14.9
	C39.1,39.5,38.4,30,41.4,21.5z"/>
</svg>
