<?xml version="1.0" encoding="utf-8"?>
<!-- Generator: Adobe Illustrator 18.0.0, SVG Export Plug-In . SVG Version: 6.00 Build 0)  -->
<!DOCTYPE svg PUBLIC "-//W3C//DTD SVG 1.1//EN" "http://www.w3.org/Graphics/SVG/1.1/DTD/svg11.dtd">
<svg version="1.1" id="Layer_1" xmlns="http://www.w3.org/2000/svg" xmlns:xlink="http://www.w3.org/1999/xlink" x="0px" y="0px"
	 viewBox="0 0 91 91" enable-background="new 0 0 91 91" xml:space="preserve">
<path d="M48.7,17.9c-0.8-1-1.9-1.6-3.2-1.6c-1.3,0-2.4,0.6-3.2,1.6C40.6,20.2,25.4,40.6,25.4,53c0,13.6,10.2,21.7,20.1,21.7h0h0
	c9.9,0,20.1-8.1,20.1-21.7C65.6,40.6,50.4,20.2,48.7,17.9z M45.5,66.7L45.5,66.7L45.5,66.7c-5.9,0-12.1-4.8-12.1-13.7
	c0-6.6,7.1-18.5,12.1-25.9c5.6,8.2,12.1,19.7,12.1,25.9C57.6,61.9,51.4,66.7,45.5,66.7z"/>
</svg>
