<?xml version="1.0" encoding="utf-8"?>
<!-- Generator: Adobe Illustrator 18.0.0, SVG Export Plug-In . SVG Version: 6.00 Build 0)  -->
<!DOCTYPE svg PUBLIC "-//W3C//DTD SVG 1.1//EN" "http://www.w3.org/Graphics/SVG/1.1/DTD/svg11.dtd">
<svg version="1.1" id="Layer_1" xmlns="http://www.w3.org/2000/svg" xmlns:xlink="http://www.w3.org/1999/xlink" x="0px" y="0px"
	 viewBox="0 0 91 91" enable-background="new 0 0 91 91" xml:space="preserve">
<g>
	<path d="M45.5,32.4c2.2,0,4-1.8,4-4v-8.1c0-2.2-1.8-4-4-4s-4,1.8-4,4v8.1C41.5,30.7,43.3,32.4,45.5,32.4z"/>
	<path d="M69,42c1,0,2-0.4,2.8-1.2l5.8-5.8c1.6-1.6,1.6-4.1,0-5.7c-1.6-1.6-4.1-1.6-5.7,0l-5.8,5.8c-1.6,1.6-1.6,4.1,0,5.7
		C67,41.6,68,42,69,42z"/>
	<path d="M19.2,40.8C19.9,41.6,21,42,22,42c1,0,2-0.4,2.8-1.2c1.6-1.6,1.6-4.1,0-5.7l-5.8-5.8c-1.6-1.6-4.1-1.6-5.7,0
		c-1.6,1.6-1.6,4.1,0,5.7L19.2,40.8z"/>
	<path d="M86.9,66.7H4.1c-2.2,0-4,1.8-4,4s1.8,4,4,4h82.8c2.2,0,4-1.8,4-4S89.1,66.7,86.9,66.7z"/>
	<path d="M27.1,60.8c2.1,0.6,4.3-0.7,4.9-2.9c1.6-6.2,7.2-10.5,13.6-10.5s12,4.3,13.6,10.5c0.5,1.8,2.1,3,3.9,3c0.3,0,0.7,0,1-0.1
		c2.1-0.6,3.4-2.7,2.9-4.9c-2.5-9.7-11.3-16.5-21.3-16.5c-10,0-18.8,6.8-21.3,16.5C23.6,58.1,24.9,60.3,27.1,60.8z"/>
</g>
</svg>
