<?xml version="1.0" encoding="utf-8"?>
<!-- Generator: Adobe Illustrator 18.0.0, SVG Export Plug-In . SVG Version: 6.00 Build 0)  -->
<!DOCTYPE svg PUBLIC "-//W3C//DTD SVG 1.1//EN" "http://www.w3.org/Graphics/SVG/1.1/DTD/svg11.dtd">
<svg version="1.1" id="Layer_1" xmlns="http://www.w3.org/2000/svg" xmlns:xlink="http://www.w3.org/1999/xlink" x="0px" y="0px"
	 viewBox="0 0 91 91" enable-background="new 0 0 91 91" xml:space="preserve">
<g>
	<path d="M45.5,0.1C21.1,0.1,1.3,18,1.3,40c0,2.2,1.8,4,4.1,4c1.7,0,3.2-1,3.7-2.6c0.2-0.5,2.2-5,8.7-5c6,0,8.1,3.8,8.6,4.7
		c0.1,0.3,0.3,0.7,0.5,1c0.7,1.1,2,1.8,3.4,1.8c1.3,0,2.5-0.6,3.3-1.7c0.2-0.3,0.3-0.5,0.4-0.8c0.6-0.9,3.5-5,11.4-5
		c8.6,0,11.3,4.7,11.5,5.1c0.1,0.2,0.2,0.5,0.4,0.7c0.7,1.1,2,1.7,3.3,1.7c1.4,0,2.6-0.7,3.4-1.8c0.2-0.3,0.3-0.6,0.4-0.9
		c0.3-0.6,2.3-4.8,8.6-4.8c6.4,0,8.4,4.4,8.6,4.9c0.6,1.6,2.1,2.6,3.7,2.6c0.1,0,0.1,0,0.2,0c0.1,0,0.1,0,0.2,0c2.2,0,4-1.8,4-4
		C89.7,18,69.9,0.1,45.5,0.1z M72.9,28.5c-6.2,0-10.2,2.5-12.7,5c-2.9-2.5-7.6-5-14.9-5c-7.3,0-12,2.5-14.9,5c-2.5-2.5-6.5-5-12.7-5
		c-2.5,0-4.6,0.4-6.4,1C16.2,17.1,29.7,8.1,45.5,8.1c15.9,0,29.4,9,34.2,21.6C77.8,29,75.6,28.5,72.9,28.5z"/>
	<path d="M66.3,72.5c-2.2,0-4,1.8-4,4c0,3.5-2.9,6.4-6.4,6.4s-6.4-2.9-6.4-6.5V46.1c0-2.2-1.8-4-4-4s-4,1.8-4,4v30.4
		c0,7.9,6.5,14.4,14.4,14.4c7.9,0,14.4-6.5,14.4-14.4C70.3,74.3,68.5,72.5,66.3,72.5z"/>
</g>
</svg>
