<?xml version="1.0" encoding="utf-8"?>
<!-- Generator: Adobe Illustrator 18.0.0, SVG Export Plug-In . SVG Version: 6.00 Build 0)  -->
<!DOCTYPE svg PUBLIC "-//W3C//DTD SVG 1.1//EN" "http://www.w3.org/Graphics/SVG/1.1/DTD/svg11.dtd">
<svg version="1.1" id="Layer_1" xmlns="http://www.w3.org/2000/svg" xmlns:xlink="http://www.w3.org/1999/xlink" x="0px" y="0px"
	 viewBox="0 0 91 91" enable-background="new 0 0 91 91" xml:space="preserve">
<g>
	<path d="M49.4,47.2c-0.9,0-1.8,0.4-2.4,1.2c-1.2,1.6-7.4,10.1-7.4,15.7c0,6.6,5,10.5,9.8,10.5h0c4.8,0,9.8-3.9,9.8-10.5
		c0-2.6-1.3-6-3.8-10.3C52.7,49.1,51.5,47.2,49.4,47.2z"/>
	<path d="M35,27.2c-0.6-0.7-1.5-1.2-2.4-1.2c-0.9,0-1.8,0.4-2.4,1.2c-1.2,1.6-5.2,7.1-5.2,11.1c0,5,3.8,8,7.6,8s7.6-3,7.6-8
		C40.2,34.3,36.2,28.8,35,27.2z"/>
	<path d="M64.2,21.7c-1.3-2.2-2.1-3.6-4-3.6c-0.9,0-1.8,0.4-2.4,1.2c-1,1.4-3.5,4.9-3.5,7.6c0,3.8,3,6.1,5.8,6.1h0
		c2.9,0,5.8-2.3,5.8-6.1C66,25.5,65.4,23.8,64.2,21.7z"/>
</g>
</svg>
