<svg version="1" xmlns="http://www.w3.org/2000/svg" width="933.333" height="933.333" viewBox="0 0 700.000000 700.000000"><path d="M551.5 140.7c-23.9 4.2-40.1 12-54.5 26.3-8.5 8.6-10.4 12.6-10.6 23-.2 7.2.1 9.3 2.2 13.8 3.1 6.6 9.1 12.7 15.3 15.5 3.5 1.7 6.5 2.2 12.6 2.2 9.5-.1 14.6-2.2 23.2-9.8 6.6-5.8 11.3-8.2 17.9-9.4 19.5-3.6 37.4 11.1 38 31.2.3 8.8-1.5 14.6-6.3 21-4.6 5.9-11.3 10.3-18.5 12-4.1.9-60.9 1.2-251.7 1.1-183.8-.1-247.9.2-252.2 1.1-13.7 2.8-23.8 14.4-24.3 28.1-.5 13.4 6.2 24 18.6 29.7l5.8 2.6 252.3.1c138.7 0 254.1-.4 256.2-.7 4-.8 5.4-1 9.8-2 24.3-5.3 48.3-23.7 60.6-46.5 8.5-15.8 11.5-28.6 11.4-47.5-.2-31-17.6-61.5-44.7-78.5-7.9-5-17.9-9-28.6-11.5-6.8-1.6-27.3-2.8-32.5-1.8zM75 371.1c-8.7.4-11.4 1-15.6 3.2-21.2 10.8-22.5 40.5-2.3 53.2 7.7 4.9 1.2 4.8 192.9 4.9l180.5.1 4.9 2.3c6.8 3.1 11 6.5 14.6 11.7 8.2 11.9 7.7 27.1-1.3 39.9-4.2 6-19.4 13-26.2 12-7.8-1.1-10.2-1.7-14.6-4-2.7-1.5-5.3-3.2-5.7-3.8-1.6-2.7-10.4-8.9-15-10.6-6.4-2.4-16.9-2.1-23.2.7-6.2 2.8-13.2 10-15.8 16.2-3 7.2-2.6 18.6.8 25.6 5.1 10.2 22 23.7 38.1 30.3 23.8 9.8 52.3 9.1 75.7-1.9 51-23.8 70-86.1 40.9-133.9-5.2-8.5-6.5-10.2-14.5-18.3-15.2-15.6-37.4-26-58.2-27.3-11.6-.8-342.8-1-356-.3z"/></svg>