<?xml version="1.0" standalone="no"?>
<!DOCTYPE svg PUBLIC "-//W3C//DTD SVG 20010904//EN"
 "http://www.w3.org/TR/2001/REC-SVG-20010904/DTD/svg10.dtd">
<svg version="1.0" xmlns="http://www.w3.org/2000/svg"
 width="700.000000pt" height="700.000000pt" viewBox="0 0 700.000000 700.000000"
 preserveAspectRatio="xMidYMid meet">
<metadata>
Created by potrace 1.11, written by Peter Selinger 2001-2013
</metadata>
<g transform="translate(0.000000,700.000000) scale(0.100000,-0.100000)"
fill="#000000" stroke="none">
<path d="M3227 5914 c-1 -1 -33 -4 -70 -8 -103 -10 -134 -15 -240 -42 -243
-61 -429 -166 -602 -339 -113 -113 -119 -119 -187 -224 -72 -111 -130 -238
-178 -391 -23 -74 -45 -142 -49 -150 -5 -8 -26 -19 -47 -23 -133 -29 -283 -89
-399 -160 -255 -156 -426 -378 -518 -672 -47 -149 -63 -392 -37 -555 16 -105
20 -120 47 -205 76 -229 226 -437 423 -586 133 -100 221 -132 319 -117 194 31
308 220 246 408 -19 58 -96 144 -170 192 -195 125 -294 386 -241 638 46 219
209 387 432 445 54 14 86 18 229 30 136 12 238 86 280 204 8 23 17 76 20 118
17 246 92 442 223 584 69 75 181 154 252 180 25 9 57 21 73 27 27 12 39 14
154 30 124 17 312 3 423 -32 314 -99 513 -380 566 -801 17 -137 74 -222 184
-274 53 -25 63 -26 255 -28 110 -1 236 -4 281 -7 301 -18 526 -195 588 -463
18 -81 14 -240 -8 -318 -45 -155 -152 -289 -285 -359 -115 -60 -225 -83 -413
-85 -100 -1 -175 -7 -204 -16 -133 -40 -218 -158 -216 -299 2 -139 93 -254
230 -289 64 -16 319 -15 437 3 166 24 292 64 431 136 347 178 573 485 640 868
16 87 21 319 9 376 -2 13 -7 42 -11 65 -59 409 -390 789 -799 919 -178 56
-283 73 -482 75 -60 1 -73 4 -73 17 0 35 -73 235 -125 339 -101 205 -199 332
-380 489 -59 52 -233 153 -332 193 -83 33 -194 66 -272 79 -18 3 -43 7 -55 10
-59 11 -339 26 -349 18z"/>
<path d="M3828 3615 c-53 -29 -193 -266 -222 -376 -60 -228 124 -431 347 -383
74 15 156 82 187 149 55 121 46 202 -46 390 -95 194 -182 265 -266 220z"/>
<path d="M2645 3230 c-65 -14 -91 -42 -192 -205 -132 -215 -159 -371 -89 -518
110 -233 438 -265 591 -57 95 130 97 275 5 468 -39 82 -123 216 -164 260 -41
46 -94 64 -151 52z"/>
<path d="M3330 2268 c-52 -28 -111 -102 -206 -260 -144 -239 -190 -400 -158
-554 44 -216 233 -373 449 -375 49 0 59 1 120 17 146 36 283 176 326 334 26
98 11 239 -39 365 -57 144 -222 400 -295 459 -53 42 -133 48 -197 14z"/>
</g>
</svg>
