<svg version="1" xmlns="http://www.w3.org/2000/svg" width="933.333" height="933.333" viewBox="0 0 700.000000 700.000000"><path d="M322.7 108.6c-.1.1-3.3.4-7 .8-10.3 1-13.4 1.5-24 4.2-24.3 6.1-42.9 16.6-60.2 33.9-11.3 11.3-11.9 11.9-18.7 22.4-7.2 11.1-13 23.8-17.8 39.1-2.3 7.4-4.5 14.2-4.9 15-.5.8-2.6 1.9-4.7 2.3-13.3 2.9-28.3 8.9-39.9 16-25.5 15.6-42.6 37.8-51.8 67.2-4.7 14.9-6.3 39.2-3.7 55.5 1.6 10.5 2 12 4.7 20.5 7.6 22.9 22.6 43.7 42.3 58.6 13.3 10 22.1 13.2 31.9 11.7 19.4-3.1 30.8-22 24.6-40.8-1.9-5.8-9.6-14.4-17-19.2-19.5-12.5-29.4-38.6-24.1-63.8 4.6-21.9 20.9-38.7 43.2-44.5 5.4-1.4 8.6-1.8 22.9-3 13.6-1.2 23.8-8.6 28-20.4.8-2.3 1.7-7.6 2-11.8 1.7-24.6 9.2-44.2 22.3-58.4 6.9-7.5 18.1-15.4 25.2-18 2.5-.9 5.7-2.1 7.3-2.7 2.7-1.2 3.9-1.4 15.4-3 12.4-1.7 31.2-.3 42.3 3.2 31.4 9.9 51.3 38 56.6 80.1 1.7 13.7 7.4 22.2 18.4 27.4 5.3 2.5 6.3 2.6 25.5 2.8 11 .1 23.6.4 28.1.7 30.1 1.8 52.6 19.5 58.8 46.3 1.8 8.1 1.4 24-.8 31.8-4.5 15.5-15.2 28.9-28.5 35.9-11.5 6-22.5 8.3-41.3 8.5-10 .1-17.5.7-20.4 1.6-13.3 4-21.8 15.8-21.6 29.9.2 13.9 9.3 25.4 23 28.9 6.4 1.6 31.9 1.5 43.7-.3 16.6-2.4 29.2-6.4 43.1-13.6 34.7-17.8 57.3-48.5 64-86.8 1.6-8.7 2.1-31.9.9-37.6-.2-1.3-.7-4.2-1.1-6.5-5.9-40.9-39-78.9-79.9-91.9-17.8-5.6-28.3-7.3-48.2-7.5-6-.1-7.3-.4-7.3-1.7 0-3.5-7.3-23.5-12.5-33.9-10.1-20.5-19.9-33.2-38-48.9-5.9-5.2-23.3-15.3-33.2-19.3-8.3-3.3-19.4-6.6-27.2-7.9-1.8-.3-4.3-.7-5.5-1-5.9-1.1-33.9-2.6-34.9-1.8z"/><path d="M382.8 338.5c-5.3 2.9-19.3 26.6-22.2 37.6-6 22.8 12.4 43.1 34.7 38.3 7.4-1.5 15.6-8.2 18.7-14.9 5.5-12.1 4.6-20.2-4.6-39-9.5-19.4-18.2-26.5-26.6-22zM264.5 377c-6.5 1.4-9.1 4.2-19.2 20.5-13.2 21.5-15.9 37.1-8.9 51.8 11 23.3 43.8 26.5 59.1 5.7 9.5-13 9.7-27.5.5-46.8-3.9-8.2-12.3-21.6-16.4-26-4.1-4.6-9.4-6.4-15.1-5.2zM333 473.2c-5.2 2.8-11.1 10.2-20.6 26-14.4 23.9-19 40-15.8 55.4 4.4 21.6 23.3 37.3 44.9 37.5 4.9 0 5.9-.1 12-1.7 14.6-3.6 28.3-17.6 32.6-33.4 2.6-9.8 1.1-23.9-3.9-36.5-5.7-14.4-22.2-40-29.5-45.9-5.3-4.2-13.3-4.8-19.7-1.4z"/></svg>