<svg version="1" xmlns="http://www.w3.org/2000/svg" width="933.333" height="933.333" viewBox="0 0 700.000000 700.000000"><path d="M322.8 112.5c-.2.1-3.7.5-7.8.9-7.9.6-9.8.9-20.5 3.1-21.3 4.4-47.1 18.6-63.5 34.7-19.1 19-27.3 34.1-40.1 73.7l-1.4 4.3-9 2.3c-9.6 2.4-21.7 7-28.1 10.5-8.2 4.6-12.9 7.4-13.4 8-.3.3-2.5 2.1-5 3.9-7.2 5.4-19.2 18.2-24.2 25.7-14.4 21.7-20.9 43.4-21 69.9-.1 19.9 3.3 35.7 11.2 53.1 7.2 15.9 24.3 36.4 39 46.6 17.5 12.2 42 21.6 53.6 20.5 24.3-2.3 36.4-30.8 21.2-49.8-4.1-5.1-9.2-8.2-20-11.8-10-3.4-13.7-5.2-20.4-10.2-25.5-18.8-31-59.1-11.5-84.9 11.2-14.9 28.7-23.1 52-24.4 11.9-.7 18.7-3.3 24.5-9.2 6.1-6.2 8.3-11.5 9.2-21.9 3.9-44.1 25-72.7 60-81.5 10.9-2.8 31.6-3.4 42.5-1.3 22.1 4.1 38 14.3 49.8 31.8 6 8.8 12.1 22.9 14.7 34 .8 3.6 1.5 7.6 2 11.5 2.1 16.5 6.5 25.2 16.1 31.1 5.9 3.7 9.5 4.2 32.3 4.4 30.8.3 37.8 1.2 49.7 6.6 16.5 7.3 27.2 19.3 32.5 36.2 1.9 5.8 2.3 9.4 2.2 18.7-.1 21.5-6.3 34.7-23.1 49-.7.5-4.1 2.6-7.6 4.5-7.9 4.3-18.9 7.2-30.4 8-4.8.3-10.1.9-11.8 1.2-1.6.4-3.2.7-3.5.8-4.6.9-14.1 9.1-17.1 14.6-5.7 10.8-3.9 25.4 4.3 34.5 7 7.7 14.4 10.6 26.7 10.5 39.9-.5 79.4-20.4 101.3-50.8 15.8-21.9 23-44.8 23-72.4-.1-33.7-11.6-62.3-34.2-85-15.5-15.5-38.9-28.7-57.6-32.3-1.1-.2-3.7-.9-5.9-1.4-6-1.6-11.8-2.3-25.5-2.9-6.9-.3-12.7-.7-12.9-.9-.2-.2-2.4-6.3-4.8-13.6-11.2-33.7-30.5-59.9-56.3-77-14.1-9.3-31.1-16.7-44-19.2-1.4-.2-4.7-.9-7.5-1.4-8.6-1.7-15.6-2.4-27.7-2.7-6.5-.1-11.9-.1-12 0z"/><path d="M314 342.7c-3.6 1-6.3 2.9-7.6 5.4-.7 1.5-4.8 11.6-9 22.5-7.6 19.8-9.2 24-23.8 61.5-4.2 10.8-7.6 19.9-7.6 20.3 0 .3-.9 2.5-2 4.9-1 2.3-3 7.6-4.4 11.7l-2.5 7.5 2.2 4c1.2 2.2 3.3 4.5 4.6 5.1 1.4.7 7.8 1.3 15.9 1.3 7.5.1 13.7.3 13.8.4.2.3-9.3 25.1-11.7 30.4-1 2.4-1.9 4.6-1.9 5 0 .3-4.3 11.8-9.5 25.4-5.6 14.4-9.5 26.1-9.5 28.2 0 7.7 8.9 12.9 15.9 9.3 2.7-1.4 9.7-9 33.5-36 8-9.2 21.8-24.8 23.1-26.2.6-.6 3.7-4.2 7-8s7.6-8.7 9.6-10.9c2-2.2 5.9-6.5 8.5-9.6 2.7-3 7.9-8.9 11.5-13 3.6-4 12.1-13.7 18.9-21.4 6.8-7.7 13.2-14.9 14.3-16 8.5-8.8 9.8-15 4.7-20.9l-3.1-3.4-18.1-.2c-10 0-18.3-.2-18.5-.3-.1-.2 4.9-7.5 11.2-16.3 27.4-38.1 31.7-44.5 32.2-48.5.6-4.4-1.1-7.8-5.4-10.6-2.5-1.7-6.5-1.8-46.8-1.9-24.2 0-44.7.1-45.5.3z"/></svg>