<?xml version="1.0" standalone="no"?>
<!DOCTYPE svg PUBLIC "-//W3C//DTD SVG 20010904//EN"
 "http://www.w3.org/TR/2001/REC-SVG-20010904/DTD/svg10.dtd">
<svg version="1.0" xmlns="http://www.w3.org/2000/svg"
 width="700.000000pt" height="700.000000pt" viewBox="0 0 700.000000 700.000000"
 preserveAspectRatio="xMidYMid meet">
<metadata>
Created by potrace 1.11, written by Peter Selinger 2001-2013
</metadata>
<g transform="translate(0.000000,700.000000) scale(0.100000,-0.100000)"
fill="#000000" stroke="none">
<path d="M3228 5875 c-2 -1 -37 -5 -78 -9 -79 -6 -98 -9 -205 -31 -213 -44
-471 -186 -635 -347 -191 -190 -273 -341 -401 -737 l-14 -43 -90 -23 c-96 -24
-217 -70 -281 -105 -82 -46 -129 -74 -134 -80 -3 -3 -25 -21 -50 -39 -72 -54
-192 -182 -242 -257 -144 -217 -209 -434 -210 -699 -1 -199 33 -357 112 -531
72 -159 243 -364 390 -466 175 -122 420 -216 536 -205 243 23 364 308 212 498
-41 51 -92 82 -200 118 -100 34 -137 52 -204 102 -255 188 -310 591 -115 849
112 149 287 231 520 244 119 7 187 33 245 92 61 62 83 115 92 219 39 441 250
727 600 815 109 28 316 34 425 13 221 -41 380 -143 498 -318 60 -88 121 -229
147 -340 8 -36 15 -76 20 -115 21 -165 65 -252 161 -311 59 -37 95 -42 323
-44 308 -3 378 -12 497 -66 165 -73 272 -193 325 -362 19 -58 23 -94 22 -187
-1 -215 -63 -347 -231 -490 -7 -5 -41 -26 -76 -45 -79 -43 -189 -72 -304 -80
-48 -3 -101 -9 -118 -12 -16 -4 -32 -7 -35 -8 -46 -9 -141 -91 -171 -146 -57
-108 -39 -254 43 -345 70 -77 144 -106 267 -105 399 5 794 204 1013 508 158
219 230 448 230 724 -1 337 -116 623 -342 850 -155 155 -389 287 -576 323 -11
2 -37 9 -59 14 -60 16 -118 23 -255 29 -69 3 -127 7 -129 9 -2 2 -24 63 -48
136 -112 337 -305 599 -563 770 -141 93 -311 167 -440 192 -14 2 -47 9 -75 14
-86 17 -156 24 -277 27 -65 1 -119 1 -120 0z"/>
<path d="M3140 3573 c-36 -10 -63 -29 -76 -54 -7 -15 -48 -116 -90 -225 -76
-198 -92 -240 -238 -615 -42 -108 -76 -199 -76 -203 0 -3 -9 -25 -20 -49 -10
-23 -30 -76 -44 -117 l-25 -75 22 -40 c12 -22 33 -45 46 -51 14 -7 78 -13 159
-13 75 -1 137 -3 138 -4 2 -3 -93 -251 -117 -304 -10 -24 -19 -46 -19 -50 0
-3 -43 -118 -95 -254 -56 -144 -95 -261 -95 -282 0 -77 89 -129 159 -93 27 14
97 90 335 360 80 92 218 248 231 262 6 6 37 42 70 80 33 38 76 87 96 109 20
22 59 65 85 96 27 30 79 89 115 130 36 40 121 137 189 214 68 77 132 149 143
160 85 88 98 150 47 209 l-31 34 -181 2 c-100 0 -183 2 -185 3 -1 2 49 75 112
163 274 381 317 445 322 485 6 44 -11 78 -54 106 -25 17 -65 18 -468 19 -242
0 -447 -1 -455 -3z"/>
</g>
</svg>
