<?xml version="1.0" encoding="utf-8"?>
<!-- Generator: Adobe Illustrator 18.0.0, SVG Export Plug-In . SVG Version: 6.00 Build 0)  -->
<!DOCTYPE svg PUBLIC "-//W3C//DTD SVG 1.1//EN" "http://www.w3.org/Graphics/SVG/1.1/DTD/svg11.dtd">
<svg version="1.1" id="Layer_1" xmlns="http://www.w3.org/2000/svg" xmlns:xlink="http://www.w3.org/1999/xlink" x="0px" y="0px"
	 viewBox="0 0 91 91" enable-background="new 0 0 91 91" xml:space="preserve">
<g>
	<path d="M60.1,56.8c-2.1,0.7-4.3,1-6.5,1c-7.5,0-14.4-4-18.1-10.4c-4.9-8.5-3.1-19.4,4.2-26c1.3-1.1,1.7-3,1-4.5
		c-0.7-1.6-2.3-2.6-4-2.4c-4.7,0.3-9.2,1.7-13.3,4.1C8.7,27.2,3.6,46.2,12.2,61C17.7,70.5,28,76.5,39,76.5c5.4,0,10.8-1.4,15.5-4.2
		c4.1-2.4,7.5-5.5,10.2-9.5c1-1.4,0.9-3.3-0.1-4.7C63.5,56.8,61.7,56.3,60.1,56.8z M39,68.5c-8.2,0-15.8-4.4-19.9-11.5
		c-6.3-10.8-2.7-24.7,8-31.2C23.6,34,24,43.5,28.6,51.5c4.5,7.8,12.5,13.1,21.5,14.2C46.7,67.5,42.9,68.5,39,68.5z"/>
	<path d="M52,41.7c0.9,0,1.8-0.4,2.5-1c0.7-0.6,1-1.5,1-2.5c0-0.9-0.4-1.8-1-2.5c-1.3-1.3-3.6-1.3-4.9,0c-0.7,0.6-1,1.6-1,2.5
		c0,0.9,0.4,1.8,1,2.5C50.2,41.3,51.1,41.7,52,41.7z"/>
	<path d="M66,15.7c-1.2,0-2.3,0.5-3.2,1.3c-0.8,0.8-1.3,2-1.3,3.2c0,1.2,0.5,2.3,1.3,3.2c0.8,0.8,2,1.3,3.2,1.3
		c1.2,0,2.3-0.5,3.2-1.3c0.8-0.8,1.3-2,1.3-3.2c0-1.2-0.5-2.3-1.3-3.2C68.3,16.2,67.2,15.7,66,15.7z"/>
	<path d="M81.8,41.4c-0.7-0.7-1.8-1.2-2.8-1.2c-1,0-2.1,0.4-2.8,1.2c-0.7,0.7-1.2,1.8-1.2,2.8c0,1,0.4,2.1,1.2,2.8
		c0.8,0.7,1.8,1.2,2.8,1.2c1,0,2.1-0.4,2.8-1.2c0.8-0.8,1.2-1.8,1.2-2.8C83,43.2,82.6,42.1,81.8,41.4z"/>
</g>
</svg>
