<svg xmlns="http://www.w3.org/2000/svg" viewBox="0 0 91 91"><g fill="#1E256C"><path d="M60.1 56.8c-2.1 0.7-4.3 1-6.5 1 -7.5 0-14.4-4-18.1-10.4 -4.9-8.5-3.1-19.4 4.2-26 1.3-1.1 1.7-3 1-4.5 -0.7-1.6-2.3-2.6-4-2.4 -4.7 0.3-9.2 1.7-13.3 4.1C8.7 27.2 3.6 46.2 12.2 61 17.7 70.5 28 76.5 39 76.5c5.4 0 10.8-1.4 15.5-4.2 4.1-2.4 7.5-5.5 10.2-9.5 1-1.4 0.9-3.3-0.1-4.7C63.5 56.8 61.7 56.3 60.1 56.8zM39 68.5c-8.2 0-15.8-4.4-19.9-11.5 -6.3-10.8-2.7-24.7 8-31.2C23.6 34 24 43.5 28.6 51.5c4.5 7.8 12.5 13.1 21.5 14.2C46.7 67.5 42.9 68.5 39 68.5z"/><path d="M52 41.7c0.9 0 1.8-0.4 2.5-1 0.7-0.6 1-1.5 1-2.5 0-0.9-0.4-1.8-1-2.5 -1.3-1.3-3.6-1.3-4.9 0 -0.7 0.6-1 1.6-1 2.5 0 0.9 0.4 1.8 1 2.5C50.2 41.3 51.1 41.7 52 41.7z"/><path d="M66 15.7c-1.2 0-2.3 0.5-3.2 1.3 -0.8 0.8-1.3 2-1.3 3.2 0 1.2 0.5 2.3 1.3 3.2 0.8 0.8 2 1.3 3.2 1.3 1.2 0 2.3-0.5 3.2-1.3 0.8-0.8 1.3-2 1.3-3.2 0-1.2-0.5-2.3-1.3-3.2C68.3 16.2 67.2 15.7 66 15.7z"/><path d="M81.8 41.4c-0.7-0.7-1.8-1.2-2.8-1.2 -1 0-2.1 0.4-2.8 1.2 -0.7 0.7-1.2 1.8-1.2 2.8 0 1 0.4 2.1 1.2 2.8 0.8 0.7 1.8 1.2 2.8 1.2 1 0 2.1-0.4 2.8-1.2 0.8-0.8 1.2-1.8 1.2-2.8C83 43.2 82.6 42.1 81.8 41.4z"/></g></svg>