<svg style="width:1em" xmlns="http://www.w3.org/2000/svg" viewBox="0 0 91 91"><g class="sun"><path d="M45.5 23.5c-12.1 0-22 9.9-22 22s9.9 22 22 22 22-9.9 22-22-9.9-22-22-22zm0 36c-7.7 0-14-6.3-14-14s6.3-14 14-14 14 6.3 14 14-6.3 14-14 14zM45.5 16.2c2.2 0 4-1.8 4-4V4.1c0-2.2-1.8-4-4-4s-4 1.8-4 4v8.1c0 2.3 1.8 4 4 4zM86.9 41.5h-8.1c-2.2 0-4 1.8-4 4s1.8 4 4 4h8.1c2.2 0 4-1.8 4-4s-1.8-4-4-4zM45.5 74.8c-2.2 0-4 1.8-4 4v8.1c0 2.2 1.8 4 4 4s4-1.8 4-4v-8.1c0-2.3-1.8-4-4-4zM16.2 45.5c0-2.2-1.8-4-4-4H4.1c-2.2 0-4 1.8-4 4s1.8 4 4 4h8.1c2.3 0 4-1.8 4-4zM69 26c1 0 2-.4 2.8-1.2l5.8-5.8c1.6-1.6 1.6-4.1 0-5.7-1.6-1.6-4.1-1.6-5.7 0l-5.8 5.8c-1.6 1.6-1.6 4.1 0 5.7.9.8 1.9 1.2 2.9 1.2zM71.8 66.2c-1.6-1.6-4.1-1.6-5.7 0-1.6 1.6-1.6 4.1 0 5.7l5.8 5.8c.8.8 1.8 1.2 2.8 1.2 1 0 2-.4 2.8-1.2 1.6-1.6 1.6-4.1 0-5.7l-5.7-5.8zM19.2 66.2L13.4 72c-1.6 1.6-1.6 4.1 0 5.7.8.8 1.8 1.2 2.8 1.2 1 0 2-.4 2.8-1.2l5.8-5.8c1.6-1.6 1.6-4.1 0-5.7-1.5-1.6-4.1-1.6-5.6 0zM19.2 24.8c.7.8 1.8 1.2 2.8 1.2 1 0 2-.4 2.8-1.2 1.6-1.6 1.6-4.1 0-5.7L19 13.3c-1.6-1.6-4.1-1.6-5.7 0-1.6 1.6-1.6 4.1 0 5.7l5.9 5.8z"/></g></svg>
