<svg style="width:1em" xmlns="http://www.w3.org/2000/svg" viewBox="0 0 91 91"><path class="moon" d="M60.1 56.8c-2.1.7-4.3 1-6.5 1-7.5 0-14.4-4-18.1-10.4-4.9-8.5-3.1-19.4 4.2-26 1.3-1.1 1.7-3 1-4.5-.7-1.6-2.3-2.6-4-2.4-4.7.3-9.2 1.7-13.3 4.1C8.7 27.2 3.6 46.2 12.2 61 17.7 70.5 28 76.5 39 76.5c5.4 0 10.8-1.4 15.5-4.2 4.1-2.4 7.5-5.5 10.2-9.5 1-1.4.9-3.3-.1-4.7-1.1-1.3-2.9-1.8-4.5-1.3zM39 68.5c-8.2 0-15.8-4.4-19.9-11.5-6.3-10.8-2.7-24.7 8-31.2-3.5 8.2-3.1 17.7 1.5 25.7 4.5 7.8 12.5 13.1 21.5 14.2-3.4 1.8-7.2 2.8-11.1 2.8z"/><g class="stars"><path d="M52 41.7c.9 0 1.8-.4 2.5-1s1-1.5 1-2.5c0-.9-.4-1.8-1-2.5-1.3-1.3-3.6-1.3-4.9 0-.7.6-1 1.6-1 2.5 0 .9.4 1.8 1 2.5.6.6 1.5 1 2.4 1zM66 15.7c-1.2 0-2.3.5-3.2 1.3-.8.8-1.3 2-1.3 3.2 0 1.2.5 2.3 1.3 3.2.8.8 2 1.3 3.2 1.3 1.2 0 2.3-.5 3.2-1.3.8-.8 1.3-2 1.3-3.2 0-1.2-.5-2.3-1.3-3.2-.9-.8-2-1.3-3.2-1.3zM81.8 41.4c-.7-.7-1.8-1.2-2.8-1.2-1 0-2.1.4-2.8 1.2-.7.7-1.2 1.8-1.2 2.8 0 1 .4 2.1 1.2 2.8.8.7 1.8 1.2 2.8 1.2 1 0 2.1-.4 2.8-1.2.8-.8 1.2-1.8 1.2-2.8 0-1-.4-2.1-1.2-2.8z"/></g><title>Clear night</title></svg>