<?xml version="1.0" encoding="utf-8"?>
<!-- Generator: Adobe Illustrator 18.0.0, SVG Export Plug-In . SVG Version: 6.00 Build 0)  -->
<!DOCTYPE svg PUBLIC "-//W3C//DTD SVG 1.1//EN" "http://www.w3.org/Graphics/SVG/1.1/DTD/svg11.dtd">
<svg version="1.1" id="Layer_1" xmlns="http://www.w3.org/2000/svg" xmlns:xlink="http://www.w3.org/1999/xlink" x="0px" y="0px"
	 viewBox="0 0 91 91" enable-background="new 0 0 91 91" xml:space="preserve">
<g>
	<path d="M74.4,34.8c0-8.6-7-15.6-15.6-15.6c-3.1,0-6.2,0.9-8.7,2.7c-1.4,0.9-1.7,2.8-0.8,4.2c0.9,1.4,2.8,1.7,4.2,0.8
		c1.6-1.1,3.5-1.6,5.4-1.6c5.3,0,9.6,4.3,9.6,9.6c0,1.6-0.4,3.1-1.1,4.4c-0.8,1.5-0.2,3.3,1.3,4c0.4,0.2,0.9,0.3,1.4,0.3
		c1.1,0,2.1-0.6,2.7-1.6C73.8,39.8,74.4,37.3,74.4,34.8z"/>
	<path d="M58.8,14.4c1.7,0,3-1.3,3-3V5.7c0-1.7-1.3-3-3-3c-1.7,0-3,1.3-3,3v5.7C55.8,13.1,57.1,14.4,58.8,14.4z"/>
	<path d="M87.8,31.8h-5.7c-1.7,0-3,1.3-3,3s1.3,3,3,3h5.7c1.7,0,3-1.3,3-3S89.5,31.8,87.8,31.8z"/>
	<path d="M75.3,21.3c0.8,0,1.5-0.3,2.1-0.9l4-4c1.2-1.2,1.2-3.1,0-4.2c-1.2-1.2-3.1-1.2-4.2,0l-4,4c-1.2,1.2-1.2,3.1,0,4.2
		C73.7,21,74.5,21.3,75.3,21.3z"/>
	<path d="M77.4,49.2c-1.2-1.2-3.1-1.2-4.2,0c-1.2,1.2-1.2,3.1,0,4.2l4,4c0.6,0.6,1.4,0.9,2.1,0.9c0.8,0,1.5-0.3,2.1-0.9
		c1.2-1.2,1.2-3.1,0-4.2L77.4,49.2z"/>
	<path d="M40.1,20.4c0.6,0.6,1.4,0.9,2.1,0.9c0.8,0,1.5-0.3,2.1-0.9c1.2-1.2,1.2-3.1,0-4.2l-4-4c-1.2-1.2-3.1-1.2-4.2,0
		c-1.2,1.2-1.2,3.1,0,4.2L40.1,20.4z"/>
	<path d="M33.1,72.5c-0.8,0-1.5,0.4-2,1c-0.9,1.2-4,5.5-4,8.5c0,3.9,3,6.3,6,6.3c2.9,0,6-2.4,6-6.3c0-3.1-3-7.3-4-8.5
		C34.6,72.8,33.9,72.5,33.1,72.5z"/>
	<path d="M25.1,61c-0.8-1-2.4-1-3.2,0c-0.7,0.9-3,4.2-3,6.5c0,3,2.3,4.9,4.6,4.9s4.6-1.8,4.6-4.9C28.1,65.1,25.8,61.9,25.1,61z"/>
	<path d="M39.2,55.1c-0.5,0-0.9,0.2-1.2,0.6c-0.6,0.8-2.6,3.6-2.6,5.6c0,2.5,1.9,4,3.8,4h0c1.9,0,3.8-1.5,3.8-4
		C43,60,40.9,55.1,39.2,55.1z"/>
	<path d="M51.5,40.3h-1.1c-0.4-1.6-1-3.4-2-5.3c-3.3-6.2-9.2-9.6-16.5-9.6c-7.4,0-13.3,3.4-16.5,9.6c-1,2-1.6,4-2,5.6
		C5.5,42,0.2,48.2,0.2,56.3c0,5.8,2.9,10.9,7.9,13.8c1.9,1.1,4.4,0.4,5.5-1.5c1.1-1.9,0.4-4.4-1.5-5.5c-2.4-1.4-3.8-3.9-3.8-6.8
		c0-4.8,3.5-8,8.7-8c2.2,0,3.9-1.7,4-3.9c0-1.1,0.6-11.1,10.9-11.1c4.4,0,7.5,1.7,9.4,5.1c1.6,2.9,1.8,6,1.8,6
		c0.1,2.1,1.9,3.8,4,3.8h4.5c5.2,0,8.7,3.2,8.7,8c0,3.9-2.7,8-8.7,8h-2.2c-2.2,0-4,1.8-4,4s1.8,4,4,4h2.2c9.5,0,16.7-6.9,16.7-16
		C68.2,47,61.2,40.3,51.5,40.3z"/>
</g>
</svg>
