<?xml version="1.0" encoding="utf-8"?>
<!-- Generator: Adobe Illustrator 18.0.0, SVG Export Plug-In . SVG Version: 6.00 Build 0)  -->
<!DOCTYPE svg PUBLIC "-//W3C//DTD SVG 1.1//EN" "http://www.w3.org/Graphics/SVG/1.1/DTD/svg11.dtd">
<svg version="1.1" id="Layer_1" xmlns="http://www.w3.org/2000/svg" xmlns:xlink="http://www.w3.org/1999/xlink" x="0px" y="0px"
	 viewBox="0 0 91 91" enable-background="new 0 0 91 91" xml:space="preserve">
<g>
	<path d="M50.8,30.5c-3.2,0-6.4,1.4-8.6,3.7c-1.5,1.6-1.4,4.1,0.2,5.7c1.6,1.5,4.1,1.4,5.7-0.2c0.7-0.8,1.7-1.2,2.7-1.2
		c2.1,0,3.8,1.7,3.8,3.8c0,2.1-1.7,3.8-3.8,3.8H7.2c-2.2,0-4,1.8-4,4s1.8,4,4,4h43.6c6.5,0,11.8-5.3,11.8-11.8
		C62.5,35.8,57.3,30.5,50.8,30.5z"/>
	<path d="M35.7,60.4H7.2c-2.2,0-4,1.8-4,4s1.8,4,4,4h28.4c2.1,0,3.8,1.7,3.8,3.8c0,2.1-1.7,3.8-3.8,3.8c-1.1,0-2-0.4-2.8-1.2
		c-1.5-1.6-4-1.7-5.7-0.2c-1.6,1.5-1.7,4-0.2,5.7c2.2,2.4,5.3,3.7,8.6,3.7c6.5,0,11.8-5.3,11.8-11.8C47.4,65.7,42.2,60.4,35.7,60.4z
		"/>
	<path d="M71.1,22H70c-0.4-1.6-1-3.4-2-5.3c-3.3-6.2-9.2-9.6-16.5-9.6c-7.4,0-13.3,3.4-16.5,9.6c-1,2-1.6,4-2,5.6
		c-7.4,1.3-12.6,6.9-13.1,14.4c-0.2,2.2,1.5,4.1,3.7,4.3c2.2,0.2,4.1-1.5,4.3-3.7c0.3-4.4,3.7-7.3,8.6-7.3c2.2,0,3.9-1.7,4-3.9
		c0-1.1,0.6-11.1,10.9-11.1c4.4,0,7.5,1.7,9.4,5.1c1.6,2.9,1.8,6,1.8,6c0.1,2.1,1.9,3.8,4,3.8h4.5c5.2,0,8.7,3.2,8.7,8
		c0,3.9-2.7,8-8.7,8c-2.2,0-4,1.8-4,4s1.8,4,4,4c9.5,0,16.7-6.9,16.7-16C87.8,28.8,80.8,22,71.1,22z"/>
</g>
</svg>
