<svg style="width:1em" xmlns="http://www.w3.org/2000/svg" viewBox="0 0 91 91"><path class="cloud" d="M62.8 27.1h-1.1c-.4-1.6-1-3.4-2-5.3-3.3-6.2-9.2-9.6-16.5-9.6-7.4 0-13.3 3.4-16.5 9.6-1 2-1.6 4-2 5.6-7.8 1.4-13.2 7.6-13.2 15.7 0 5.2 2.5 10 6.6 12.9 1.8 1.3 4.3.9 5.6-.9 1.3-1.8.9-4.3-.9-5.6-2-1.4-3.2-3.8-3.2-6.4 0-4.8 3.5-8 8.7-8 2.2 0 3.9-1.7 4-3.9 0-1.1.6-11.1 10.9-11.1 4.4 0 7.5 1.7 9.4 5.1 1.6 2.9 1.8 6 1.8 6 .1 2.1 1.9 3.8 4 3.8h4.5c5.2 0 8.7 3.2 8.7 8 0 4-2.6 7-6.5 7.8-2.2.4-3.6 2.5-3.2 4.7.4 1.9 2 3.2 3.9 3.2.3 0 .5 0 .8-.1 7.7-1.5 13-7.9 13-15.7-.1-9.1-7.1-15.8-16.8-15.8z"/><path d="M31.7 54.3c.3.1.6.1.9.1 1.5 0 3-1 3.4-2.6l1.2-4.4c.5-1.9-.6-3.8-2.5-4.3s-3.8.6-4.3 2.5L29.2 50c-.4 1.9.7 3.8 2.5 4.3zM58.4 43.2c-1.9-.5-3.8.6-4.3 2.5l-1.2 4.4c-.5 1.9.6 3.8 2.5 4.3.3.1.6.1.9.1 1.5 0 3-1 3.4-2.6l1.2-4.4c.5-1.9-.6-3.8-2.5-4.3zM44.4 51.3c-1.9-.5-3.8.6-4.3 2.5l-1.2 4.4c-.5 1.9.6 3.8 2.5 4.3.3.1.6.1.9.1 1.5 0 3-1 3.4-2.6l1.2-4.4c.5-1.9-.7-3.8-2.5-4.3zM30.4 59.4c-1.9-.5-3.8.6-4.3 2.5l-1.2 4.4c-.5 1.9.6 3.8 2.5 4.3.3.1.6.1.9.1 1.5 0 3-1 3.4-2.6l1.2-4.4c.4-1.8-.7-3.8-2.5-4.3zM54 59.4c-1.9-.5-3.8.6-4.3 2.5l-1.2 4.4c-.5 1.9.6 3.8 2.5 4.3.3.1.6.1.9.1 1.5 0 3-1 3.4-2.6l1.2-4.4c.5-1.8-.6-3.8-2.5-4.3zM40 67.6c-1.9-.5-3.8.6-4.3 2.5l-1.2 4.4c-.5 1.9.6 3.8 2.5 4.3.3.1.6.1.9.1 1.5 0 3-1 3.4-2.6l1.2-4.4c.5-1.9-.6-3.8-2.5-4.3z" class="rain"/><title>Drizzle</title></svg>