<?xml version="1.0" encoding="utf-8"?>
<!-- Generator: Adobe Illustrator 18.0.0, SVG Export Plug-In . SVG Version: 6.00 Build 0)  -->
<!DOCTYPE svg PUBLIC "-//W3C//DTD SVG 1.1//EN" "http://www.w3.org/Graphics/SVG/1.1/DTD/svg11.dtd">
<svg version="1.1" id="Layer_1" xmlns="http://www.w3.org/2000/svg" xmlns:xlink="http://www.w3.org/1999/xlink" x="0px" y="0px"
	 viewBox="0 0 91 91" enable-background="new 0 0 91 91" xml:space="preserve">
<g>
	<path d="M57.8,41.7H57c-0.3-1.3-0.8-2.8-1.7-4.4c-2.8-5.2-7.7-8.1-13.9-8.1c-7.7,0-13.3,4.4-15.3,12c-0.5,1.9,0.6,3.8,2.5,4.3
		c1.9,0.5,3.8-0.6,4.3-2.5c1.8-6.8,6.9-6.8,8.6-6.8c8.2,0,9.1,7.6,9.1,9.1c0.1,1.9,1.6,3.3,3.5,3.3h3.8c4.3,0,7.1,2.6,7.1,6.5
		c0,3.1-2.2,6.5-7.1,6.5H39.2H27.6H4.1c-1.9,0-3.5,1.6-3.5,3.5s1.6,3.5,3.5,3.5h23.4h11.6h18.6c8,0,14.1-5.8,14.1-13.5
		C71.8,47.4,65.9,41.7,57.8,41.7z"/>
	<path d="M12.6,56.7h28c1.9,0,3.5-1.6,3.5-3.5c0-1.9-1.6-3.5-3.5-3.5h-28c-1.9,0-3.5,1.6-3.5,3.5C9.1,55.1,10.7,56.7,12.6,56.7z"/>
	<path d="M52.6,73.7H17.5c-1.9,0-3.5,1.6-3.5,3.5s1.6,3.5,3.5,3.5h35.1c1.9,0,3.5-1.6,3.5-3.5S54.5,73.7,52.6,73.7z"/>
	<path d="M89.9,37.9c-0.6-0.8-1.5-1.3-2.5-1.2c-5.4,0.4-10.6-2.3-13.3-7c-2.7-4.7-2.5-10.6,0.6-15c0.6-0.8,0.6-1.9,0.2-2.8
		c-0.4-0.9-1.3-1.5-2.3-1.5c-3.9-0.2-7.8,0.8-11.2,2.8c-4.7,2.7-8.1,7.1-9.6,12.4c-0.4,1.5,0.4,3,1.9,3.4c1.5,0.4,3-0.4,3.4-1.9
		c1.1-3.9,3.6-7.1,7-9.1c1.2-0.7,2.4-1.2,3.7-1.5c-1.8,5.3-1.3,11.2,1.6,16.1c2.8,4.9,7.7,8.3,13.1,9.4c-0.9,0.9-2,1.7-3.1,2.4
		c-1.2,0.7-2.4,1.2-3.7,1.5c-1.5,0.4-2.3,1.9-2,3.4c0.3,1.2,1.4,2,2.7,2c0.2,0,0.5,0,0.7-0.1c1.8-0.5,3.5-1.2,5.1-2.1
		c3.4-2,6.2-4.8,8-8.3C90.5,39.8,90.5,38.7,89.9,37.9z"/>
</g>
</svg>
