<?xml version="1.0" encoding="utf-8"?>
<!-- Generator: Adobe Illustrator 18.0.0, SVG Export Plug-In . SVG Version: 6.00 Build 0)  -->
<!DOCTYPE svg PUBLIC "-//W3C//DTD SVG 1.1//EN" "http://www.w3.org/Graphics/SVG/1.1/DTD/svg11.dtd">
<svg version="1.1" id="Layer_1" xmlns="http://www.w3.org/2000/svg" xmlns:xlink="http://www.w3.org/1999/xlink" x="0px" y="0px"
	 viewBox="0 0 91 91" enable-background="new 0 0 91 91" xml:space="preserve">
<g>
	<path d="M66.1,6.7c-5.4,0-10.5,2.4-14,6.6c-1.1,1.3-0.9,3.2,0.4,4.2c1.3,1.1,3.2,0.9,4.2-0.4c2.3-2.8,5.7-4.4,9.4-4.4
		c6.7,0,12.2,5.5,12.2,12.2c0,2.9-1,5.7-2.9,7.9c-1.1,1.3-0.9,3.2,0.4,4.2c0.6,0.5,1.3,0.7,1.9,0.7c0.9,0,1.7-0.4,2.3-1.1
		c2.8-3.3,4.3-7.5,4.3-11.8C84.3,14.9,76.1,6.7,66.1,6.7z"/>
	<path d="M58,32.5h-1.1c-0.4-1.6-1-3.4-2-5.3c-3.3-6.2-9.2-9.6-16.5-9.6c-7.4,0-13.3,3.4-16.5,9.6c-1,2-1.6,4-2,5.6
		c-7.8,1.4-13.2,7.6-13.2,15.7c0,5.2,2.5,10,6.6,12.9c1.8,1.3,4.3,0.9,5.6-0.9c1.3-1.8,0.9-4.3-0.9-5.6c-2-1.4-3.2-3.8-3.2-6.4
		c0-4.8,3.5-8,8.7-8c2.2,0,3.9-1.7,4-3.9c0-1.1,0.6-11.1,10.9-11.1c4.4,0,7.5,1.7,9.4,5.1c1.6,2.9,1.8,6,1.8,6
		c0.1,2.1,1.9,3.8,4,3.8H58c5.2,0,8.7,3.2,8.7,8c0,4-2.6,7-6.5,7.8C58,56.7,56.6,58.8,57,61c0.4,1.9,2,3.2,3.9,3.2
		c0.3,0,0.5,0,0.8-0.1c7.7-1.5,13-7.9,13-15.7C74.7,39.3,67.7,32.5,58,32.5z"/>
	<path d="M26.9,59.8c0.3,0.1,0.6,0.1,0.9,0.1c1.5,0,3-1,3.4-2.6l1.2-4.4c0.5-1.9-0.6-3.8-2.5-4.3c-1.9-0.5-3.8,0.6-4.3,2.5l-1.2,4.4
		C23.9,57.4,25,59.3,26.9,59.8z"/>
	<path d="M53.6,48.6c-1.9-0.5-3.8,0.6-4.3,2.5l-1.2,4.4c-0.5,1.9,0.6,3.8,2.5,4.3c0.3,0.1,0.6,0.1,0.9,0.1c1.5,0,3-1,3.4-2.6
		l1.2-4.4C56.6,51,55.5,49.1,53.6,48.6z"/>
	<path d="M39.6,56.7c-1.9-0.5-3.8,0.6-4.3,2.5l-1.2,4.4c-0.5,1.9,0.6,3.8,2.5,4.3c0.3,0.1,0.6,0.1,0.9,0.1c1.5,0,3-1,3.4-2.6L42,61
		C42.5,59.2,41.4,57.2,39.6,56.7z"/>
	<path d="M25.5,64.9c-1.9-0.5-3.8,0.6-4.3,2.5l-1.2,4.4c-0.5,1.9,0.6,3.8,2.5,4.3c0.3,0.1,0.6,0.1,0.9,0.1c1.5,0,3-1,3.4-2.6
		l1.2-4.4C28.5,67.3,27.4,65.4,25.5,64.9z"/>
	<path d="M49.2,64.9c-1.9-0.5-3.8,0.6-4.3,2.5l-1.2,4.4c-0.5,1.9,0.6,3.8,2.5,4.3c0.3,0.1,0.6,0.1,0.9,0.1c1.5,0,3-1,3.4-2.6
		l1.2-4.4C52.2,67.3,51.1,65.4,49.2,64.9z"/>
	<path d="M35.2,73c-1.9-0.5-3.8,0.6-4.3,2.5l-1.2,4.4c-0.5,1.9,0.6,3.8,2.5,4.3c0.3,0.1,0.6,0.1,0.9,0.1c1.5,0,3-1,3.4-2.6l1.2-4.4
		C38.2,75.4,37.1,73.5,35.2,73z"/>
</g>
</svg>
