<?xml version="1.0" encoding="utf-8"?>
<!-- Generator: Adobe Illustrator 18.0.0, SVG Export Plug-In . SVG Version: 6.00 Build 0)  -->
<!DOCTYPE svg PUBLIC "-//W3C//DTD SVG 1.1//EN" "http://www.w3.org/Graphics/SVG/1.1/DTD/svg11.dtd">
<svg version="1.1" id="Layer_1" xmlns="http://www.w3.org/2000/svg" xmlns:xlink="http://www.w3.org/1999/xlink" x="0px" y="0px"
	 viewBox="0 0 91 91" enable-background="new 0 0 91 91" xml:space="preserve">
<g>
	<path d="M34.1,57.1c1.7,0,3-1.3,3-3v-2.8c0-1.7-1.3-3-3-3c-1.7,0-3,1.3-3,3v2.8C31.1,55.8,32.4,57.1,34.1,57.1z"/>
	<path d="M34.1,62.4c-1.1,0-2.1,0.4-2.8,1.2c-0.8,0.7-1.2,1.8-1.2,2.8c0,1.1,0.4,2.1,1.2,2.8c0.7,0.8,1.8,1.2,2.8,1.2
		c1,0,2.1-0.4,2.8-1.2c0.7-0.7,1.2-1.8,1.2-2.8c0-1-0.4-2.1-1.2-2.8C36.1,62.8,35.1,62.4,34.1,62.4z"/>
	<path d="M34.1,75.7c-1.7,0-3,1.3-3,3v2.8c0,1.7,1.3,3,3,3c1.7,0,3-1.3,3-3v-2.8C37.1,77,35.7,75.7,34.1,75.7z"/>
	<path d="M45.7,56.2l-2.5,1.4c-1.4,0.8-1.9,2.7-1.1,4.1c0.6,1,1.6,1.5,2.6,1.5c0.5,0,1-0.1,1.5-0.4l2.5-1.4c1.4-0.8,1.9-2.7,1.1-4.1
		C48.9,55.9,47.1,55.4,45.7,56.2z"/>
	<path d="M21.9,69.9l-2.5,1.4c-1.4,0.8-1.9,2.7-1.1,4.1c0.6,1,1.6,1.5,2.6,1.5c0.5,0,1-0.1,1.5-0.4l2.5-1.4c1.4-0.8,1.9-2.7,1.1-4.1
		C25.2,69.6,23.4,69.1,21.9,69.9z"/>
	<path d="M48.7,71.4l-2.5-1.4c-1.4-0.8-3.3-0.3-4.1,1.1c-0.8,1.4-0.3,3.3,1.1,4.1l2.5,1.4c0.5,0.3,1,0.4,1.5,0.4c1,0,2-0.5,2.6-1.5
		C50.6,74,50.1,72.2,48.7,71.4z"/>
	<path d="M19.5,61.4l2.5,1.4c0.5,0.3,1,0.4,1.5,0.4c1,0,2-0.5,2.6-1.5c0.8-1.4,0.3-3.3-1.1-4.1l-2.5-1.4c-1.4-0.8-3.3-0.3-4.1,1.1
		C17.5,58.8,18,60.6,19.5,61.4z"/>
	<path d="M88.5,32.2c-0.6-0.9-1.7-1.4-2.7-1.3c-4.8,0.4-9.5-2.1-11.9-6.3c-2.4-4.2-2.2-9.5,0.5-13.4c0.6-0.9,0.7-2.1,0.2-3
		c-0.5-1-1.5-1.6-2.6-1.7c-3.7-0.2-7.4,0.8-10.6,2.6c-5.3,3.1-8.9,8.4-9.7,14.5c-0.2,1.6,0.9,3.1,2.6,3.4c1.7,0.2,3.1-0.9,3.4-2.6
		c0.6-4.3,3-7.9,6.7-10.1c0.8-0.5,1.6-0.8,2.5-1.1c-1.4,4.8-0.8,10,1.8,14.4c2.6,4.4,6.8,7.5,11.6,8.7c-0.7,0.6-1.4,1.1-2.2,1.6
		c-0.8,0.5-1.7,0.8-2.5,1.1c-1.6,0.5-2.4,2.2-1.9,3.8c0.4,1.3,1.6,2.1,2.8,2.1c0.3,0,0.6,0,0.9-0.2c1.3-0.4,2.5-1,3.6-1.6
		c3.2-1.9,5.8-4.6,7.6-7.9C89.2,34.3,89.1,33.1,88.5,32.2z"/>
	<path d="M53.3,35.4h-1.1c-0.4-1.6-1-3.4-2-5.3c-3.3-6.2-9.2-9.6-16.5-9.6c-7.4,0-13.3,3.4-16.5,9.6c-1,2-1.6,4-2,5.6
		C7.3,37.1,2,43.3,2,51.4c0,4.4,1.7,8.4,4.7,11.4c1.6,1.5,4.1,1.5,5.7-0.1c1.5-1.6,1.5-4.1-0.1-5.7c-1.5-1.5-2.3-3.5-2.3-5.7
		c0-4.8,3.5-8,8.7-8c2.2,0,3.9-1.7,4-3.9c0-1.1,0.6-11.1,10.9-11.1c4.4,0,7.5,1.7,9.4,5.1c1.6,2.9,1.8,6,1.8,6
		c0.1,2.1,1.9,3.8,4,3.8h4.5c5.2,0,8.7,3.2,8.7,8c0,3.5-2,6.3-5.3,7.5c-2.1,0.7-3.2,3-2.5,5.1c0.6,1.7,2.1,2.7,3.8,2.7
		c0.4,0,0.9-0.1,1.3-0.2c6.5-2.2,10.6-8.1,10.6-15C70,42.1,62.9,35.4,53.3,35.4z"/>
</g>
</svg>
