<svg xmlns="http://www.w3.org/2000/svg" viewBox="0 0 91 91"><g fill="#36383C"><path d="M51.5 40h-1.1c-0.4-1.6-1-3.4-2-5.3 -3.3-6.2-9.2-9.6-16.5-9.6 -7.4 0-13.3 3.4-16.5 9.6 -1 2-1.6 4-2 5.6C5.6 41.8 0.2 47.9 0.2 56 0.2 64.2 6 70.6 14 71.8c0.4 0.1 0.9 0.2 1.3 0.2h36.2c9.5 0 16.7-6.9 16.7-16C68.2 46.8 61.2 40 51.5 40zM51.5 64H16.9c-6 0-8.7-4.1-8.7-8 0-4.8 3.5-8 8.7-8 2.2 0 3.9-1.7 4-3.9 0-1.1 0.6-11.1 10.9-11.1 4.4 0 7.5 1.7 9.4 5.1 1.6 2.9 1.8 6 1.8 6 0.1 2.1 1.9 3.8 4 3.8h4.5c5.2 0 8.7 3.2 8.7 8C60.2 59.9 57.5 64 51.5 64z"/><path d="M78.9 29.4h-0.6c-0.3-1.1-0.7-2.3-1.4-3.6 -2.3-4.4-6.5-6.8-11.7-6.8 -5.2 0-9.4 2.4-11.6 6.8 -1.6 3.1-1.7 6.1-1.7 6.5 0 1.6 1.2 3 2.9 3.1 1.6 0.1 3-1.2 3.1-2.9 0.1-1.3 0.7-7.5 7.4-7.5 6.8 0 7.5 6.3 7.5 7.5 0.1 1.6 1.4 2.9 3 2.9h3.1c3.5 0 5.8 2.1 5.8 5.3 0 2.6-1.8 5.3-5.8 5.3h-3.6c-1.7 0-3 1.3-3 3s1.3 3 3 3h3.6c6.7 0 11.8-4.9 11.8-11.3C90.8 34.1 85.8 29.4 78.9 29.4z"/></g></svg>