<?xml version="1.0" encoding="utf-8"?>
<!-- Generator: Adobe Illustrator 18.0.0, SVG Export Plug-In . SVG Version: 6.00 Build 0)  -->
<!DOCTYPE svg PUBLIC "-//W3C//DTD SVG 1.1//EN" "http://www.w3.org/Graphics/SVG/1.1/DTD/svg11.dtd">
<svg version="1.1" id="Layer_1" xmlns="http://www.w3.org/2000/svg" xmlns:xlink="http://www.w3.org/1999/xlink" x="0px" y="0px"
	 viewBox="0 0 91 91" enable-background="new 0 0 91 91" xml:space="preserve">
<g>
	<path d="M51.5,49.1h-1.1c-0.4-1.6-1-3.4-2-5.3c-3.3-6.2-9.2-9.6-16.5-9.6c-7.4,0-13.3,3.4-16.5,9.6c-1,2-1.6,4-2,5.6
		C5.6,50.8,0.2,57,0.2,65.1C0.2,73.2,6,79.6,14,80.8c0.4,0.1,0.9,0.2,1.3,0.2h36.2c9.5,0,16.7-6.9,16.7-16
		C68.2,55.8,61.2,49.1,51.5,49.1z M51.5,73.1H16.9c-6,0-8.7-4.1-8.7-8c0-4.8,3.5-8,8.7-8c2.2,0,3.9-1.7,4-3.9
		c0-1.1,0.6-11.1,10.9-11.1c4.4,0,7.5,1.7,9.4,5.1c1.6,2.9,1.8,6,1.8,6c0.1,2.1,1.9,3.8,4,3.8h4.5c5.2,0,8.7,3.2,8.7,8
		C60.2,68.9,57.5,73.1,51.5,73.1z"/>
	<path d="M78.9,38.4h-0.6c-0.3-1.1-0.7-2.3-1.4-3.6c-2-3.8-5.5-6.2-9.8-6.7C65.5,17.7,56.7,9.9,45.9,9.9c-10,0-18.6,6.8-20.9,16.5
		c-0.4,1.6,0.6,3.2,2.2,3.6c1.6,0.4,3.2-0.6,3.6-2.2c1.7-7,7.8-11.9,15-11.9c7.6,0,13.9,5.3,15.2,12.6c-3.3,1-5.9,3.1-7.5,6.3
		c-1.6,3.1-1.7,6.1-1.7,6.5c0,1.6,1.2,3,2.9,3.1c0,0,0.1,0,0.1,0c1.6,0,2.9-1.3,3-2.9c0.1-1.3,0.7-7.5,7.4-7.5
		c6.8,0,7.5,6.3,7.5,7.5c0.1,1.6,1.4,2.9,3,2.9h3.1c3.5,0,5.8,2.1,5.8,5.3c0,2.6-1.8,5.3-5.8,5.3h-3.6c-1.7,0-3,1.3-3,3
		c0,1.7,1.3,3,3,3h3.6c6.7,0,11.8-4.9,11.8-11.3C90.8,43.2,85.8,38.4,78.9,38.4z"/>
</g>
</svg>
