<?xml version="1.0" encoding="utf-8"?>
<!-- Generator: Adobe Illustrator 18.0.0, SVG Export Plug-In . SVG Version: 6.00 Build 0)  -->
<!DOCTYPE svg PUBLIC "-//W3C//DTD SVG 1.1//EN" "http://www.w3.org/Graphics/SVG/1.1/DTD/svg11.dtd">
<svg version="1.1" id="Layer_1" xmlns="http://www.w3.org/2000/svg" xmlns:xlink="http://www.w3.org/1999/xlink" x="0px" y="0px"
	 viewBox="0 0 91 91" enable-background="new 0 0 91 91" xml:space="preserve">
<g>
	<path d="M18.7,32.1h47.8c2.2,0,4-1.8,4-4s-1.8-4-4-4H18.7c-2.2,0-4,1.8-4,4S16.5,32.1,18.7,32.1z"/>
	<path d="M68,45.8c0-2.2-1.8-4-4-4H4.1c-2.2,0-4,1.8-4,4s1.8,4,4,4H64C66.2,49.8,68,48,68,45.8z"/>
	<path d="M86.9,59.4H27c-2.2,0-4,1.8-4,4s1.8,4,4,4h59.9c2.2,0,4-1.8,4-4S89.1,59.4,86.9,59.4z"/>
	<path d="M78.4,32.6h0.2c2.5,0,4.5-2,4.5-4.5c0-2.5-2-4.5-4.5-4.5h-0.2c-2.5,0-4.5,2-4.5,4.5C73.9,30.6,75.9,32.6,78.4,32.6z"/>
</g>
</svg>
