<?xml version="1.0" encoding="utf-8"?>
<!-- Generator: Adobe Illustrator 18.0.0, SVG Export Plug-In . SVG Version: 6.00 Build 0)  -->
<!DOCTYPE svg PUBLIC "-//W3C//DTD SVG 1.1//EN" "http://www.w3.org/Graphics/SVG/1.1/DTD/svg11.dtd">
<svg version="1.1" id="Layer_1" xmlns="http://www.w3.org/2000/svg" xmlns:xlink="http://www.w3.org/1999/xlink" x="0px" y="0px"
	 viewBox="0 0 91 91" enable-background="new 0 0 91 91" xml:space="preserve">
<g>
	<path d="M11,49c2.2,0,4-1.8,4-4c0-4.8,3.5-8,8.7-8c2.2,0,3.9-1.7,4-3.9C27.8,32,28.4,22,38.7,22c4.4,0,7.5,1.7,9.4,5.1
		c1.6,2.9,1.8,6,1.8,6c0.1,2.1,1.9,3.8,4,3.8h4.5c5.2,0,8.7,3.2,8.7,8c0,2.2,1.8,4,4,4c2.2,0,4-1.8,4-4c0-9.3-7-16-16.7-16h-1.1
		c-0.4-1.6-1-3.4-2-5.3c-3.3-6.2-9.2-9.6-16.5-9.6c-7.4,0-13.3,3.4-16.5,9.6c-1,2-1.6,4-2,5.6C12.4,30.7,7,36.9,7,45
		C7,47.2,8.8,49,11,49z"/>
	<path d="M62.6,58.6c0-1.9-1.6-3.5-3.5-3.5H10.7c-1.9,0-3.5,1.6-3.5,3.5c0,1.9,1.6,3.5,3.5,3.5h48.5C61.1,62.1,62.6,60.5,62.6,58.6z
		"/>
	<path d="M80.5,70H25.3c-1.9,0-3.5,1.6-3.5,3.5c0,1.9,1.6,3.5,3.5,3.5h55.2c1.9,0,3.5-1.6,3.5-3.5C84,71.5,82.4,70,80.5,70z"/>
	<path d="M71.5,54.6h-0.2c-2.2,0-4,1.8-4,4s1.8,4,4,4h0.2c2.2,0,4-1.8,4-4S73.7,54.6,71.5,54.6z"/>
</g>
</svg>
