<svg style="margin-right:.2em;width:2em;" xmlns="http://www.w3.org/2000/svg" viewBox="0 0 91 91"><path d="m62.8 26.7h-1.1c-0.4-1.6-1-3.4-2-5.3-3.3-6.2-9.2-9.6-16.5-9.6-7.4 0-13.3 3.4-16.5 9.6-1 2-1.6 4-2 5.6-7.8 1.4-13.2 7.6-13.2 15.7 0 5.2 2.5 10 6.6 12.9 1.8 1.3 4.3 0.9 5.6-0.9s0.9-4.3-0.9-5.6c-2-1.4-3.2-3.8-3.2-6.4 0-4.8 3.5-8 8.7-8 2.2 0 3.9-1.7 4-3.9 0-1.1 0.6-11.1 10.9-11.1 4.4 0 7.5 1.7 9.4 5.1 1.6 2.9 1.8 6 1.8 6 0.1 2.1 1.9 3.8 4 3.8h4.5c5.2 0 8.7 3.2 8.7 8 0 4-2.6 7-6.5 7.8-2.2 0.4-3.6 2.5-3.2 4.7 0.4 1.9 2 3.2 3.9 3.2 0.3 0 0.5 0 0.8-0.1 7.7-1.5 13-7.9 13-15.7-0.1-9-7.1-15.8-16.8-15.8z" class="cloud"/><path d="m35.1 43.5c-1.9-0.5-3.8 0.6-4.3 2.5l-3.4 12.6c-0.5 1.9 0.6 3.8 2.5 4.3 0.3 0.1 0.6 0.1 0.9 0.1 1.5 0 3-1 3.4-2.6l3.4-12.6c0.4-1.9-0.7-3.8-2.5-4.3z" class="hail"/><path d="m26 65.5c-0.7 0.6-1 1.5-1 2.5 0 0.9 0.4 1.8 1 2.5 0.7 0.7 1.6 1 2.5 1s1.8-0.4 2.5-1 1-1.5 1-2.5c0-0.9-0.4-1.8-1-2.5-1.4-1.3-3.7-1.3-5 0z" class="hail"/><path d="m35.2 73.2c-0.7 0.6-1 1.5-1 2.5 0 0.9 0.4 1.8 1 2.5 0.6 0.6 1.5 1 2.5 1 0.9 0 1.8-0.4 2.5-1 0.6-0.6 1-1.5 1-2.5 0-0.9-0.4-1.8-1-2.5-1.3-1.3-3.7-1.3-5 0z" class="hail"/><path d="m48.5 65.5c-0.6 0.6-1 1.6-1 2.5s0.4 1.8 1 2.5c0.7 0.7 1.6 1 2.5 1s1.8-0.4 2.5-1 1-1.5 1-2.5c0-0.9-0.4-1.8-1-2.5-1.3-1.3-3.7-1.3-5 0z" class="hail"/><path d="m44.3 51.2c-1.9-0.5-3.8 0.6-4.3 2.5l-3.4 12.6c-0.5 1.9 0.6 3.8 2.5 4.3 0.3 0.1 0.6 0.1 0.9 0.1 1.5 0 3-1 3.4-2.6l3.4-12.6c0.5-1.9-0.6-3.8-2.5-4.3z" class="hail"/><path d="m57.6 43.5c-1.9-0.5-3.8 0.6-4.3 2.5l-3.4 12.6c-0.5 1.9 0.6 3.8 2.5 4.3 0.3 0.1 0.6 0.1 0.9 0.1 1.5 0 3-1 3.4-2.6l3.4-12.6c0.5-1.9-0.6-3.8-2.5-4.3z" class="hail"/><title>Hail</title></svg>
