<?xml version="1.0" encoding="utf-8"?>
<!-- Generator: Adobe Illustrator 18.0.0, SVG Export Plug-In . SVG Version: 6.00 Build 0)  -->
<!DOCTYPE svg PUBLIC "-//W3C//DTD SVG 1.1//EN" "http://www.w3.org/Graphics/SVG/1.1/DTD/svg11.dtd">
<svg version="1.1" id="Layer_1" xmlns="http://www.w3.org/2000/svg" xmlns:xlink="http://www.w3.org/1999/xlink" x="0px" y="0px"
	 viewBox="0 0 91 91" enable-background="new 0 0 91 91" xml:space="preserve">
<path d="M45.7,76.7L45.7,76.7c-11.1,0-21.5-6-27.1-15.6c-8.6-14.9-3.5-34,11.4-42.6c4.7-2.7,10.1-4.2,15.6-4.2
	c3.6,0,7.2,0.6,10.6,1.9c1.9,0.7,3,2.7,2.5,4.7c-1.3,5.4-0.5,11,2.3,15.8c2.8,4.8,7.2,8.3,12.5,9.9c2,0.6,3.2,2.5,2.8,4.5
	c-1.6,9.1-7.1,16.9-15.1,21.5C56.6,75.3,51.2,76.7,45.7,76.7z M45.7,22.3c-4,0-8,1.1-11.6,3.1C23,31.8,19.2,46,25.6,57.1
	c4.1,7.2,11.8,11.6,20.1,11.6h0c4,0,8.1-1.1,11.6-3.1c5-2.9,8.6-7.4,10.4-12.8c-5.7-2.5-10.4-6.7-13.6-12.2
	c-3.1-5.5-4.4-11.7-3.8-17.9C48.8,22.4,47.3,22.3,45.7,22.3z"/>
</svg>
