<svg style="width:1em" xmlns="http://www.w3.org/2000/svg" viewBox="0 0 91 91"><path class="cloud" d="M51.5 48.3h-1.1c-.4-1.6-1-3.4-2-5.3-3.3-6.2-9.2-9.6-16.5-9.6-7.4 0-13.3 3.4-16.5 9.6-1 2-1.6 4-2 5.6C5.6 50 .2 56.2.2 64.3S6 78.8 14 80.1c.4.1.9.2 1.3.2h36.2c9.5 0 16.7-6.9 16.7-16 0-9.3-7-16-16.7-16zm0 24H16.9c-6 0-8.7-4.1-8.7-8 0-4.8 3.5-8 8.7-8 2.1 0 3.9-1.7 4-3.9 0 0 .1-3.1 1.7-6 1.8-3.4 4.9-5.1 9.2-5.1 4.4 0 7.5 1.7 9.4 5.1 1.6 2.9 1.8 6 1.8 6 .1 2.1 1.9 3.8 4 3.8h4.5c5.2 0 8.7 3.2 8.7 8 0 3.9-2.7 8.1-8.7 8.1z"/><path d="M74.3 42.8c0-8.6-7-15.6-15.6-15.6-3.1 0-6.2.9-8.7 2.7-1.4.9-1.7 2.8-.8 4.2.9 1.4 2.8 1.7 4.2.8 1.6-1.1 3.5-1.6 5.4-1.6 5.3 0 9.6 4.3 9.6 9.6 0 1.6-.4 3.1-1.1 4.4-.8 1.5-.2 3.3 1.3 4 .4.2.9.3 1.4.3 1.1 0 2.1-.6 2.7-1.6 1-2.2 1.6-4.7 1.6-7.2zM58.7 22.4c1.7 0 3-1.3 3-3v-5.7c0-1.7-1.3-3-3-3s-3 1.3-3 3v5.7c0 1.7 1.4 3 3 3zM87.8 39.8H82c-1.7 0-3 1.3-3 3s1.3 3 3 3h5.7c1.7 0 3-1.3 3-3 .1-1.7-1.3-3-2.9-3zM75.2 29.3c.8 0 1.5-.3 2.1-.9l4-4c1.2-1.2 1.2-3.1 0-4.2-1.2-1.2-3.1-1.2-4.2 0l-4 4c-1.2 1.2-1.2 3.1 0 4.2.6.6 1.3.9 2.1.9zM77.3 57.2c-1.2-1.2-3.1-1.2-4.2 0-1.2 1.2-1.2 3.1 0 4.2l4 4c.6.6 1.4.9 2.1.9.8 0 1.5-.3 2.1-.9 1.2-1.2 1.2-3.1 0-4.2l-4-4zM40.1 28.4c.6.6 1.4.9 2.1.9.8 0 1.5-.3 2.1-.9 1.2-1.2 1.2-3.1 0-4.2l-4-4c-1.2-1.2-3.1-1.2-4.2 0-1.2 1.2-1.2 3.1 0 4.2l4 4z" class="sun"/><title>Partly cloudly day</title></svg>