<svg style="width:1em" xmlns="http://www.w3.org/2000/svg" viewBox="0 0 91 91"><path d="M51.5 48.3h-1.1c-.4-1.6-1-3.4-2-5.3-3.3-6.2-9.2-9.6-16.5-9.6-7.4 0-13.3 3.4-16.5 9.6-1 2-1.6 4-2 5.6C5.6 50 .2 56.2.2 64.3S6 78.8 14 80.1c.4.1.9.2 1.3.2h36.2c9.5 0 16.7-6.9 16.7-16 0-9.3-7-16-16.7-16zm0 24H16.9c-6 0-8.7-4.1-8.7-8 0-4.8 3.5-8 8.7-8 2.2 0 3.9-1.7 4-3.9 0-1.1.6-11.1 10.9-11.1 4.4 0 7.5 1.7 9.4 5.1 1.6 2.9 1.8 6 1.8 6 .1 2.1 1.9 3.8 4 3.8h4.5c5.2 0 8.7 3.2 8.7 8 0 3.9-2.7 8.1-8.7 8.1z" class="cloud"/><path d="M90.3 43.7c-.6-.9-1.7-1.4-2.7-1.3-6.6.5-13-2.8-16.3-8.6-3.3-5.7-3-12.9.7-18.4.6-.9.7-2.1.2-3-.5-1-1.5-1.6-2.6-1.7-4.6-.2-9.2.9-13.3 3.3-5.6 3.2-9.7 8.5-11.4 14.7-.4 1.6.5 3.3 2.1 3.7 1.6.4 3.2-.5 3.7-2.1 1.3-4.7 4.4-8.7 8.6-11.1 1.6-.9 3.3-1.6 5-2-2.3 6.4-1.7 13.6 1.7 19.6 3.5 6 9.5 10.1 16.1 11.3-1.2 1.3-2.7 2.4-4.2 3.4-1.4.8-3 1.5-4.5 1.9-1.6.4-2.6 2.1-2.1 3.7.4 1.3 1.6 2.2 2.9 2.2.3 0 .5 0 .8-.1 2.1-.6 4.1-1.4 6-2.5 4-2.3 7.3-5.7 9.5-9.9.4-1 .4-2.2-.2-3.1z" class="moon"/><title>Partly cloudly night</title></svg>