<svg xmlns="http://www.w3.org/2000/svg" viewBox="0 0 91 91"><path class="cloud" d="M51.5 48.3h-1.1c-0.4-1.6-1-3.4-2-5.3 -3.3-6.2-9.2-9.6-16.5-9.6 -7.4 0-13.3 3.4-16.5 9.6 -1 2-1.6 4-2 5.6C5.6 50 0.2 56.2 0.2 64.3 0.2 72.4 6 78.8 14 80.1c0.4 0.1 0.9 0.2 1.3 0.2h36.2c9.5 0 16.7-6.9 16.7-16C68.2 55 61.2 48.3 51.5 48.3zM51.5 72.3H16.9c-6 0-8.7-4.1-8.7-8 0-4.8 3.5-8 8.7-8 2.1 0 3.9-1.7 4-3.9 0 0 0.1-3.1 1.7-6 1.8-3.4 4.9-5.1 9.2-5.1 4.4 0 7.5 1.7 9.4 5.1 1.6 2.9 1.8 6 1.8 6 0.1 2.1 1.9 3.8 4 3.8h4.5c5.2 0 8.7 3.2 8.7 8C60.2 68.1 57.5 72.3 51.5 72.3z"/><path d="M74.3 42.8c0-8.6-7-15.6-15.6-15.6 -3.1 0-6.2 0.9-8.7 2.7 -1.4 0.9-1.7 2.8-0.8 4.2 0.9 1.4 2.8 1.7 4.2 0.8 1.6-1.1 3.5-1.6 5.4-1.6 5.3 0 9.6 4.3 9.6 9.6 0 1.6-0.4 3.1-1.1 4.4 -0.8 1.5-0.2 3.3 1.3 4 0.4 0.2 0.9 0.3 1.4 0.3 1.1 0 2.1-0.6 2.7-1.6C73.7 47.8 74.3 45.3 74.3 42.8z" class="sun"/><path d="M58.7 22.4c1.7 0 3-1.3 3-3v-5.7c0-1.7-1.3-3-3-3 -1.7 0-3 1.3-3 3v5.7C55.7 21.1 57.1 22.4 58.7 22.4z" class="sun"/><path d="M87.8 39.8H82c-1.7 0-3 1.3-3 3 0 1.7 1.3 3 3 3h5.7c1.7 0 3-1.3 3-3C90.8 41.1 89.4 39.8 87.8 39.8z" class="sun"/><path d="M75.2 29.3c0.8 0 1.5-0.3 2.1-0.9l4-4c1.2-1.2 1.2-3.1 0-4.2 -1.2-1.2-3.1-1.2-4.2 0l-4 4c-1.2 1.2-1.2 3.1 0 4.2C73.7 29 74.4 29.3 75.2 29.3z" class="sun"/><path d="M77.3 57.2c-1.2-1.2-3.1-1.2-4.2 0 -1.2 1.2-1.2 3.1 0 4.2l4 4c0.6 0.6 1.4 0.9 2.1 0.9 0.8 0 1.5-0.3 2.1-0.9 1.2-1.2 1.2-3.1 0-4.2L77.3 57.2z" class="sun"/><path d="M40.1 28.4c0.6 0.6 1.4 0.9 2.1 0.9 0.8 0 1.5-0.3 2.1-0.9 1.2-1.2 1.2-3.1 0-4.2l-4-4c-1.2-1.2-3.1-1.2-4.2 0 -1.2 1.2-1.2 3.1 0 4.2L40.1 28.4z" class="sun"/></svg>