<?xml version="1.0" encoding="utf-8"?>
<!-- Generator: Adobe Illustrator 18.0.0, SVG Export Plug-In . SVG Version: 6.00 Build 0)  -->
<!DOCTYPE svg PUBLIC "-//W3C//DTD SVG 1.1//EN" "http://www.w3.org/Graphics/SVG/1.1/DTD/svg11.dtd">
<svg version="1.1" id="Layer_1" xmlns="http://www.w3.org/2000/svg" xmlns:xlink="http://www.w3.org/1999/xlink" x="0px" y="0px"
	 viewBox="0 0 91 91" enable-background="new 0 0 91 91" xml:space="preserve">
<g>
	<path d="M51.5,48.3h-1.1c-0.4-1.6-1-3.4-2-5.3c-3.3-6.2-9.2-9.6-16.5-9.6c-7.4,0-13.3,3.4-16.5,9.6c-1,2-1.6,4-2,5.6
		C5.6,50,0.2,56.2,0.2,64.3C0.2,72.4,6,78.8,14,80.1c0.4,0.1,0.9,0.2,1.3,0.2h36.2c9.5,0,16.7-6.9,16.7-16
		C68.2,55,61.2,48.3,51.5,48.3z M51.5,72.3H16.9c-6,0-8.7-4.1-8.7-8c0-4.8,3.5-8,8.7-8c2.2,0,3.9-1.7,4-3.9
		c0-1.1,0.6-11.1,10.9-11.1c4.4,0,7.5,1.7,9.4,5.1c1.6,2.9,1.8,6,1.8,6c0.1,2.1,1.9,3.8,4,3.8h4.5c5.2,0,8.7,3.2,8.7,8
		C60.2,68.1,57.5,72.3,51.5,72.3z"/>
	<path d="M90.3,43.7c-0.6-0.9-1.7-1.4-2.7-1.3c-6.6,0.5-13-2.8-16.3-8.6c-3.3-5.7-3-12.9,0.7-18.4c0.6-0.9,0.7-2.1,0.2-3
		c-0.5-1-1.5-1.6-2.6-1.7c-4.6-0.2-9.2,0.9-13.3,3.3c-5.6,3.2-9.7,8.5-11.4,14.7c-0.4,1.6,0.5,3.3,2.1,3.7c1.6,0.4,3.2-0.5,3.7-2.1
		c1.3-4.7,4.4-8.7,8.6-11.1c1.6-0.9,3.3-1.6,5-2C62,23.6,62.6,30.8,66,36.8c3.5,6,9.5,10.1,16.1,11.3c-1.2,1.3-2.7,2.4-4.2,3.4
		c-1.4,0.8-3,1.5-4.5,1.9c-1.6,0.4-2.6,2.1-2.1,3.7c0.4,1.3,1.6,2.2,2.9,2.2c0.3,0,0.5,0,0.8-0.1c2.1-0.6,4.1-1.4,6-2.5
		c4-2.3,7.3-5.7,9.5-9.9C90.9,45.8,90.9,44.6,90.3,43.7z"/>
</g>
</svg>
