<?xml version="1.0" encoding="utf-8"?>
<!-- Generator: Adobe Illustrator 18.0.0, SVG Export Plug-In . SVG Version: 6.00 Build 0)  -->
<!DOCTYPE svg PUBLIC "-//W3C//DTD SVG 1.1//EN" "http://www.w3.org/Graphics/SVG/1.1/DTD/svg11.dtd">
<svg version="1.1" id="Layer_1" xmlns="http://www.w3.org/2000/svg" xmlns:xlink="http://www.w3.org/1999/xlink" x="0px" y="0px"
	 viewBox="0 0 91 91" enable-background="new 0 0 91 91" xml:space="preserve">
<g>
	<path d="M31.7,15.1c-2.1-0.6-4.3,0.7-4.9,2.8L16.5,56c-0.6,2.1,0.7,4.3,2.8,4.9c0.4,0.1,0.7,0.1,1.1,0.1c1.8,0,3.4-1.2,3.9-3
		L34.5,20C35.1,17.8,33.9,15.6,31.7,15.1z"/>
	<path d="M47.7,30.1c-2.1-0.6-4.3,0.7-4.9,2.8L32.4,71c-0.6,2.1,0.7,4.3,2.8,4.9c0.4,0.1,0.7,0.1,1.1,0.1c1.8,0,3.4-1.2,3.9-3
		L50.5,35C51,32.8,49.8,30.6,47.7,30.1z"/>
	<path d="M71.7,15.1c-2.1-0.6-4.3,0.7-4.9,2.8L56.5,56c-0.6,2.1,0.7,4.3,2.8,4.9c0.4,0.1,0.7,0.1,1.1,0.1c1.8,0,3.4-1.2,3.9-3
		L74.5,20C75.1,17.8,73.9,15.6,71.7,15.1z"/>
</g>
</svg>
