<svg style="width:1em" xmlns="http://www.w3.org/2000/svg" viewBox="0 0 91 91"><path d="M62.8 29h-1.1c-.4-1.6-1-3.4-2-5.3-3.3-6.2-9.2-9.6-16.5-9.6-7.4 0-13.3 3.4-16.5 9.6-1 2-1.6 4-2 5.6-7.8 1.4-13.2 7.6-13.2 15.7 0 5.8 2.9 10.9 7.9 13.8 1.9 1.1 4.4.4 5.5-1.5 1.1-1.9.4-4.4-1.5-5.5-2.4-1.4-3.8-3.9-3.8-6.8 0-4.8 3.5-8 8.7-8 2.2 0 3.9-1.7 4-3.9-.1-1.1.5-11.1 10.8-11.1 4.4 0 7.5 1.7 9.4 5.1 1.6 2.9 1.8 6 1.8 6 .1 2.1 1.9 3.8 4 3.8h4.5c5.2 0 8.7 3.2 8.7 8 0 3.9-2.7 8-8.7 8h-2.2c-2.2 0-4 1.8-4 4s1.8 4 4 4h2.2c9.5 0 16.7-6.9 16.7-16 0-9.2-7-15.9-16.7-15.9z" class="cloud"/><path d="M44.4 61.2c-.8 0-1.5.4-2 1-.9 1.2-4 5.5-4 8.5 0 3.9 3 6.3 6 6.3s6-2.4 6-6.3c0-3.1-3-7.3-4-8.5-.5-.7-1.2-1-2-1zM36.4 49.7c-.8-1-2.4-1-3.2 0-.7.9-3 4.2-3 6.5 0 3 2.3 4.8 4.6 4.8s4.6-1.8 4.6-4.8c0-2.4-2.3-5.6-3-6.5zM50.5 43.8c-.5 0-.9.2-1.2.6-.6.8-2.6 3.6-2.6 5.6 0 2.5 1.9 4 3.8 4s3.8-1.5 3.8-4c0-1.3-2.1-6.2-3.8-6.2z" class="rain"/><title>Rain</title></svg>