<?xml version="1.0" encoding="utf-8"?>
<!-- Generator: Adobe Illustrator 18.0.0, SVG Export Plug-In . SVG Version: 6.00 Build 0)  -->
<!DOCTYPE svg PUBLIC "-//W3C//DTD SVG 1.1//EN" "http://www.w3.org/Graphics/SVG/1.1/DTD/svg11.dtd">
<svg version="1.1" id="Layer_1" xmlns="http://www.w3.org/2000/svg" xmlns:xlink="http://www.w3.org/1999/xlink" x="0px" y="0px"
	 viewBox="0 0 91 91" enable-background="new 0 0 91 91" xml:space="preserve">
<g>
	<path d="M62.8,29h-1.1c-0.4-1.6-1-3.4-2-5.3c-3.3-6.2-9.2-9.6-16.5-9.6c-7.4,0-13.3,3.4-16.5,9.6c-1,2-1.6,4-2,5.6
		c-7.8,1.4-13.2,7.6-13.2,15.7c0,5.8,2.9,10.9,7.9,13.8c1.9,1.1,4.4,0.4,5.5-1.5c1.1-1.9,0.4-4.4-1.5-5.5c-2.4-1.4-3.8-3.9-3.8-6.8
		c0-4.8,3.5-8,8.7-8c2.2,0,3.9-1.7,4-3.9C32.2,32,32.8,22,43.1,22c4.4,0,7.5,1.7,9.4,5.1c1.6,2.9,1.8,6,1.8,6c0.1,2.1,1.9,3.8,4,3.8
		h4.5c5.2,0,8.7,3.2,8.7,8c0,3.9-2.7,8-8.7,8h-2.2c-2.2,0-4,1.8-4,4s1.8,4,4,4h2.2c9.5,0,16.7-6.9,16.7-16
		C79.5,35.7,72.5,29,62.8,29z"/>
	<path d="M44.4,61.2c-0.8,0-1.5,0.4-2,1c-0.9,1.2-4,5.5-4,8.5c0,3.9,3,6.3,6,6.3s6-2.4,6-6.3c0-3.1-3-7.3-4-8.5
		C45.9,61.5,45.2,61.2,44.4,61.2z"/>
	<path d="M36.4,49.7c-0.8-1-2.4-1-3.2,0c-0.7,0.9-3,4.2-3,6.5c0,3,2.3,4.8,4.6,4.8s4.6-1.8,4.6-4.8C39.4,53.8,37.1,50.6,36.4,49.7z"
		/>
	<path d="M50.5,43.8c-0.5,0-0.9,0.2-1.2,0.6c-0.6,0.8-2.6,3.6-2.6,5.6c0,2.5,1.9,4,3.8,4h0c1.9,0,3.8-1.5,3.8-4
		C54.3,48.7,52.2,43.8,50.5,43.8z"/>
</g>
</svg>
