<svg style="width:2em" xmlns="http://www.w3.org/2000/svg" viewBox="0 0 91 91"><path d="M62.8 28.4h-1.1c-0.4-1.6-1-3.4-2-5.3 -3.3-6.2-9.2-9.6-16.5-9.6 -7.4 0-13.3 3.4-16.5 9.6 -1 2-1.6 4-2 5.6 -7.8 1.4-13.2 7.6-13.2 15.7 0 4.4 1.7 8.4 4.7 11.4 1.6 1.5 4.1 1.5 5.7-0.1 1.5-1.6 1.5-4.1-0.1-5.7 -1.5-1.5-2.3-3.5-2.3-5.7 0-4.8 3.5-8 8.7-8 2.2 0 3.9-1.7 4-3.9 0-1.1 0.6-11.1 10.9-11.1 4.4 0 7.5 1.7 9.4 5.1 1.6 2.9 1.8 6 1.8 6 0.1 2.1 1.9 3.8 4 3.8h4.5c5.2 0 8.7 3.2 8.7 8 0 3.5-2 6.3-5.3 7.5 -2.1 0.7-3.2 3-2.5 5.1 0.6 1.7 2.1 2.7 3.8 2.7 0.4 0 0.9-0.1 1.3-0.2 6.5-2.2 10.6-8.1 10.6-15C79.5 35.1 72.5 28.4 62.8 28.4z" class="cloud"/><path d="M43.6 50.1c1.7 0 3-1.3 3-3v-2.8c0-1.7-1.3-3-3-3 -1.7 0-3 1.3-3 3v2.8C40.6 48.8 41.9 50.1 43.6 50.1z" class="snow"/><path d="M43.6 55.4c-1.1 0-2.1 0.4-2.8 1.2 -0.7 0.7-1.2 1.8-1.2 2.8 0 1 0.4 2.1 1.2 2.8 0.7 0.8 1.8 1.2 2.8 1.2 1.1 0 2.1-0.4 2.8-1.2 0.8-0.7 1.2-1.8 1.2-2.8 0-1.1-0.4-2.1-1.2-2.8C45.7 55.8 44.6 55.4 43.6 55.4z" class="snow"/><path d="M43.6 68.7c-1.7 0-3 1.3-3 3v2.8c0 1.7 1.3 3 3 3 1.7 0 3-1.3 3-3v-2.8C46.6 70 45.3 68.7 43.6 68.7z" class="snow"/><path d="M55.2 49.2l-2.5 1.4c-1.4 0.8-1.9 2.7-1.1 4.1 0.6 1 1.6 1.5 2.6 1.5 0.5 0 1-0.1 1.5-0.4l2.5-1.4c1.4-0.8 1.9-2.7 1.1-4.1C58.5 48.9 56.6 48.4 55.2 49.2z" class="snow"/><path d="M31.5 63L29 64.4c-1.4 0.8-1.9 2.7-1.1 4.1 0.6 1 1.6 1.5 2.6 1.5 0.5 0 1-0.1 1.5-0.4l2.5-1.4c1.4-0.8 1.9-2.7 1.1-4.1C34.7 62.6 32.9 62.1 31.5 63z" class="snow"/><path d="M58.2 64.4L55.7 63c-1.4-0.8-3.3-0.3-4.1 1.1 -0.8 1.4-0.3 3.3 1.1 4.1l2.5 1.4c0.5 0.3 1 0.4 1.5 0.4 1 0 2-0.5 2.6-1.5C60.1 67 59.6 65.2 58.2 64.4z" class="snow"/><path d="M29 54.4l2.5 1.4c0.5 0.3 1 0.4 1.5 0.4 1 0 2-0.5 2.6-1.5 0.8-1.4 0.3-3.3-1.1-4.1L32 49.2c-1.4-0.8-3.3-0.3-4.1 1.1C27.1 51.8 27.6 53.6 29 54.4z" class="snow"/><title>Snow</title></svg>