<?xml version="1.0" encoding="utf-8"?>
<!-- Generator: Adobe Illustrator 18.0.0, SVG Export Plug-In . SVG Version: 6.00 Build 0)  -->
<!DOCTYPE svg PUBLIC "-//W3C//DTD SVG 1.1//EN" "http://www.w3.org/Graphics/SVG/1.1/DTD/svg11.dtd">
<svg version="1.1" id="Layer_1" xmlns="http://www.w3.org/2000/svg" xmlns:xlink="http://www.w3.org/1999/xlink" x="0px" y="0px"
	 viewBox="0 0 91 91" enable-background="new 0 0 91 91" xml:space="preserve">
<g>
	<path d="M45.5,31.9c2.2,0,4-1.8,4-4v-4c0-2.2-1.8-4-4-4s-4,1.8-4,4v4C41.5,30.2,43.3,31.9,45.5,31.9z"/>
	<path d="M45.5,40.5c-1.3,0-2.6,0.5-3.5,1.5c-0.9,0.9-1.5,2.2-1.5,3.5c0,1.3,0.5,2.6,1.5,3.5c0.9,0.9,2.2,1.5,3.5,1.5
		c1.3,0,2.6-0.5,3.5-1.5c0.9-0.9,1.5-2.2,1.5-3.5c0-1.3-0.5-2.6-1.5-3.5C48.1,41,46.8,40.5,45.5,40.5z"/>
	<path d="M45.5,59.1c-2.2,0-4,1.8-4,4v4c0,2.2,1.8,4,4,4s4-1.8,4-4v-4C49.5,60.8,47.7,59.1,45.5,59.1z"/>
	<path d="M60.7,40.7c0.7,0,1.4-0.2,2-0.5l3.5-2c1.9-1.1,2.6-3.6,1.5-5.5c-1.1-1.9-3.6-2.6-5.5-1.5l-3.5,2c-1.9,1.1-2.6,3.6-1.5,5.5
		C58,40,59.3,40.7,60.7,40.7z"/>
	<path d="M28.3,50.8l-3.5,2c-1.9,1.1-2.6,3.6-1.5,5.5c0.7,1.3,2.1,2,3.5,2c0.7,0,1.4-0.2,2-0.5l3.5-2c1.9-1.1,2.6-3.6,1.5-5.5
		C32.7,50.4,30.2,49.7,28.3,50.8z"/>
	<path d="M66.2,52.8l-3.5-2c-1.9-1.1-4.4-0.4-5.5,1.5c-1.1,1.9-0.4,4.4,1.5,5.5l3.5,2c0.6,0.4,1.3,0.5,2,0.5c1.4,0,2.7-0.7,3.5-2
		C68.8,56.4,68.1,53.9,66.2,52.8z"/>
	<path d="M32.3,33.3l-3.5-2c-1.9-1.1-4.4-0.5-5.5,1.5s-0.5,4.4,1.5,5.5l3.5,2c0.6,0.4,1.3,0.5,2,0.5c1.4,0,2.7-0.7,3.5-2
		C34.9,36.8,34.2,34.4,32.3,33.3z"/>
</g>
</svg>
