<svg style="width:1em" xmlns="http://www.w3.org/2000/svg" viewBox="0 0 91 91"><path d="M62.8 28.4h-1.1c-.4-1.6-1-3.4-2-5.3-3.3-6.2-9.2-9.6-16.5-9.6-7.4 0-13.3 3.4-16.5 9.6-1 2-1.6 4-2 5.6-7.8 1.4-13.2 7.6-13.2 15.7 0 4.4 1.7 8.4 4.7 11.4 1.6 1.5 4.1 1.5 5.7-.1 1.5-1.6 1.5-4.1-.1-5.7-1.5-1.5-2.3-3.5-2.3-5.7 0-4.8 3.5-8 8.7-8 2.2 0 3.9-1.7 4-3.9 0-1.1.6-11.1 10.9-11.1 4.4 0 7.5 1.7 9.4 5.1 1.6 2.9 1.8 6 1.8 6 .1 2.1 1.9 3.8 4 3.8h4.5c5.2 0 8.7 3.2 8.7 8 0 3.5-2 6.3-5.3 7.5-2.1.7-3.2 3-2.5 5.1.6 1.7 2.1 2.7 3.8 2.7.4 0 .9-.1 1.3-.2 6.5-2.2 10.6-8.1 10.6-15 .1-9.2-6.9-15.9-16.6-15.9z" class="cloud"/><path d="M43.6 50.1c1.7 0 3-1.3 3-3v-2.8c0-1.7-1.3-3-3-3s-3 1.3-3 3v2.8c0 1.7 1.3 3 3 3zM43.6 55.4c-1.1 0-2.1.4-2.8 1.2-.7.7-1.2 1.8-1.2 2.8 0 1 .4 2.1 1.2 2.8.7.8 1.8 1.2 2.8 1.2 1.1 0 2.1-.4 2.8-1.2.8-.7 1.2-1.8 1.2-2.8 0-1.1-.4-2.1-1.2-2.8-.7-.8-1.8-1.2-2.8-1.2zM43.6 68.7c-1.7 0-3 1.3-3 3v2.8c0 1.7 1.3 3 3 3s3-1.3 3-3v-2.8c0-1.7-1.3-3-3-3zM55.2 49.2l-2.5 1.4c-1.4.8-1.9 2.7-1.1 4.1.6 1 1.6 1.5 2.6 1.5.5 0 1-.1 1.5-.4l2.5-1.4c1.4-.8 1.9-2.7 1.1-4.1-.8-1.4-2.7-1.9-4.1-1.1zM31.5 63L29 64.4c-1.4.8-1.9 2.7-1.1 4.1.6 1 1.6 1.5 2.6 1.5.5 0 1-.1 1.5-.4l2.5-1.4c1.4-.8 1.9-2.7 1.1-4.1-.9-1.5-2.7-2-4.1-1.1zM58.2 64.4L55.7 63c-1.4-.8-3.3-.3-4.1 1.1-.8 1.4-.3 3.3 1.1 4.1l2.5 1.4c.5.3 1 .4 1.5.4 1 0 2-.5 2.6-1.5.8-1.5.3-3.3-1.1-4.1zM29 54.4l2.5 1.4c.5.3 1 .4 1.5.4 1 0 2-.5 2.6-1.5.8-1.4.3-3.3-1.1-4.1L32 49.2c-1.4-.8-3.3-.3-4.1 1.1-.8 1.5-.3 3.3 1.1 4.1z" class="snow"/><title>Snow</title></svg>