<?xml version="1.0" encoding="utf-8"?>
<!-- Generator: Adobe Illustrator 18.0.0, SVG Export Plug-In . SVG Version: 6.00 Build 0)  -->
<!DOCTYPE svg PUBLIC "-//W3C//DTD SVG 1.1//EN" "http://www.w3.org/Graphics/SVG/1.1/DTD/svg11.dtd">
<svg version="1.1" id="Layer_1" xmlns="http://www.w3.org/2000/svg" xmlns:xlink="http://www.w3.org/1999/xlink" x="0px" y="0px"
	 viewBox="0 0 91 91" enable-background="new 0 0 91 91" xml:space="preserve">
<g>
	<path d="M45.5,26.3c2.2,0,4-1.8,4-4v-8.1c0-2.2-1.8-4-4-4s-4,1.8-4,4v8.1C41.5,24.5,43.3,26.3,45.5,26.3z"/>
	<path d="M74.8,55.6c0,2.2,1.8,4,4,4h8.1c2.2,0,4-1.8,4-4s-1.8-4-4-4h-8.1C76.5,51.6,74.8,53.4,74.8,55.6z"/>
	<path d="M4.1,59.6h8.1c2.2,0,4-1.8,4-4s-1.8-4-4-4H4.1c-2.2,0-4,1.8-4,4S1.9,59.6,4.1,59.6z"/>
	<path d="M69,36.1c1,0,2-0.4,2.8-1.2l5.8-5.8c1.6-1.6,1.6-4.1,0-5.7c-1.6-1.6-4.1-1.6-5.7,0l-5.8,5.8c-1.6,1.6-1.6,4.1,0,5.7
		C67,35.7,68,36.1,69,36.1z"/>
	<path d="M19.2,34.9c0.8,0.8,1.8,1.2,2.8,1.2c1,0,2-0.4,2.8-1.2c1.6-1.6,1.6-4.1,0-5.7l-5.8-5.8c-1.6-1.6-4.1-1.6-5.7,0
		c-1.6,1.6-1.6,4.1,0,5.7L19.2,34.9z"/>
	<path d="M25.5,64.7c0.9,2,3.3,2.9,5.3,2c2-0.9,2.9-3.3,2-5.3c-0.8-1.8-1.3-3.8-1.3-5.8c0-7.7,6.3-14,14-14s14,6.3,14,14
		c0,2-0.4,4-1.3,5.8c-0.9,2,0,4.4,2,5.3c0.5,0.2,1.1,0.4,1.7,0.4c1.5,0,3-0.9,3.6-2.3c1.3-2.9,2-6,2-9.1c0-12.1-9.9-22-22-22
		c-12.1,0-22,9.9-22,22C23.5,58.8,24.2,61.8,25.5,64.7z"/>
	<path d="M86.9,72.8H4.1c-2.2,0-4,1.8-4,4s1.8,4,4,4h82.8c2.2,0,4-1.8,4-4S89.1,72.8,86.9,72.8z"/>
	<path d="M49.5,51.5l-4,4l-4-4c-1.2-1.2-3.1-1.2-4.2,0c-1.2,1.2-1.2,3.1,0,4.2l6.1,6.1c0.6,0.6,1.4,0.9,2.1,0.9s1.5-0.3,2.1-0.9
		l6.1-6.1c1.2-1.2,1.2-3.1,0-4.2C52.6,50.4,50.7,50.4,49.5,51.5z"/>
</g>
</svg>
