<svg style="width:2em" xmlns="http://www.w3.org/2000/svg" viewBox="0 0 91 91"><path d="M62.8 29.5h-1.1c-0.4-1.6-1-3.4-2-5.3 -3.3-6.2-9.2-9.6-16.5-9.6 -7.4 0-13.3 3.4-16.5 9.6 -1 2-1.6 4-2 5.6 -7.8 1.4-13.2 7.6-13.2 15.7 0 7.5 4.9 13.7 12.3 15.5 2.1 0.5 4.3-0.8 4.8-3 0.5-2.1-0.8-4.3-3-4.8 -3.7-0.9-6.1-3.9-6.1-7.7 0-4.8 3.5-8 8.7-8 2.2 0 3.9-1.7 4-3.9 0-1.1 0.6-11.1 10.9-11.1 4.4 0 7.5 1.7 9.4 5.1 1.6 2.9 1.8 6 1.8 6 0.1 2.1 1.9 3.8 4 3.8h4.5c5.2 0 8.7 3.2 8.7 8 0 3.9-2.7 8-8.7 8 -2.2 0-4 1.8-4 4s1.8 4 4 4c9.5 0 16.7-6.9 16.7-16C79.5 36.3 72.5 29.5 62.8 29.5z" class="cloud"/><path d="M52.2 54.6h-4.4l5.5-7.7c0.3-0.5 0.4-1.1 0.1-1.6 -0.3-0.5-0.8-0.8-1.3-0.8H41.1c-0.6 0-1.2 0.4-1.4 1l-6.1 15.8c-0.2 0.5-0.1 1 0.2 1.4 0.3 0.4 0.7 0.6 1.2 0.6h0l3.2 0 -4.2 11c-0.3 0.7 0 1.4 0.6 1.8 0.2 0.1 0.5 0.2 0.8 0.2 0.4 0 0.8-0.2 1.1-0.5l16.6-18.8c0.4-0.4 0.5-1.1 0.2-1.6S52.7 54.6 52.2 54.6z" class="bolt"/><title>Thunderstorm</title></svg>