<?xml version="1.0" encoding="utf-8"?>
<!-- Generator: Adobe Illustrator 18.0.0, SVG Export Plug-In . SVG Version: 6.00 Build 0)  -->
<!DOCTYPE svg PUBLIC "-//W3C//DTD SVG 1.1//EN" "http://www.w3.org/Graphics/SVG/1.1/DTD/svg11.dtd">
<svg version="1.1" id="Layer_1" xmlns="http://www.w3.org/2000/svg" xmlns:xlink="http://www.w3.org/1999/xlink" x="0px" y="0px"
	 viewBox="0 0 91 91" enable-background="new 0 0 91 91" xml:space="preserve">
<g>
	<path d="M62.8,29.5h-1.1c-0.4-1.6-1-3.4-2-5.3c-3.3-6.2-9.2-9.6-16.5-9.6c-7.4,0-13.3,3.4-16.5,9.6c-1,2-1.6,4-2,5.6
		c-7.8,1.4-13.2,7.6-13.2,15.7c0,7.5,4.9,13.7,12.3,15.5c2.1,0.5,4.3-0.8,4.8-3c0.5-2.1-0.8-4.3-3-4.8c-3.7-0.9-6.1-3.9-6.1-7.7
		c0-4.8,3.5-8,8.7-8c2.2,0,3.9-1.7,4-3.9c0-1.1,0.6-11.1,10.9-11.1c4.4,0,7.5,1.7,9.4,5.1c1.6,2.9,1.8,6,1.8,6
		c0.1,2.1,1.9,3.8,4,3.8h4.5c5.2,0,8.7,3.2,8.7,8c0,3.9-2.7,8-8.7,8c-2.2,0-4,1.8-4,4s1.8,4,4,4c9.5,0,16.7-6.9,16.7-16
		C79.5,36.3,72.5,29.5,62.8,29.5z"/>
	<path d="M52.2,54.6h-4.4l5.5-7.7c0.3-0.5,0.4-1.1,0.1-1.6c-0.3-0.5-0.8-0.8-1.3-0.8H41.1c-0.6,0-1.2,0.4-1.4,1l-6.1,15.8
		c-0.2,0.5-0.1,1,0.2,1.4c0.3,0.4,0.7,0.6,1.2,0.6h0l3.2,0l-4.2,11c-0.3,0.7,0,1.4,0.6,1.8c0.2,0.1,0.5,0.2,0.8,0.2
		c0.4,0,0.8-0.2,1.1-0.5l16.6-18.8c0.4-0.4,0.5-1.1,0.2-1.6S52.7,54.6,52.2,54.6z"/>
</g>
</svg>
