<svg style="width:1em" xmlns="http://www.w3.org/2000/svg" viewBox="0 0 91 91"><path d="M62.8 29.5h-1.1c-.4-1.6-1-3.4-2-5.3-3.3-6.2-9.2-9.6-16.5-9.6-7.4 0-13.3 3.4-16.5 9.6-1 2-1.6 4-2 5.6-7.8 1.4-13.2 7.6-13.2 15.7 0 7.5 4.9 13.7 12.3 15.5 2.1.5 4.3-.8 4.8-3 .5-2.1-.8-4.3-3-4.8-3.7-.9-6.1-3.9-6.1-7.7 0-4.8 3.5-8 8.7-8 2.2 0 3.9-1.7 4-3.9 0-1.1.6-11.1 10.9-11.1 4.4 0 7.5 1.7 9.4 5.1 1.6 2.9 1.8 6 1.8 6 .1 2.1 1.9 3.8 4 3.8h4.5c5.2 0 8.7 3.2 8.7 8 0 3.9-2.7 8-8.7 8-2.2 0-4 1.8-4 4s1.8 4 4 4c9.5 0 16.7-6.9 16.7-16s-7-15.9-16.7-15.9z" class="cloud"/><path d="M52.2 54.6h-4.4l5.5-7.7c.3-.5.4-1.1.1-1.6-.3-.5-.8-.8-1.3-.8h-11c-.6 0-1.2.4-1.4 1l-6.1 15.8c-.2.5-.1 1 .2 1.4.3.4.7.6 1.2.6h3.2l-4.2 11c-.3.7 0 1.4.6 1.8.2.1.5.2.8.2.4 0 .8-.2 1.1-.5L53.1 57c.4-.4.5-1.1.2-1.6s-.6-.8-1.1-.8z" class="bolt"/><title>Thunderstorm</title></svg>