<svg style="width:1em" class="tornado" xmlns="http://www.w3.org/2000/svg" viewBox="0 0 91 91"><path d="M17.8 14.1H64c2.2 0 4-1.8 4-4s-1.8-4-4-4H17.8c-2.2 0-4 1.8-4 4s1.8 4 4 4zM64.3 27.8c0-2.2-1.8-4-4-4h-46c-2.2 0-4 1.8-4 4s1.8 4 4 4h46c2.2 0 4-1.8 4-4zM72.9 41.4H32.1c-2.2 0-4 1.8-4 4s1.8 4 4 4h40.8c2.2 0 4-1.8 4-4s-1.8-4-4-4zM76.1 5.6H76c-2.5 0-4.5 2-4.5 4.5s2 4.5 4.5 4.5h.2c2.5 0 4.5-2 4.5-4.5-.1-2.5-2.1-4.5-4.6-4.5zM62.8 59.4H39.2c-2.2 0-4 1.8-4 4s1.8 4 4 4h23.6c2.2 0 4-1.8 4-4s-1.8-4-4-4zM46.5 77.4H35.3c-2.2 0-4 1.8-4 4s1.8 4 4 4h11.2c2.2 0 4-1.8 4-4s-1.8-4-4-4z"/><title>Tornado</title></svg>