<?xml version="1.0" encoding="utf-8"?>
<!-- Generator: Adobe Illustrator 18.0.0, SVG Export Plug-In . SVG Version: 6.00 Build 0)  -->
<!DOCTYPE svg PUBLIC "-//W3C//DTD SVG 1.1//EN" "http://www.w3.org/Graphics/SVG/1.1/DTD/svg11.dtd">
<svg version="1.1" id="Layer_1" xmlns="http://www.w3.org/2000/svg" xmlns:xlink="http://www.w3.org/1999/xlink" x="0px" y="0px"
	 viewBox="0 0 91 91" enable-background="new 0 0 91 91" xml:space="preserve">
<g>
	<path d="M52.8,90.8c-6,0-10.8-4.8-10.8-10.8V60.7c0-1.9,1.6-3.5,3.5-3.5s3.5,1.6,3.5,3.5v19.2c0,2.1,1.7,3.8,3.8,3.8
		c2.1,0,3.8-1.7,3.8-3.8c0-1.9,1.6-3.5,3.5-3.5c1.9,0,3.5,1.6,3.5,3.5C63.6,85.9,58.8,90.8,52.8,90.8z"/>
	<g>
		<path d="M35,11.8c-0.3,0-0.6,0-0.9-0.1c-1.9-0.5-3-2.4-2.5-4.3l1.2-4.6c0.5-1.9,2.4-3,4.3-2.5c1.9,0.5,3,2.4,2.5,4.3l-1.2,4.6
			C38,10.8,36.5,11.8,35,11.8z"/>
		<path d="M59.6,11.8c-0.3,0-0.6,0-0.9-0.1c-1.9-0.5-3-2.4-2.5-4.3l1.2-4.6c0.5-1.9,2.4-3,4.3-2.5c1.9,0.5,3,2.4,2.5,4.3L63,9.2
			C62.6,10.8,61.1,11.8,59.6,11.8z"/>
		<path d="M46.1,19.6c-0.3,0-0.6,0-0.9-0.1c-1.9-0.5-3-2.4-2.5-4.3l1.2-4.6c0.5-1.9,2.4-3,4.3-2.5c1.9,0.5,3,2.4,2.5,4.3L49.5,17
			C49.1,18.6,47.7,19.6,46.1,19.6z"/>
		<path d="M69.8,25c-0.3,0-0.6,0-0.9-0.1c-1.9-0.5-3-2.4-2.5-4.3l1.2-4.6c0.5-1.9,2.4-3,4.3-2.5c1.9,0.5,3,2.4,2.5,4.3l-1.2,4.6
			C72.7,24,71.3,25,69.8,25z"/>
		<path d="M22.2,25c-0.3,0-0.6,0-0.9-0.1c-1.9-0.5-3-2.4-2.5-4.3L20,16c0.5-1.9,2.4-3,4.3-2.5c1.9,0.5,3,2.4,2.5,4.3l-1.2,4.6
			C25.2,24,23.7,25,22.2,25z"/>
	</g>
	<path d="M73.7,57.9L73.7,57.9c-1.5,0-2.8-0.9-3.3-2.3c-0.1-0.2-1.4-3-5.4-3c-3.5,0-4.9,2-5.3,2.8c-0.4,1.4-1.8,2.5-3.4,2.5
		c0,0,0,0,0,0h0c-1.1,0-2.2-0.6-2.9-1.5c-0.1-0.2-0.2-0.4-0.3-0.6c-0.4-0.6-2.4-3.2-7.6-3.2c-5,0-7,2.4-7.5,3.1
		c-0.5,1.3-1.8,2.2-3.2,2.2c0,0,0,0,0,0h0c-1.2,0-2.3-0.6-3-1.6c-0.2-0.2-0.3-0.5-0.4-0.8c-0.3-0.7-1.7-2.9-5.4-2.9
		c-4.1,0-5.3,2.7-5.4,3c-0.5,1.4-1.8,2.2-3.3,2.2c-1.9,0-3.5-1.6-3.5-3.5c0-8.7,4.3-16.9,11.8-22.3c5.6-4.1,12.7-6.4,19.9-6.4
		s14.3,2.3,19.9,6.4c7.5,5.5,11.8,13.6,11.8,22.3C77.2,56.3,75.6,57.9,73.7,57.9z M45.5,45.6c5,0,8.3,1.6,10.5,3.3
		c1.9-1.7,4.7-3.3,9-3.3c1.2,0,2.3,0.1,3.3,0.4c-1.5-3.2-3.9-6-7-8.3c-4.4-3.2-10-5-15.8-5c-5.8,0-11.4,1.8-15.8,5
		c-3.1,2.3-5.5,5.1-7,8.3c1-0.2,2.1-0.4,3.3-0.4c4.2,0,7.1,1.6,9,3.3C37.2,47.2,40.5,45.6,45.5,45.6z"/>
</g>
</svg>
