<?xml version="1.0" encoding="utf-8"?>
<!-- Generator: Adobe Illustrator 18.0.0, SVG Export Plug-In . SVG Version: 6.00 Build 0)  -->
<!DOCTYPE svg PUBLIC "-//W3C//DTD SVG 1.1//EN" "http://www.w3.org/Graphics/SVG/1.1/DTD/svg11.dtd">
<svg version="1.1" id="Layer_1" xmlns="http://www.w3.org/2000/svg" xmlns:xlink="http://www.w3.org/1999/xlink" x="0px" y="0px"
	 viewBox="0 0 91 91" enable-background="new 0 0 91 91" xml:space="preserve">
<g>
	<path d="M73.2,18.2c-3.4,0-6.7,1.4-9,3.9c-1.5,1.6-1.4,4.1,0.2,5.7c1.6,1.5,4.1,1.4,5.7-0.2c0.8-0.9,1.9-1.4,3.1-1.4
		c2.4,0,4.3,1.9,4.3,4.3c0,2.4-1.9,4.3-4.3,4.3H9.5c-2.2,0-4,1.8-4,4s1.8,4,4,4h63.7c6.8,0,12.3-5.5,12.3-12.3
		C85.5,23.7,80,18.2,73.2,18.2z"/>
	<path d="M55,48.2H9.5c-2.2,0-4,1.8-4,4s1.8,4,4,4H55c2.4,0,4.3,1.9,4.3,4.3c0,2.4-1.9,4.3-4.3,4.3c-1.2,0-2.3-0.5-3.1-1.4
		c-1.5-1.6-4-1.7-5.7-0.2c-1.6,1.5-1.7,4-0.2,5.7c2.3,2.5,5.6,3.9,9,3.9c6.8,0,12.3-5.5,12.3-12.3C67.2,53.7,61.7,48.2,55,48.2z"/>
</g>
</svg>
