<svg version="1" xmlns="http://www.w3.org/2000/svg" width="933.333" height="933.333" viewBox="0 0 700.000000 700.000000"><path d="M340.5 2.4c-8.7 3.4-15.1 9.2-18.7 17.1-2.3 4.9-2.3 5.8-2.5 41.3-.2 33.3-.1 36.8 1.7 42.5 2.6 8.4 8.1 14.6 16.2 18.2 15.8 7.1 33.2.6 40.7-15.4l2.6-5.6V63c0-34.5-.2-37.9-1.9-42.4-3.2-8.3-10.3-14.9-19.6-18.3-4.2-1.5-14.4-1.5-18.5.1zM117 94c-19 5.5-28.8 25.7-20.8 43 2 4.4 6.8 9.8 24.4 27.2 35.5 35.2 35.6 35.3 48.4 35.2 12.3 0 21.9-5.9 27.5-17 2.6-5 3-7 3-13.4-.1-7.8-2.1-14.1-6.1-18.9-1.1-1.3-12.9-13.3-26.3-26.7-27.2-27.2-30.3-29.5-41.4-29.9-3.4-.1-7.3.1-8.7.5zM567.7 94c-2.1.6-5.2 1.7-7 2.6-4.3 2.2-53 50.7-56.6 56.4-13.1 20.6 3.2 47.7 28 46.6 11.1-.5 14.1-2.7 42.4-31 24.4-24.4 27.4-28 30.2-35.6 4.6-12.7-2.8-29.7-15.8-36.3-6.1-3-15.2-4.2-21.2-2.7zM331.7 181.6c-.1.2-3.6.8-7.7 1.4-21.9 3.3-45.5 12.2-64.6 24.6-4.9 3.1-9.1 6-9.4 6.3-.3.4-2.1 1.8-4 3.1-7.2 4.9-22.4 20.2-30.2 30.5-23 30.2-34.7 65-34.6 103.1.1 26.7 5.9 51.8 17.2 74.2 29.2 57.9 87.2 94 151.1 94 26.7 0 48.4-4.8 72.4-16 7.2-3.3 22.6-12.1 24.1-13.8.3-.3 3.9-3.1 8-6.2s10.2-8.3 13.6-11.6c8-7.7 24.4-27.8 24.4-29.8 0-.4 1-2.1 2.3-3.8 5.9-7.9 15.5-30.2 19.2-44.6 8.4-32.4 6.8-69.7-4.2-99.5-15.5-41.9-45-75.2-83.8-94.4-26.3-13-47.1-17.9-76.7-17.8-9.2 0-16.9.1-17.1.3zm36.9 62.4c48.3 9.7 82.9 46.8 88.3 94.5 1.3 12.2.3 27-2.6 37.5-2.9 10.7-9.7 27-11.5 27.8-.5.2-.8.8-.8 1.3 0 1.7-10.5 15.3-15.8 20.7-20.3 20.2-45.7 30.9-75.1 31.6-6.9.2-10.5-.1-21.9-1.9-9.8-1.4-25.8-7.8-35.9-14.2-42.5-26.9-61.2-79.1-45.1-125.7 13.5-39.1 47.1-66.7 87.8-72.2 2.5-.3 4.6-.7 4.7-.8.8-.7 23 .4 27.9 1.4zM23.5 320.5C10.7 324.3 2 335 1.2 347.8c-.7 10.1 2.7 18.3 10.5 25.3 8 7.2 9.1 7.4 51.8 7.4h38l5.9-3c7.3-3.7 12.4-9.6 15.2-17.5 5.7-16.2-3.1-33.8-19.4-38.9-6.3-1.9-8.9-2-41.2-2-23.8.1-35.7.5-38.5 1.4zM597.5 320.7c-24.9 7.6-29.7 40.4-8.1 54.7 8 5.3 12.1 5.7 51.1 5.3 34.2-.3 35.1-.3 40.3-2.6 7.1-3.2 14.5-11.3 16.7-18.5 4.8-15.1-2.5-31.1-17.3-37.9-4.5-2.1-6.1-2.2-41.2-2.4-30.4-.1-37.3.1-41.5 1.4zM159.5 501.7c-2.1.8-5.5 2.6-7.5 4-4.6 3.5-48.8 47.8-52.2 52.3-11.1 15-5.2 37.3 12 45.7 4.7 2.3 7 2.8 13.2 2.8 11.6 0 14-1.8 43.5-31.3 29.4-29.3 31-31.6 31-44.2-.1-12.3-6.4-22.3-17.4-27.7-6.4-3.2-16.2-3.9-22.6-1.6zM522.1 501.1c-9.5 2.9-19.2 12.5-21.6 21.4-2 7.7-.8 17.5 3.1 24.3 1.1 1.7 13.8 15.1 28.4 29.6 23.5 23.4 27.1 26.6 32 28.4 19.4 7.2 41-7.8 41-28.5 0-6.8-2.4-14.4-6-19-1.2-1.5-12.9-13.7-26.1-27-17.2-17.5-25.2-24.9-28.9-26.8-5.7-2.9-16.4-4.1-21.9-2.4zM343.7 576.2c-10.8 2.3-19.9 10.8-23 21.4-1.2 4.2-1.5 11.8-1.4 41.5l.2 36.4 2.8 5.7c5.9 12 17.3 18.6 30.1 17.5 11.4-1 21-7.7 25.8-18.2 2.3-4.9 2.3-5.8 2.5-41.5.3-44.4 0-45.9-10.3-55.5-6.8-6.4-17.4-9.3-26.7-7.3z"/></svg>