<?xml version="1.0" standalone="no"?>
<!DOCTYPE svg PUBLIC "-//W3C//DTD SVG 20010904//EN"
 "http://www.w3.org/TR/2001/REC-SVG-20010904/DTD/svg10.dtd">
<svg version="1.0" xmlns="http://www.w3.org/2000/svg"
 width="700.000000pt" height="700.000000pt" viewBox="0 0 700.000000 700.000000"
 preserveAspectRatio="xMidYMid meet">
<metadata>
Created by potrace 1.11, written by Peter Selinger 2001-2013
</metadata>
<g transform="translate(0.000000,700.000000) scale(0.100000,-0.100000)"
fill="#000000" stroke="none">
<path d="M3405 6976 c-87 -34 -151 -92 -187 -171 -23 -49 -23 -58 -25 -413 -2
-333 -1 -368 17 -425 26 -84 81 -146 162 -182 158 -71 332 -6 407 154 l26 56
0 375 c0 345 -2 379 -19 424 -32 83 -103 149 -196 183 -42 15 -144 15 -185 -1z"/>
<path d="M1170 6060 c-190 -55 -288 -257 -208 -430 20 -44 68 -98 244 -272
355 -352 356 -353 484 -352 123 0 219 59 275 170 26 50 30 70 30 134 -1 78
-21 141 -61 189 -11 13 -129 133 -263 267 -272 272 -303 295 -414 299 -34 1
-73 -1 -87 -5z"/>
<path d="M5677 6060 c-21 -6 -52 -17 -70 -26 -43 -22 -530 -507 -566 -564
-131 -206 32 -477 280 -466 111 5 141 27 424 310 244 244 274 280 302 356 46
127 -28 297 -158 363 -61 30 -152 42 -212 27z"/>
<path d="M3317 5184 c-1 -2 -36 -8 -77 -14 -219 -33 -455 -122 -646 -246 -49
-31 -91 -60 -94 -63 -3 -4 -21 -18 -40 -31 -72 -49 -224 -202 -302 -305 -230
-302 -347 -650 -346 -1031 1 -267 59 -518 172 -742 292 -579 872 -940 1511
-940 267 0 484 48 724 160 72 33 226 121 241 138 3 3 39 31 80 62 41 31 102
83 136 116 80 77 244 278 244 298 0 4 10 21 23 38 59 79 155 302 192 446 84
324 68 697 -42 995 -155 419 -450 752 -838 944 -263 130 -471 179 -767 178
-92 0 -169 -1 -171 -3z m369 -624 c483 -97 829 -468 883 -945 13 -122 3 -270
-26 -375 -29 -107 -97 -270 -115 -278 -5 -2 -8 -8 -8 -13 0 -17 -105 -153
-158 -207 -203 -202 -457 -309 -751 -316 -69 -2 -105 1 -219 19 -98 14 -258
78 -359 142 -425 269 -612 791 -451 1257 135 391 471 667 878 722 25 3 46 7
47 8 8 7 230 -4 279 -14z"/>
<path d="M235 3795 c-128 -38 -215 -145 -223 -273 -7 -101 27 -183 105 -253
80 -72 91 -74 518 -74 l380 0 59 30 c73 37 124 96 152 175 57 162 -31 338
-194 389 -63 19 -89 20 -412 20 -238 -1 -357 -5 -385 -14z"/>
<path d="M5975 3793 c-249 -76 -297 -404 -81 -547 80 -53 121 -57 511 -53 342
3 351 3 403 26 71 32 145 113 167 185 48 151 -25 311 -173 379 -45 21 -61 22
-412 24 -304 1 -373 -1 -415 -14z"/>
<path d="M1595 1983 c-21 -8 -55 -26 -75 -40 -46 -35 -488 -478 -522 -523
-111 -150 -52 -373 120 -457 47 -23 70 -28 132 -28 116 0 140 18 435 313 294
293 310 316 310 442 -1 123 -64 223 -174 277 -64 32 -162 39 -226 16z"/>
<path d="M5221 1989 c-95 -29 -192 -125 -216 -214 -20 -77 -8 -175 31 -243 11
-17 138 -151 284 -296 235 -234 271 -266 320 -284 194 -72 410 78 410 285 0
68 -24 144 -60 190 -12 15 -129 137 -261 270 -172 175 -252 249 -289 268 -57
29 -164 41 -219 24z"/>
<path d="M3437 1238 c-108 -23 -199 -108 -230 -214 -12 -42 -15 -118 -14 -415
l2 -364 28 -57 c59 -120 173 -186 301 -175 114 10 210 77 258 182 23 49 23 58
25 415 3 444 0 459 -103 555 -68 64 -174 93 -267 73z"/>
</g>
</svg>
