<?xml version="1.0" standalone="no"?>
<!DOCTYPE svg PUBLIC "-//W3C//DTD SVG 20010904//EN"
 "http://www.w3.org/TR/2001/REC-SVG-20010904/DTD/svg10.dtd">
<svg version="1.0" xmlns="http://www.w3.org/2000/svg"
 width="700.000000pt" height="700.000000pt" viewBox="0 0 700.000000 700.000000"
 preserveAspectRatio="xMidYMid meet">
<metadata>
Created by potrace 1.11, written by Peter Selinger 2001-2013
</metadata>
<g transform="translate(0.000000,700.000000) scale(0.100000,-0.100000)"
fill="#000000" stroke="none">
<path d="M5726 6545 c-102 -42 -160 -99 -201 -202 -40 -98 -25 -228 38 -315
102 -144 290 -191 454 -112 69 33 119 85 156 163 79 166 4 367 -170 453 -87
43 -191 48 -277 13z"/>
<path d="M1290 6521 c-53 -16 -108 -51 -144 -92 -146 -161 -88 -412 114 -491
l55 -21 1835 -1 1836 -1 67 33 c117 58 178 159 173 289 -5 134 -92 243 -222
281 -32 9 -474 12 -1865 11 -1003 0 -1835 -4 -1849 -8z"/>
<path d="M998 5151 c-63 -25 -102 -54 -143 -108 -126 -165 -48 -404 155 -473
45 -15 195 -17 1867 -15 1221 1 1828 5 1849 12 87 30 154 90 192 172 67 147
-1 326 -153 401 l-50 25 -1835 2 c-1755 2 -1837 1 -1882 -16z"/>
<path d="M2425 3809 c-96 -12 -176 -69 -225 -161 -30 -56 -34 -72 -34 -139 0
-62 5 -86 28 -132 33 -68 100 -129 170 -156 50 -20 82 -20 1671 -20 1509 0
1623 1 1670 17 162 56 245 226 191 389 -24 71 -94 148 -165 180 l-56 26 -1600
1 c-880 1 -1623 -2 -1650 -5z"/>
<path d="M2917 2414 c-200 -73 -270 -324 -136 -487 27 -32 104 -87 134 -94 5
-1 28 -6 50 -11 22 -4 465 -7 985 -7 l945 2 55 25 c249 113 245 460 -6 563
l-59 24 -965 0 c-802 0 -971 -3 -1003 -15z"/>
<path d="M2655 1038 c-132 -28 -231 -138 -242 -270 -13 -147 71 -275 212 -322
44 -14 105 -16 540 -14 l490 3 48 25 c205 104 241 355 74 511 -12 11 -46 32
-77 47 l-55 27 -475 1 c-261 0 -493 -3 -515 -8z"/>
</g>
</svg>
