<svg version="1" xmlns="http://www.w3.org/2000/svg" width="933.333" height="933.333" viewBox="0 0 700.000000 700.000000"><path d="M572.6 45.5c-10.2 4.2-16 9.9-20.1 20.2-4 9.8-2.5 22.8 3.8 31.5 10.2 14.4 29 19.1 45.4 11.2 6.9-3.3 11.9-8.5 15.6-16.3 7.9-16.6.4-36.7-17-45.3-8.7-4.3-19.1-4.8-27.7-1.3zM129 47.9c-5.3 1.6-10.8 5.1-14.4 9.2-14.6 16.1-8.8 41.2 11.4 49.1l5.5 2.1 183.5.1 183.6.1 6.7-3.3c11.7-5.8 17.8-15.9 17.3-28.9-.5-13.4-9.2-24.3-22.2-28.1-3.2-.9-47.4-1.2-186.5-1.1-100.3 0-183.5.4-184.9.8zM99.8 184.9c-6.3 2.5-10.2 5.4-14.3 10.8-12.6 16.5-4.8 40.4 15.5 47.3 4.5 1.5 19.5 1.7 186.7 1.5 122.1-.1 182.8-.5 184.9-1.2 8.7-3 15.4-9 19.2-17.2 6.7-14.7-.1-32.6-15.3-40.1l-5-2.5-183.5-.2c-175.5-.2-183.7-.1-188.2 1.6zM242.5 319.1c-9.6 1.2-17.6 6.9-22.5 16.1-3 5.6-3.4 7.2-3.4 13.9 0 6.2.5 8.6 2.8 13.2 3.3 6.8 10 12.9 17 15.6 5 2 8.2 2 167.1 2 150.9 0 162.3-.1 167-1.7 16.2-5.6 24.5-22.6 19.1-38.9-2.4-7.1-9.4-14.8-16.5-18l-5.6-2.6-160-.1c-88-.1-162.3.2-165 .5zM291.7 458.6c-20 7.3-27 32.4-13.6 48.7 2.7 3.2 10.4 8.7 13.4 9.4.5.1 2.8.6 5 1.1 2.2.4 46.5.7 98.5.7l94.5-.2 5.5-2.5c24.9-11.3 24.5-46-.6-56.3l-5.9-2.4H392c-80.2 0-97.1.3-100.3 1.5zM265.5 596.2c-13.2 2.8-23.1 13.8-24.2 27-1.3 14.7 7.1 27.5 21.2 32.2 4.4 1.4 10.5 1.6 54 1.4l49-.3 4.8-2.5c20.5-10.4 24.1-35.5 7.4-51.1-1.2-1.1-4.6-3.2-7.7-4.7l-5.5-2.7-47.5-.1c-26.1 0-49.3.3-51.5.8z"/></svg>