<?xml version="1.0" standalone="no"?>
<!DOCTYPE svg PUBLIC "-//W3C//DTD SVG 20010904//EN"
 "http://www.w3.org/TR/2001/REC-SVG-20010904/DTD/svg10.dtd">
<svg version="1.0" xmlns="http://www.w3.org/2000/svg"
 width="700.000000pt" height="700.000000pt" viewBox="0 0 700.000000 700.000000"
 preserveAspectRatio="xMidYMid meet">
<metadata>
Created by potrace 1.11, written by Peter Selinger 2001-2013
</metadata>
<g transform="translate(0.000000,700.000000) scale(0.100000,-0.100000)"
fill="#000000" stroke="none">
<path d="M3128 6085 c-3 -3 -25 -8 -49 -11 -69 -9 -79 -11 -167 -33 -237 -61
-436 -175 -607 -346 -109 -110 -189 -221 -258 -360 -42 -85 -114 -280 -137
-371 -11 -45 -6 -43 -168 -79 -57 -13 -196 -75 -277 -123 -184 -109 -340 -273
-438 -461 -44 -83 -102 -241 -112 -305 -3 -17 -7 -42 -10 -56 -3 -14 -7 -41
-11 -60 -7 -39 -7 -284 -1 -315 3 -11 8 -40 12 -65 10 -66 52 -205 87 -284 76
-174 197 -328 364 -464 85 -69 172 -96 265 -81 72 11 110 31 167 87 66 65 96
142 89 232 -8 111 -40 164 -161 265 -135 114 -209 287 -205 479 6 262 148 462
393 551 36 13 66 22 66 20 0 -3 11 0 25 5 14 5 60 12 103 15 179 13 228 29
297 101 51 52 80 121 89 214 31 303 116 497 283 650 141 129 324 191 565 191
65 0 126 -2 135 -5 10 -3 35 -7 57 -11 67 -9 189 -55 258 -96 94 -55 248 -216
248 -258 0 -6 3 -11 8 -11 4 0 13 -12 19 -27 7 -16 24 -54 38 -86 34 -79 61
-178 85 -321 22 -135 43 -183 105 -243 79 -74 114 -81 427 -86 242 -4 281 -7
346 -26 85 -25 160 -61 217 -104 51 -38 134 -128 135 -144 0 -7 3 -13 8 -13
15 0 66 -129 77 -197 28 -165 2 -319 -76 -448 -82 -135 -203 -223 -374 -270
-125 -35 -185 -70 -229 -134 -128 -185 -30 -434 189 -479 63 -13 96 -8 241 34
322 92 599 323 750 624 37 75 89 223 98 286 4 21 8 46 11 54 15 54 20 229 10
330 -19 186 -90 392 -179 523 -14 21 -26 40 -26 44 0 9 -100 124 -155 177 -27
27 -82 72 -120 100 -226 164 -460 239 -780 251 -55 2 -103 4 -107 4 -5 1 -8 8
-8 16 0 19 -44 152 -77 235 -197 483 -576 788 -1088 875 -47 8 -440 16 -447
10z"/>
<path d="M2549 3656 c-32 -7 -75 -24 -98 -39 -69 -46 -95 -92 -139 -254 -22
-82 -64 -233 -93 -338 -28 -104 -56 -206 -61 -225 -5 -19 -10 -42 -12 -50 -2
-8 -13 -49 -25 -90 -242 -893 -236 -867 -206 -947 28 -73 69 -119 138 -153 52
-25 72 -29 122 -26 107 5 200 66 238 153 14 33 80 271 257 928 27 99 81 299
121 445 87 317 93 382 46 462 -44 73 -112 122 -187 134 -14 3 -29 6 -35 8 -5
2 -35 -2 -66 -8z"/>
<path d="M4390 3659 c-96 -15 -175 -72 -209 -151 -11 -24 -49 -155 -86 -293
-37 -137 -90 -331 -117 -430 -27 -99 -51 -188 -53 -198 -2 -9 -15 -59 -29
-110 -163 -586 -169 -613 -169 -677 -1 -119 61 -209 172 -251 69 -26 148 -21
219 15 90 46 120 101 181 331 11 44 43 161 70 260 27 99 62 232 80 295 17 63
71 264 120 445 126 465 124 455 122 510 -2 56 -36 136 -75 177 -53 55 -151 89
-226 77z"/>
<path d="M3260 3025 c-56 -18 -124 -75 -149 -124 -17 -32 -59 -182 -280 -1001
-32 -118 -87 -318 -121 -445 -34 -126 -62 -250 -63 -275 -2 -99 60 -202 150
-246 21 -10 68 -20 105 -22 55 -3 75 0 120 21 66 30 121 85 141 140 16 41 34
108 171 617 37 135 82 301 101 370 198 724 196 715 152 813 -26 55 -83 114
-138 143 -44 22 -134 27 -189 9z"/>
</g>
</svg>
