<svg version="1" xmlns="http://www.w3.org/2000/svg" width="933.333" height="933.333" viewBox="0 0 700.000000 700.000000"><path d="M312.8 91.5c-.3.3-2.5.8-4.9 1.1-6.9.9-7.9 1.1-16.7 3.3-23.7 6.1-43.6 17.5-60.7 34.6-10.9 11-18.9 22.1-25.8 36-4.2 8.5-11.4 28-13.7 37.1-1.1 4.5-.6 4.3-16.8 7.9-5.7 1.3-19.6 7.5-27.7 12.3-18.4 10.9-34 27.3-43.8 46.1-4.4 8.3-10.2 24.1-11.2 30.5-.3 1.7-.7 4.2-1 5.6-.3 1.4-.7 4.1-1.1 6-.7 3.9-.7 28.4-.1 31.5.3 1.1.8 4 1.2 6.5 1 6.6 5.2 20.5 8.7 28.4 7.6 17.4 19.7 32.8 36.4 46.4 8.5 6.9 17.2 9.6 26.5 8.1 7.2-1.1 11-3.1 16.7-8.7 6.6-6.5 9.6-14.2 8.9-23.2-.8-11.1-4-16.4-16.1-26.5-13.5-11.4-20.9-28.7-20.5-47.9.6-26.2 14.8-46.2 39.3-55.1 3.6-1.3 6.6-2.2 6.6-2 0 .3 1.1 0 2.5-.5s6-1.2 10.3-1.5c17.9-1.3 22.8-2.9 29.7-10.1 5.1-5.2 8-12.1 8.9-21.4 3.1-30.3 11.6-49.7 28.3-65 14.1-12.9 32.4-19.1 56.5-19.1 6.5 0 12.6.2 13.5.5 1 .3 3.5.7 5.7 1.1 6.7.9 18.9 5.5 25.8 9.6 9.4 5.5 24.8 21.6 24.8 25.8 0 .6.3 1.1.8 1.1.4 0 1.3 1.2 1.9 2.7.7 1.6 2.4 5.4 3.8 8.6 3.4 7.9 6.1 17.8 8.5 32.1 2.2 13.5 4.3 18.3 10.5 24.3 7.9 7.4 11.4 8.1 42.7 8.6 24.2.4 28.1.7 34.6 2.6 8.5 2.5 16 6.1 21.7 10.4 5.1 3.8 13.4 12.8 13.5 14.4 0 .7.3 1.3.8 1.3 1.5 0 6.6 12.9 7.7 19.7 2.8 16.5.2 31.9-7.6 44.8-8.2 13.5-20.3 22.3-37.4 27-12.5 3.5-18.5 7-22.9 13.4-12.8 18.5-3 43.4 18.9 47.9 6.3 1.3 9.6.8 24.1-3.4 32.2-9.2 59.9-32.3 75-62.4 3.7-7.5 8.9-22.3 9.8-28.6.4-2.1.8-4.6 1.1-5.4 1.5-5.4 2-22.9 1-33-1.9-18.6-9-39.2-17.9-52.3-1.4-2.1-2.6-4-2.6-4.4 0-.9-10-12.4-15.5-17.7-2.7-2.7-8.2-7.2-12-10-22.6-16.4-46-23.9-78-25.1-5.5-.2-10.3-.4-10.7-.4-.5-.1-.8-.8-.8-1.6 0-1.9-4.4-15.2-7.7-23.5-19.7-48.3-57.6-78.8-108.8-87.5-4.7-.8-44-1.6-44.7-1z"/><path d="M254.9 334.4c-3.2.7-7.5 2.4-9.8 3.9-6.9 4.6-9.5 9.2-13.9 25.4-2.2 8.2-6.4 23.3-9.3 33.8-2.8 10.4-5.6 20.6-6.1 22.5-.5 1.9-1 4.2-1.2 5-.2.8-1.3 4.9-2.5 9-24.2 89.3-23.6 86.7-20.6 94.7 2.8 7.3 6.9 11.9 13.8 15.3 5.2 2.5 7.2 2.9 12.2 2.6 10.7-.5 20-6.6 23.8-15.3 1.4-3.3 8-27.1 25.7-92.8 2.7-9.9 8.1-29.9 12.1-44.5 8.7-31.7 9.3-38.2 4.6-46.2-4.4-7.3-11.2-12.2-18.7-13.4-1.4-.3-2.9-.6-3.5-.8-.5-.2-3.5.2-6.6.8zM439 334.1c-9.6 1.5-17.5 7.2-20.9 15.1-1.1 2.4-4.9 15.5-8.6 29.3-3.7 13.7-9 33.1-11.7 43-2.7 9.9-5.1 18.8-5.3 19.8-.2.9-1.5 5.9-2.9 11-16.3 58.6-16.9 61.3-16.9 67.7-.1 11.9 6.1 20.9 17.2 25.1 6.9 2.6 14.8 2.1 21.9-1.5 9-4.6 12-10.1 18.1-33.1 1.1-4.4 4.3-16.1 7-26 2.7-9.9 6.2-23.2 8-29.5 1.7-6.3 7.1-26.4 12-44.5 12.6-46.5 12.4-45.5 12.2-51-.2-5.6-3.6-13.6-7.5-17.7-5.3-5.5-15.1-8.9-22.6-7.7zM326 397.5c-5.6 1.8-12.4 7.5-14.9 12.4-1.7 3.2-5.9 18.2-28 100.1-3.2 11.8-8.7 31.8-12.1 44.5-3.4 12.6-6.2 25-6.3 27.5-.2 9.9 6 20.2 15 24.6 2.1 1 6.8 2 10.5 2.2 5.5.3 7.5 0 12-2.1 6.6-3 12.1-8.5 14.1-14 1.6-4.1 3.4-10.8 17.1-61.7 3.7-13.5 8.2-30.1 10.1-37 19.8-72.4 19.6-71.5 15.2-81.3-2.6-5.5-8.3-11.4-13.8-14.3-4.4-2.2-13.4-2.7-18.9-.9z"/></svg>