<?xml version="1.0" standalone="no"?>
<!DOCTYPE svg PUBLIC "-//W3C//DTD SVG 20010904//EN"
 "http://www.w3.org/TR/2001/REC-SVG-20010904/DTD/svg10.dtd">
<svg version="1.0" xmlns="http://www.w3.org/2000/svg"
 width="700.000000pt" height="700.000000pt" viewBox="0 0 700.000000 700.000000"
 preserveAspectRatio="xMidYMid meet">
<metadata>
Created by potrace 1.11, written by Peter Selinger 2001-2013
</metadata>
<g transform="translate(0.000000,700.000000) scale(0.100000,-0.100000)"
fill="#000000" stroke="none">
<path d="M3128 6085 c-3 -3 -25 -8 -49 -11 -69 -9 -79 -11 -167 -33 -237 -61
-436 -175 -607 -346 -109 -110 -189 -221 -258 -360 -42 -85 -114 -280 -137
-371 -11 -45 -6 -43 -168 -79 -57 -13 -196 -75 -277 -123 -184 -109 -340 -273
-438 -461 -44 -83 -102 -241 -112 -305 -3 -17 -7 -42 -10 -56 -3 -14 -7 -41
-11 -60 -7 -39 -7 -284 -1 -315 3 -11 8 -40 12 -65 3 -25 18 -83 32 -130 74
-250 199 -435 418 -618 78 -66 176 -95 266 -81 72 11 110 31 167 87 66 65 96
142 89 232 -8 111 -40 164 -161 265 -135 114 -209 287 -205 479 6 262 148 462
393 551 36 13 66 22 66 20 0 -3 11 0 25 5 14 5 60 12 103 15 179 13 228 29
297 101 51 52 80 121 89 214 31 303 116 497 283 650 141 129 324 191 565 191
65 0 126 -2 135 -5 10 -3 35 -7 57 -11 67 -9 189 -55 258 -96 94 -55 248 -216
248 -258 0 -6 3 -11 8 -11 4 0 13 -12 19 -27 7 -16 24 -54 38 -86 34 -79 61
-178 85 -321 22 -135 43 -183 105 -243 79 -74 114 -81 427 -86 242 -4 281 -7
346 -26 85 -25 160 -61 217 -104 51 -38 134 -128 135 -144 0 -7 3 -13 8 -13
15 0 66 -129 77 -197 28 -165 2 -319 -76 -448 -82 -135 -203 -223 -374 -270
-125 -35 -185 -70 -229 -134 -128 -185 -30 -434 189 -479 63 -13 96 -8 241 34
322 92 599 323 750 624 37 75 89 223 98 286 4 21 8 46 11 54 15 54 20 229 10
330 -19 186 -90 392 -179 523 -14 21 -26 40 -26 44 0 9 -100 124 -155 177 -27
27 -82 72 -120 100 -226 164 -460 239 -780 251 -55 2 -103 4 -107 4 -5 1 -8 8
-8 16 0 19 -44 152 -77 235 -197 483 -576 788 -1088 875 -47 8 -440 16 -447
10z"/>
<path d="M2537 3646 c-46 -17 -99 -57 -125 -93 -27 -39 -47 -105 -161 -528
-161 -596 -153 -563 -147 -632 14 -169 184 -277 350 -224 96 31 158 108 191
236 7 28 21 77 30 110 9 33 18 67 20 75 4 18 41 154 131 485 77 284 83 345 45
428 -25 54 -77 108 -130 134 -47 22 -155 27 -204 9z"/>
<path d="M4269 3646 c-70 -25 -144 -99 -161 -161 -3 -11 -23 -81 -43 -155 -20
-74 -39 -142 -41 -150 -1 -8 -17 -67 -35 -130 -17 -63 -41 -153 -54 -200 -13
-47 -32 -119 -43 -160 -12 -41 -30 -108 -41 -149 -40 -152 -12 -257 90 -334
104 -78 257 -66 352 29 53 54 49 42 192 574 18 69 59 220 90 335 49 180 56
219 52 272 -10 138 -118 238 -260 241 -34 1 -78 -4 -98 -12z"/>
<path d="M3250 3055 c-59 -19 -119 -71 -147 -126 -19 -39 -79 -252 -250 -889
-52 -196 -54 -267 -9 -344 90 -154 305 -179 427 -49 47 50 58 80 128 338 33
121 91 337 130 480 39 143 73 285 77 315 11 103 -50 211 -150 262 -52 26 -146
32 -206 13z"/>
<path d="M2133 2029 c-129 -27 -217 -143 -207 -274 12 -155 142 -267 291 -251
144 16 248 129 242 264 -3 70 -17 111 -56 166 -53 75 -171 116 -270 95z"/>
<path d="M3833 2019 c-75 -25 -110 -56 -145 -127 -43 -88 -43 -157 1 -246 66
-135 220 -183 359 -112 129 65 178 212 116 346 -30 64 -46 85 -94 115 -65 41
-159 51 -237 24z"/>
<path d="M2870 1442 c-62 -8 -120 -35 -160 -75 -53 -52 -72 -95 -76 -175 -7
-157 111 -282 266 -282 98 0 200 63 241 147 31 64 32 168 2 233 -48 105 -160
167 -273 152z"/>
</g>
</svg>
