<svg version="1" xmlns="http://www.w3.org/2000/svg" width="933.333" height="933.333" viewBox="0 0 700.000000 700.000000"><path d="M312.8 91.5c-.3.3-2.5.8-4.9 1.1-6.9.9-7.9 1.1-16.7 3.3-23.7 6.1-43.6 17.5-60.7 34.6-10.9 11-18.9 22.1-25.8 36-4.2 8.5-11.4 28-13.7 37.1-1.1 4.5-.6 4.3-16.8 7.9-5.7 1.3-19.6 7.5-27.7 12.3-18.4 10.9-34 27.3-43.8 46.1-4.4 8.3-10.2 24.1-11.2 30.5-.3 1.7-.7 4.2-1 5.6-.3 1.4-.7 4.1-1.1 6-.7 3.9-.7 28.4-.1 31.5.3 1.1.8 4 1.2 6.5.3 2.5 1.8 8.3 3.2 13 7.4 25 19.9 43.5 41.8 61.8 7.8 6.6 17.6 9.5 26.6 8.1 7.2-1.1 11-3.1 16.7-8.7 6.6-6.5 9.6-14.2 8.9-23.2-.8-11.1-4-16.4-16.1-26.5-13.5-11.4-20.9-28.7-20.5-47.9.6-26.2 14.8-46.2 39.3-55.1 3.6-1.3 6.6-2.2 6.6-2 0 .3 1.1 0 2.5-.5s6-1.2 10.3-1.5c17.9-1.3 22.8-2.9 29.7-10.1 5.1-5.2 8-12.1 8.9-21.4 3.1-30.3 11.6-49.7 28.3-65 14.1-12.9 32.4-19.1 56.5-19.1 6.5 0 12.6.2 13.5.5 1 .3 3.5.7 5.7 1.1 6.7.9 18.9 5.5 25.8 9.6 9.4 5.5 24.8 21.6 24.8 25.8 0 .6.3 1.1.8 1.1.4 0 1.3 1.2 1.9 2.7.7 1.6 2.4 5.4 3.8 8.6 3.4 7.9 6.1 17.8 8.5 32.1 2.2 13.5 4.3 18.3 10.5 24.3 7.9 7.4 11.4 8.1 42.7 8.6 24.2.4 28.1.7 34.6 2.6 8.5 2.5 16 6.1 21.7 10.4 5.1 3.8 13.4 12.8 13.5 14.4 0 .7.3 1.3.8 1.3 1.5 0 6.6 12.9 7.7 19.7 2.8 16.5.2 31.9-7.6 44.8-8.2 13.5-20.3 22.3-37.4 27-12.5 3.5-18.5 7-22.9 13.4-12.8 18.5-3 43.4 18.9 47.9 6.3 1.3 9.6.8 24.1-3.4 32.2-9.2 59.9-32.3 75-62.4 3.7-7.5 8.9-22.3 9.8-28.6.4-2.1.8-4.6 1.1-5.4 1.5-5.4 2-22.9 1-33-1.9-18.6-9-39.2-17.9-52.3-1.4-2.1-2.6-4-2.6-4.4 0-.9-10-12.4-15.5-17.7-2.7-2.7-8.2-7.2-12-10-22.6-16.4-46-23.9-78-25.1-5.5-.2-10.3-.4-10.7-.4-.5-.1-.8-.8-.8-1.6 0-1.9-4.4-15.2-7.7-23.5-19.7-48.3-57.6-78.8-108.8-87.5-4.7-.8-44-1.6-44.7-1z"/><path d="M253.7 335.4c-4.6 1.7-9.9 5.7-12.5 9.3-2.7 3.9-4.7 10.5-16.1 52.8-16.1 59.6-15.3 56.3-14.7 63.2 1.4 16.9 18.4 27.7 35 22.4 9.6-3.1 15.8-10.8 19.1-23.6.7-2.8 2.1-7.7 3-11 .9-3.3 1.8-6.7 2-7.5.4-1.8 4.1-15.4 13.1-48.5 7.7-28.4 8.3-34.5 4.5-42.8-2.5-5.4-7.7-10.8-13-13.4-4.7-2.2-15.5-2.7-20.4-.9zM426.9 335.4c-7 2.5-14.4 9.9-16.1 16.1-.3 1.1-2.3 8.1-4.3 15.5s-3.9 14.2-4.1 15c-.1.8-1.7 6.7-3.5 13-1.7 6.3-4.1 15.3-5.4 20-1.3 4.7-3.2 11.9-4.3 16-1.2 4.1-3 10.8-4.1 14.9-4 15.2-1.2 25.7 9 33.4 10.4 7.8 25.7 6.6 35.2-2.9 5.3-5.4 4.9-4.2 19.2-57.4 1.8-6.9 5.9-22 9-33.5 4.9-18 5.6-21.9 5.2-27.2-1-13.8-11.8-23.8-26-24.1-3.4-.1-7.8.4-9.8 1.2zM325 394.5c-5.9 1.9-11.9 7.1-14.7 12.6-1.9 3.9-7.9 25.2-25 88.9-5.2 19.6-5.4 26.7-.9 34.4 9 15.4 30.5 17.9 42.7 4.9 4.7-5 5.8-8 12.8-33.8 3.3-12.1 9.1-33.7 13-48 3.9-14.3 7.3-28.5 7.7-31.5 1.1-10.3-5-21.1-15-26.2-5.2-2.6-14.6-3.2-20.6-1.3zM213.3 497.1c-12.9 2.7-21.7 14.3-20.7 27.4 1.2 15.5 14.2 26.7 29.1 25.1 14.4-1.6 24.8-12.9 24.2-26.4-.3-7-1.7-11.1-5.6-16.6-5.3-7.5-17.1-11.6-27-9.5zM383.3 498.1c-7.5 2.5-11 5.6-14.5 12.7-4.3 8.8-4.3 15.7.1 24.6 6.6 13.5 22 18.3 35.9 11.2 12.9-6.5 17.8-21.2 11.6-34.6-3-6.4-4.6-8.5-9.4-11.5-6.5-4.1-15.9-5.1-23.7-2.4zM287 555.8c-6.2.8-12 3.5-16 7.5-5.3 5.2-7.2 9.5-7.6 17.5-.7 15.7 11.1 28.2 26.6 28.2 9.8 0 20-6.3 24.1-14.7 3.1-6.4 3.2-16.8.2-23.3-4.8-10.5-16-16.7-27.3-15.2z"/></svg>