<?xml version="1.0" standalone="no"?>
<!DOCTYPE svg PUBLIC "-//W3C//DTD SVG 20010904//EN"
 "http://www.w3.org/TR/2001/REC-SVG-20010904/DTD/svg10.dtd">
<svg version="1.0" xmlns="http://www.w3.org/2000/svg"
 width="700.000000pt" height="700.000000pt" viewBox="0 0 700.000000 700.000000"
 preserveAspectRatio="xMidYMid meet">
<metadata>
Created by potrace 1.11, written by Peter Selinger 2001-2013
</metadata>
<g transform="translate(0.000000,700.000000) scale(0.100000,-0.100000)"
fill="#000000" stroke="none">
<path d="M2885 5919 c-292 -19 -523 -93 -732 -235 -123 -84 -194 -153 -315
-302 -92 -113 -199 -349 -262 -573 l-15 -55 -78 -19 c-101 -23 -258 -87 -349
-140 -300 -178 -500 -458 -570 -800 -27 -131 -26 -324 3 -383 52 -109 158
-176 278 -176 108 -1 200 48 254 133 37 59 49 99 55 188 8 99 14 135 36 199
44 128 140 240 263 308 105 57 197 80 362 90 171 11 278 101 310 261 1 6 5 39
9 75 27 271 161 538 334 663 173 125 398 174 661 144 219 -26 410 -142 530
-322 96 -145 148 -290 176 -495 12 -88 16 -102 40 -149 28 -57 91 -116 154
-144 41 -19 67 -21 256 -23 116 -2 244 -5 285 -8 323 -24 554 -233 584 -526 4
-36 9 -87 12 -115 11 -104 77 -197 172 -246 65 -33 197 -34 258 -2 128 68 184
170 178 323 -7 180 -37 318 -101 462 -30 69 -98 194 -113 208 -3 3 -18 23 -34
45 -50 68 -187 194 -272 251 -217 145 -479 219 -767 219 l-78 0 -20 70 c-65
225 -201 482 -323 613 -141 151 -248 233 -404 312 -165 82 -350 132 -537 145
-49 4 -101 7 -115 9 -14 1 -70 -1 -125 -5z"/>
<path d="M5410 2791 c-258 -78 -314 -401 -96 -550 89 -61 213 -73 308 -29 239
111 245 440 11 555 -58 28 -169 40 -223 24z"/>
<path d="M791 2758 c-86 -13 -154 -59 -203 -139 -21 -33 -37 -122 -31 -163 14
-91 88 -181 175 -214 49 -18 113 -19 1967 -18 l1916 1 48 25 c169 86 200 311
62 439 -85 78 70 73 -2019 74 -1025 1 -1886 -1 -1915 -5z"/>
<path d="M1881 1604 c-149 -44 -232 -186 -192 -330 25 -91 119 -176 210 -190
81 -13 4289 -11 4347 2 134 29 224 148 211 283 -9 102 -61 175 -157 220 l-55
25 -2164 1 c-1527 0 -2174 -3 -2200 -11z"/>
</g>
</svg>
