<svg version="1" xmlns="http://www.w3.org/2000/svg" width="933.333" height="933.333" viewBox="0 0 700.000000 700.000000"><path d="M288.5 108.1c-29.2 1.9-52.3 9.3-73.2 23.5-12.3 8.4-19.4 15.3-31.5 30.2-9.2 11.3-19.9 34.9-26.2 57.3l-1.5 5.5-7.8 1.9c-10.1 2.3-25.8 8.7-34.9 14-30 17.8-50 45.8-57 80-2.7 13.1-2.6 32.4.3 38.3 5.2 10.9 15.8 17.6 27.8 17.6 10.8.1 20-4.8 25.4-13.3 3.7-5.9 4.9-9.9 5.5-18.8.8-9.9 1.4-13.5 3.6-19.9 4.4-12.8 14-24 26.3-30.8 10.5-5.7 19.7-8 36.2-9 17.1-1.1 27.8-10.1 31-26.1.1-.6.5-3.9.9-7.5 2.7-27.1 16.1-53.8 33.4-66.3 17.3-12.5 39.8-17.4 66.1-14.4 21.9 2.6 41 14.2 53 32.2 9.6 14.5 14.8 29 17.6 49.5 1.2 8.8 1.6 10.2 4 14.9 2.8 5.7 9.1 11.6 15.4 14.4 4.1 1.9 6.7 2.1 25.6 2.3 11.6.2 24.4.5 28.5.8 32.3 2.4 55.4 23.3 58.4 52.6.4 3.6.9 8.7 1.2 11.5 1.1 10.4 7.7 19.7 17.2 24.6 6.5 3.3 19.7 3.4 25.8.2 12.8-6.8 18.4-17 17.8-32.3-.7-18-3.7-31.8-10.1-46.2-3-6.9-9.8-19.4-11.3-20.8-.3-.3-1.8-2.3-3.4-4.5-5-6.8-18.7-19.4-27.2-25.1-21.7-14.5-47.9-21.9-76.7-21.9h-7.8l-2-7c-6.5-22.5-20.1-48.2-32.3-61.3-14.1-15.1-24.8-23.3-40.4-31.2-16.5-8.2-35-13.2-53.7-14.5-4.9-.4-10.1-.7-11.5-.9-1.4-.1-7 .1-12.5.5zM541 420.9c-25.8 7.8-31.4 40.1-9.6 55 8.9 6.1 21.3 7.3 30.8 2.9 23.9-11.1 24.5-44 1.1-55.5-5.8-2.8-16.9-4-22.3-2.4zM79.1 424.2c-8.6 1.3-15.4 5.9-20.3 13.9-2.1 3.3-3.7 12.2-3.1 16.3 1.4 9.1 8.8 18.1 17.5 21.4 4.9 1.8 11.3 1.9 196.7 1.8l191.6-.1 4.8-2.5c16.9-8.6 20-31.1 6.2-43.9-8.5-7.8 7-7.3-201.9-7.4-102.5-.1-188.6.1-191.5.5zM188.1 539.6c-14.9 4.4-23.2 18.6-19.2 33 2.5 9.1 11.9 17.6 21 19 8.1 1.3 428.9 1.1 434.7-.2 13.4-2.9 22.4-14.8 21.1-28.3-.9-10.2-6.1-17.5-15.7-22l-5.5-2.5-216.4-.1c-152.7 0-217.4.3-220 1.1z"/></svg>