<?xml version="1.0" standalone="no"?>
<!DOCTYPE svg PUBLIC "-//W3C//DTD SVG 20010904//EN"
 "http://www.w3.org/TR/2001/REC-SVG-20010904/DTD/svg10.dtd">
<svg version="1.0" xmlns="http://www.w3.org/2000/svg"
 width="700.000000pt" height="700.000000pt" viewBox="0 0 700.000000 700.000000"
 preserveAspectRatio="xMidYMid meet">
<metadata>
Created by potrace 1.11, written by Peter Selinger 2001-2013
</metadata>
<g transform="translate(0.000000,700.000000) scale(0.100000,-0.100000)"
fill="#000000" stroke="none">
<path d="M4928 5535 c-2 -1 -28 -5 -58 -8 -157 -16 -307 -70 -444 -162 -241
-161 -414 -492 -431 -824 -4 -78 17 -140 66 -190 43 -44 72 -59 124 -68 17 -3
32 -5 35 -6 20 -5 99 18 124 35 72 50 98 103 115 228 39 284 175 458 403 516
113 29 258 24 373 -13 195 -63 332 -250 360 -493 15 -122 27 -154 81 -208 56
-56 86 -63 303 -67 139 -3 210 -8 244 -19 186 -59 287 -194 288 -384 1 -158
-73 -285 -206 -355 -81 -42 -120 -48 -335 -53 -228 -4 -271 -12 -325 -57 -142
-116 -89 -350 89 -398 41 -11 465 -8 513 4 347 86 561 261 674 551 56 144 70
361 34 521 -37 162 -138 332 -257 432 -177 149 -377 218 -650 223 -23 0 -28 7
-44 58 -90 293 -286 531 -525 640 -139 63 -267 92 -431 97 -64 1 -118 2 -120
0z"/>
<path d="M2270 5060 c-115 -16 -147 -22 -224 -41 -384 -97 -697 -354 -871
-714 -51 -105 -135 -339 -135 -376 0 -16 -14 -32 -30 -35 -102 -18 -228 -62
-335 -116 -371 -186 -616 -545 -651 -953 -46 -522 190 -970 638 -1213 82 -44
227 -96 343 -123 l100 -23 1475 -2 c821 -1 1504 2 1540 7 148 20 168 25 295
66 384 124 690 451 790 843 46 179 51 391 14 570 -5 25 -11 54 -13 65 -16 93
-106 285 -186 397 -228 321 -598 501 -1049 510 -54 2 -95 7 -96 13 -2 5 -15
46 -28 90 -149 486 -473 832 -908 970 -82 26 -86 27 -209 51 -85 17 -377 26
-460 14z m430 -629 c306 -86 497 -303 578 -656 17 -76 38 -204 34 -212 -4 -8
43 -103 65 -132 31 -40 103 -87 158 -103 23 -6 139 -12 280 -13 138 -1 268 -7
305 -14 327 -62 525 -311 506 -636 -10 -176 -62 -294 -181 -410 -97 -95 -230
-155 -381 -171 -95 -10 -2749 -11 -2854 -1 -206 20 -389 123 -484 276 -29 45
-71 149 -81 198 -20 97 -9 284 21 353 4 8 8 20 10 27 7 36 76 136 130 188 79
78 202 143 304 161 14 3 32 7 40 9 8 2 51 7 95 10 159 11 205 28 272 97 52 53
80 114 88 193 22 215 40 289 113 445 59 129 177 253 307 324 74 41 145 63 290
90 11 2 85 2 165 1 111 -2 163 -8 220 -24z"/>
</g>
</svg>
