<svg version="1" xmlns="http://www.w3.org/2000/svg" width="933.333" height="933.333" viewBox="0 0 700.000000 700.000000"><path d="M492.8 146.5c-.2.1-2.8.5-5.8.8-15.7 1.6-30.7 7-44.4 16.2-24.1 16.1-41.4 49.2-43.1 82.4-.4 7.8 1.7 14 6.6 19 4.3 4.4 7.2 5.9 12.4 6.8 1.7.3 3.2.5 3.5.6 2 .5 9.9-1.8 12.4-3.5 7.2-5 9.8-10.3 11.5-22.8 3.9-28.4 17.5-45.8 40.3-51.6 11.3-2.9 25.8-2.4 37.3 1.3 19.5 6.3 33.2 25 36 49.3 1.5 12.2 2.7 15.4 8.1 20.8 5.6 5.6 8.6 6.3 30.3 6.7 13.9.3 21 .8 24.4 1.9 18.6 5.9 28.7 19.4 28.8 38.4.1 15.8-7.3 28.5-20.6 35.5-8.1 4.2-12 4.8-33.5 5.3-22.8.4-27.1 1.2-32.5 5.7-14.2 11.6-8.9 35 8.9 39.8 4.1 1.1 46.5.8 51.3-.4 34.7-8.6 56.1-26.1 67.4-55.1 5.6-14.4 7-36.1 3.4-52.1-3.7-16.2-13.8-33.2-25.7-43.2-17.7-14.9-37.7-21.8-65-22.3-2.3 0-2.8-.7-4.4-5.8-9-29.3-28.6-53.1-52.5-64-13.9-6.3-26.7-9.2-43.1-9.7-6.4-.1-11.8-.2-12 0zM227 194c-11.5 1.6-14.7 2.2-22.4 4.1-38.4 9.7-69.7 35.4-87.1 71.4-5.1 10.5-13.5 33.9-13.5 37.6 0 1.6-1.4 3.2-3 3.5-10.2 1.8-22.8 6.2-33.5 11.6-37.1 18.6-61.6 54.5-65.1 95.3-4.6 52.2 19 97 63.8 121.3 8.2 4.4 22.7 9.6 34.3 12.3l10 2.3 147.5.2c82.1.1 150.4-.2 154-.7 14.8-2 16.8-2.5 29.5-6.6 38.4-12.4 69-45.1 79-84.3 4.6-17.9 5.1-39.1 1.4-57-.5-2.5-1.1-5.4-1.3-6.5-1.6-9.3-10.6-28.5-18.6-39.7-22.8-32.1-59.8-50.1-104.9-51-5.4-.2-9.5-.7-9.6-1.3-.2-.5-1.5-4.6-2.8-9-14.9-48.6-47.3-83.2-90.8-97-8.2-2.6-8.6-2.7-20.9-5.1-8.5-1.7-37.7-2.6-46-1.4zm43 62.9c30.6 8.6 49.7 30.3 57.8 65.6 1.7 7.6 3.8 20.4 3.4 21.2-.4.8 4.3 10.3 6.5 13.2 3.1 4 10.3 8.7 15.8 10.3 2.3.6 13.9 1.2 28 1.3 13.8.1 26.8.7 30.5 1.4 32.7 6.2 52.5 31.1 50.6 63.6-1 17.6-6.2 29.4-18.1 41-9.7 9.5-23 15.5-38.1 17.1-9.5 1-274.9 1.1-285.4.1-20.6-2-38.9-12.3-48.4-27.6-2.9-4.5-7.1-14.9-8.1-19.8-2-9.7-.9-28.4 2.1-35.3.4-.8.8-2 1-2.7.7-3.6 7.6-13.6 13-18.8 7.9-7.8 20.2-14.3 30.4-16.1 1.4-.3 3.2-.7 4-.9.8-.2 5.1-.7 9.5-1 15.9-1.1 20.5-2.8 27.2-9.7 5.2-5.3 8-11.4 8.8-19.3 2.2-21.5 4-28.9 11.3-44.5 5.9-12.9 17.7-25.3 30.7-32.4 7.4-4.1 14.5-6.3 29-9 1.1-.2 8.5-.2 16.5-.1 11.1.2 16.3.8 22 2.4z"/></svg>