<svg version="1" xmlns="http://www.w3.org/2000/svg" width="933.333" height="933.333" viewBox="0 0 700.000000 700.000000"><path d="M317 94.3c-.3.3-3.4.7-7 1.1-19.6 1.9-44 10.9-60.6 22.2-28.4 19.4-48.2 49.7-58.4 89.1-1 4.1-1.2 4.2-6.8 5.4-22.2 4.5-48.1 18.7-62 33.9-17.6 19.2-26.4 36.4-31.7 62.2-2.2 10.8-2.2 32.6 0 44.7 5.7 30.6 20.4 55.1 45.5 75.4 13.3 10.8 30.4 10.7 42.3-.2 6.4-5.9 9.1-12.6 9.2-22.6 0-9.9-2.4-15.5-9.8-22.3-11.7-10.7-16.7-16.6-20.1-23.6-5.3-10.7-6.9-19-6.3-31.6.8-17 5.4-27.7 16.7-39.1 11.2-11.2 24.5-17 42.2-18.4 13.7-1.1 16.5-1.6 21.5-4.1 9.9-4.8 15.8-14.8 16.9-28.7 2.6-33.6 18.7-61.6 42.4-73.7 6.2-3.2 17.6-6.9 22.9-7.6 2.5-.3 4.8-.7 5.2-1 .4-.2 6.3-.4 13.1-.5 30.8-.1 53.3 10.7 68.6 33 2.3 3.4 4.2 6.4 4.2 6.6 0 .3 1.4 3.3 3 6.7 1.7 3.4 3.5 7.8 4.1 9.7 3.7 12.4 4.4 15.7 6.4 29.6 2 13.3 8.8 22.2 20.2 26.5 4.5 1.7 8.6 2 32 2.3 22.8.4 27.8.8 33.8 2.5 9 2.5 15.4 5.4 21.3 9.4 4.8 3.3 14.2 12.5 14.2 13.9 0 .4.6 1.4 1.3 2.1 2.2 2.3 6.6 13.3 8.1 20.2.7 3.6 1.2 10.4 1.1 14.9-.9 23.6-12.3 42-32.2 52.1-5.2 2.6-7 3.3-20.9 7.6-25.9 8-29.2 43.3-5.4 56 3.3 1.7 5.1 2.1 13.3 3.4 3.2.5 18.3-3.1 28-6.8 37.1-14 64.8-44.4 74.6-82.1 1.9-6.9 2.4-9.6 3.6-18.7.6-4.2.7-22.5.1-25.8-.3-1.4-.7-4.8-1.1-7.5-1.5-12.4-9.1-32.9-16.4-44.5-15.1-23.6-38.2-41.4-65.6-50.3-4.4-1.5-9.1-2.8-10.5-3.1-1.4-.3-5-1-8-1.6-6.2-1.2-19.3-2.4-28.7-2.4-7.1-.1-6.2 1.1-10.8-13.6-3-9.7-4.1-12.2-9.7-23.7-14.6-29.9-38.1-52.6-67.5-65.3-8.7-3.7-25.3-8.8-31.7-9.6-1.7-.2-4.2-.7-5.6-1-3-.7-38.4-1.7-39-1.1z"/><path d="M247.9 333.7c-5.3 3-8.4 5.8-10.9 9.8-2.9 4.6-12.2 39-12.6 46-.3 7.5 1.9 14 6.8 19.8 11.1 13.3 33 11.5 42.4-3.4 1.3-2.2 4.1-9.9 6-17.2 2-7.2 4-14.6 4.4-16.2 3.5-12.4 3.7-15.7 1.5-23.1-1.9-6.4-7.5-12.9-13.6-15.8-7-3.4-17.9-3.4-24 .1zM433.2 333.2c-2.7 1-6.7 3.4-8.9 5.3-5.7 4.9-6.7 7.4-15.9 41.5-2.6 9.3-2.8 14.4-.9 20.4 5.8 18.4 28.5 24.7 43.3 12 5.4-4.6 7.2-8.8 13.1-30.4 5.5-19.9 6.2-27.1 3.5-33.5-5.6-13.5-20.8-20.3-34.2-15.3zM327 394.9c-7 2.2-12.9 7-16 13.1-1 1.9-4.1 11.8-7 22-7.4 26-7.1 33 2 43.3 9.2 10.5 28.2 10.5 38.5 0 5.3-5.4 6.2-7.8 15.4-42.5 4.1-15.6-1.2-28.2-14.4-34.4-5.1-2.4-13.2-3.1-18.5-1.5zM217.7 457.7c-5.7 1.9-12.9 8.5-15.1 13.7-1.5 3.6-9.5 32.2-11.2 39.6-2.6 12.2 3.2 24.4 14.3 30 12.1 6.2 29.9.6 35.8-11.3.8-1.7 3.8-11.4 6.6-21.6 4.8-17.3 6.1-25.9 4.6-31.1-2-7.1-7.1-14-13-17.5-5.7-3.3-15.5-4.1-22-1.8zM399 457.7c-2.7 1-6.4 3.6-9.5 6.7-5.6 5.6-6.5 8-13.9 36.6-3.9 14.9-4 20.1-.7 27.3 7.6 16.8 31.2 20.6 43.9 7 4.4-4.6 5.5-7.4 11.4-28.8 6.9-24.8 6.5-31.9-2.1-41.7-6.4-7.3-19.4-10.4-29.1-7.1zM291.2 521c-8.5 3.9-12.9 8.4-15.9 16.5-2.6 6.8-10.4 37.7-10.5 41.7-.8 18.1 16.7 31.6 34.4 26.4 6.2-1.8 13.3-7.5 16-12.7 2.2-4.2 11.6-38.1 12.3-44.4 1.3-10.5-5.6-22.4-15.5-26.8-6.4-2.8-15.4-3.1-20.8-.7z"/></svg>