<?xml version="1.0" standalone="no"?>
<!DOCTYPE svg PUBLIC "-//W3C//DTD SVG 20010904//EN"
 "http://www.w3.org/TR/2001/REC-SVG-20010904/DTD/svg10.dtd">
<svg version="1.0" xmlns="http://www.w3.org/2000/svg"
 width="700.000000pt" height="700.000000pt" viewBox="0 0 700.000000 700.000000"
 preserveAspectRatio="xMidYMid meet">
<metadata>
Created by potrace 1.11, written by Peter Selinger 2001-2013
</metadata>
<g transform="translate(0.000000,700.000000) scale(0.100000,-0.100000)"
fill="#000000" stroke="none">
<path d="M3170 6057 c-3 -3 -34 -7 -70 -11 -196 -19 -440 -109 -606 -222 -284
-194 -482 -497 -584 -891 -10 -41 -12 -42 -68 -54 -222 -45 -481 -187 -620
-339 -176 -192 -264 -364 -317 -622 -22 -108 -22 -326 0 -447 57 -306 204
-551 455 -754 133 -108 304 -107 423 2 64 59 91 126 92 226 0 99 -24 155 -98
223 -117 107 -167 166 -201 236 -53 107 -69 190 -63 316 8 170 54 277 167 391
112 112 245 170 422 184 137 11 165 16 215 41 99 48 158 148 169 287 26 336
187 616 424 737 62 32 176 69 229 76 25 3 48 7 52 10 4 2 63 4 131 5 308 1
533 -107 686 -330 23 -34 42 -64 42 -66 0 -3 14 -33 30 -67 17 -34 35 -78 41
-97 37 -124 44 -157 64 -296 20 -133 88 -222 202 -265 45 -17 86 -20 320 -23
228 -4 278 -8 338 -25 90 -25 154 -54 213 -94 48 -33 142 -125 142 -139 0 -4
6 -14 13 -21 22 -23 66 -133 81 -202 7 -36 12 -104 11 -149 -9 -236 -123 -420
-322 -521 -52 -26 -70 -33 -209 -76 -259 -80 -292 -433 -54 -560 33 -17 51
-21 133 -34 32 -5 183 31 280 68 371 140 648 444 746 821 19 69 24 96 36 187
6 42 7 225 1 258 -3 14 -7 48 -11 75 -15 124 -91 329 -164 445 -151 236 -382
414 -656 503 -44 15 -91 28 -105 31 -14 3 -50 10 -80 16 -62 12 -193 24 -287
24 -71 1 -62 -11 -108 136 -30 97 -41 122 -97 237 -146 299 -381 526 -675 653
-87 37 -253 88 -317 96 -17 2 -42 7 -56 10 -30 7 -384 17 -390 11z"/>
<path d="M2479 3663 c-53 -30 -84 -58 -109 -98 -29 -46 -122 -390 -126 -460
-3 -75 19 -140 68 -198 111 -133 330 -115 424 34 13 22 41 99 60 172 20 72 40
146 44 162 35 124 37 157 15 231 -19 64 -75 129 -136 158 -70 34 -179 34 -240
-1z"/>
<path d="M4332 3668 c-27 -10 -67 -34 -89 -53 -57 -49 -67 -74 -159 -415 -26
-93 -28 -144 -9 -204 58 -184 285 -247 433 -120 54 46 72 88 131 304 55 199
62 271 35 335 -56 135 -208 203 -342 153z"/>
<path d="M3270 3051 c-70 -22 -129 -70 -160 -131 -10 -19 -41 -118 -70 -220
-74 -260 -71 -330 20 -433 92 -105 282 -105 385 0 53 54 62 78 154 425 41 156
-12 282 -144 344 -51 24 -132 31 -185 15z"/>
<path d="M2177 2423 c-57 -19 -129 -85 -151 -137 -15 -36 -95 -322 -112 -396
-26 -122 32 -244 143 -300 121 -62 299 -6 358 113 8 17 38 114 66 216 48 173
61 259 46 311 -20 71 -71 140 -130 175 -57 33 -155 41 -220 18z"/>
<path d="M3990 2423 c-27 -10 -64 -36 -95 -67 -56 -56 -65 -80 -139 -366 -39
-149 -40 -201 -7 -273 76 -168 312 -206 439 -70 44 46 55 74 114 288 69 248
65 319 -21 417 -64 73 -194 104 -291 71z"/>
<path d="M2912 1790 c-85 -39 -129 -84 -159 -165 -26 -68 -104 -377 -105 -417
-8 -181 167 -316 344 -264 62 18 133 75 160 127 22 42 116 381 123 444 13 105
-56 224 -155 268 -64 28 -154 31 -208 7z"/>
</g>
</svg>
