<svg version="1" xmlns="http://www.w3.org/2000/svg" width="933.333" height="933.333" viewBox="0 0 700.000000 700.000000"><path d="M445.6 83.2c-3.8.8-8.9 3.8-11.4 6.8-.7.8-2.3 3.5-3.5 6-1.9 4.2-2.1 6.2-2.2 30-.1 14 .3 27.1.8 29 3.4 13 18.7 20.6 31 15.5 5.6-2.3 10.4-7.1 12.4-12.3 1.6-4.1 1.8-8 1.8-31.7-.1-25.9-.1-27.2-2.3-31.2-5.3-10.1-15.1-14.6-26.6-12.1zM288.5 149.3c-13.7 3.3-21.6 19.7-15.5 31.8 3.1 5.9 37.2 39.7 42.7 42.1 9 4 18.4 2 25.1-5.2 6.8-7.4 8.6-16.5 4.7-24.7-3-6.5-38.4-41.5-43.5-43.2-5.1-1.6-9-1.8-13.5-.8zM602 150c-4.4 1.5-7.6 4.2-23.6 20.1-18.5 18.4-21.7 22.6-22.8 30.1-2.1 14 12.9 27.5 27.3 24.5 6.3-1.3 9-3.5 28.5-23 11.6-11.7 17.4-18.4 18.8-21.4 7.8-17.6-9.9-36.5-28.2-30.3zM442.8 209.5c-.2.1-3 .5-6.3.8-6.8.7-7.7.9-16 3.1-16.1 4.2-35.2 14.2-41.2 21.7-3.3 3.9-5.2 12.2-4.1 17.8 1.1 6.1 2.5 8.9 6.6 12.9 8.6 8.5 19.7 8.6 33.1.3 14.2-8.7 35.6-11.9 53.6-8.1 7.8 1.7 20.8 7.7 27.6 12.7 10.4 7.7 19.6 19.4 24 30.5 4.3 10.8 5.1 14.5 5.4 26.3.4 10.2.1 13.3-1.9 20.5-1.3 4.7-3.6 11.2-5.1 14.4-5.4 11.4-3.7 21.8 4.6 29 4.9 4.2 9.7 5.6 17 5.1 9.1-.7 16.3-5.9 20.1-14.5 10.8-24.7 14-55.5 8.2-79.5-9.6-39.4-37.3-71.2-74.4-85.4-7-2.7-18.9-5.8-26-6.7-5.6-.7-24.7-1.4-25.2-.9zM229.9 257.4c-.2.2-2.9.6-6 .9-13.3 1.4-30.3 6.2-43.4 12.2-5.7 2.6-20.4 11.1-21.5 12.4-.3.3-2.3 1.9-4.5 3.6-16.2 11.9-34.3 37-42.2 58.5-1.3 3.6-2.7 7.2-3 8-.8 1.8-.6 1.2-2.7 8.5-3.9 13.2-3.2 12.2-8.9 13.5-52.5 11.8-89.3 52.2-95.2 104.5-7.5 66 34.8 122.4 101.8 135.9l11.2 2.3 147.5-.2c81.1-.1 149.1-.5 151-.8 1.9-.4 4.9-.9 6.5-1.2 26.5-4.4 51.4-17.1 69.4-35.5 6-6.2 15.1-17.2 15.1-18.4 0-.3 1.5-2.9 3.3-5.8 6.1-9.7 12.9-28.4 14.3-39.3.3-2.2.9-6.3 1.3-9 2-14.2-.6-38-6-54-7.5-22.1-23.7-44.8-39.7-55.7-2.6-1.7-4.9-3.5-5.2-3.8-1-1.3-13.2-8-19.7-10.8-17.3-7.5-33.6-10.9-55.8-11.7-11.2-.4-10.5-.3-10.5-1.8 0-2-5.5-18.6-8.7-26.2-8.2-19.3-16.9-32.2-32.3-47.5-15.4-15.3-37.1-28.1-56.2-33-8.7-2.3-11.5-2.9-15.3-3.4-2.3-.4-5.2-.9-6.5-1.2-2.7-.7-37.5-1.5-38.1-1zm34.1 62.1c15.9 2.8 29.8 10 40.2 20.7 8.1 8.3 12.7 15.9 19.7 32.3 2.3 5.4 5.7 20.1 6.7 29.5 1.5 13.5 8.9 23.8 20.2 28 5.2 2 7.9 2.2 31.7 2.5 20.9.2 27.4.6 33 2 23.3 5.9 38.8 20.1 45.1 41 2.7 8.8 2.4 28.7-.5 37.3-5.4 16.2-14.7 27.5-29.1 35.4-6.5 3.6-10.4 4.8-22 6.9-6 1-280.8 1.5-289.5.4-20-2.4-36.2-11.7-45.9-26.4-7.1-10.6-9.5-18.5-10.1-32.6-.9-24.7 10.7-45.2 31.5-55.3 10.4-5.1 17.6-7 29.4-7.8 5-.3 11.4-1.2 14.2-2 10.9-3 19.4-12.8 21.3-24.5 3.3-20.4 4.5-26.1 6.9-33.4 3-9.1 9.7-21.9 15.1-28.5 13.2-16.5 33.3-26.1 56.8-26.9 3.7-.1 6.9-.4 7-.5.3-.3 14 1.1 18.3 1.9zM621.4 308.4c-11.3 5.4-16 16.2-12.3 28.6 1.8 5.9 8.4 12.3 14.5 14 3.5 1 11.9 1.4 30.3 1.3 23.4-.1 26-.2 30.1-2.1 19-8.4 17.6-37-2-43.1-.8-.2-13.7-.6-28.6-.7-26.5-.3-27.1-.3-32 2zM572.6 433.7c-2.8.8-8.7 4.7-11.3 7.4-4.4 4.8-7.4 16.6-5.3 20.9.4.8 1.4 2.8 2.1 4.5 2 4.2 36.8 38.8 41.5 41.1 2.6 1.2 6 1.9 10 1.9 5 0 6.9-.5 11-3 6.3-4 10.6-10.7 11.2-17.9.8-9.6-.4-11.4-20.7-31.9-10.2-10.4-20.4-19.8-22.5-20.9-4-2-12.4-3.1-16-2.1z"/></svg>