<?xml version="1.0" standalone="no"?>
<!DOCTYPE svg PUBLIC "-//W3C//DTD SVG 20010904//EN"
 "http://www.w3.org/TR/2001/REC-SVG-20010904/DTD/svg10.dtd">
<svg version="1.0" xmlns="http://www.w3.org/2000/svg"
 width="700.000000pt" height="700.000000pt" viewBox="0 0 700.000000 700.000000"
 preserveAspectRatio="xMidYMid meet">
<metadata>
Created by potrace 1.11, written by Peter Selinger 2001-2013
</metadata>
<g transform="translate(0.000000,700.000000) scale(0.100000,-0.100000)"
fill="#000000" stroke="none">
<path d="M4456 6168 c-38 -8 -89 -38 -114 -68 -7 -8 -23 -35 -35 -60 -19 -42
-21 -62 -22 -300 -1 -140 3 -271 8 -290 34 -130 187 -206 310 -155 56 23 104
71 124 123 16 41 18 80 18 317 -1 259 -1 272 -23 312 -53 101 -151 146 -266
121z"/>
<path d="M2885 5507 c-137 -33 -216 -197 -155 -318 31 -59 372 -397 427 -421
90 -40 184 -20 251 52 68 74 86 165 47 247 -30 65 -384 415 -435 432 -51 16
-90 18 -135 8z"/>
<path d="M6020 5500 c-44 -15 -76 -42 -236 -201 -185 -184 -217 -226 -228
-301 -21 -140 129 -275 273 -245 63 13 90 35 285 230 116 117 174 184 188 214
78 176 -99 365 -282 303z"/>
<path d="M4428 4905 c-2 -1 -30 -5 -63 -8 -68 -7 -77 -9 -160 -31 -161 -42
-352 -142 -412 -217 -33 -39 -52 -122 -41 -178 11 -61 25 -89 66 -129 86 -85
197 -86 331 -3 142 87 356 119 536 81 78 -17 208 -77 276 -127 104 -77 196
-194 240 -305 43 -108 51 -145 54 -263 4 -102 1 -133 -19 -205 -13 -47 -36
-112 -51 -144 -54 -114 -37 -218 46 -290 49 -42 97 -56 170 -51 91 7 163 59
201 145 108 247 140 555 82 795 -96 394 -373 712 -744 854 -70 27 -189 58
-260 67 -56 7 -247 14 -252 9z"/>
<path d="M2299 4426 c-2 -2 -29 -6 -60 -9 -133 -14 -303 -62 -434 -122 -57
-26 -204 -111 -215 -124 -3 -3 -23 -19 -45 -36 -162 -119 -343 -370 -422 -585
-13 -36 -27 -72 -30 -80 -8 -18 -6 -12 -27 -85 -39 -132 -32 -122 -89 -135
-525 -118 -893 -522 -952 -1045 -75 -660 348 -1224 1018 -1359 l112 -23 1475
2 c811 1 1491 5 1510 8 19 4 49 9 65 12 265 44 514 171 694 355 60 62 151 172
151 184 0 3 15 29 33 58 61 97 129 284 143 393 3 22 9 63 13 90 20 142 -6 380
-60 540 -75 221 -237 448 -397 557 -26 17 -49 35 -52 38 -10 13 -132 80 -197
108 -173 75 -336 109 -558 117 -112 4 -105 3 -105 18 0 20 -55 186 -87 262
-82 193 -169 322 -323 475 -154 153 -371 281 -562 330 -87 23 -115 29 -153 34
-23 4 -52 9 -65 12 -27 7 -375 15 -381 10z m341 -621 c159 -28 298 -100 402
-207 81 -83 127 -159 197 -323 23 -54 57 -201 67 -295 15 -135 89 -238 202
-280 52 -20 79 -22 317 -25 209 -2 274 -6 330 -20 233 -59 388 -201 451 -410
27 -88 24 -287 -5 -373 -54 -162 -147 -275 -291 -354 -65 -36 -104 -48 -220
-69 -60 -10 -2808 -15 -2895 -4 -200 24 -362 117 -459 264 -71 106 -95 185
-101 326 -9 247 107 452 315 553 104 51 176 70 294 78 50 3 114 12 142 20 109
30 194 128 213 245 33 204 45 261 69 334 30 91 97 219 151 285 132 165 333
261 568 269 37 1 69 4 70 5 3 3 140 -11 183 -19z"/>
<path d="M6214 3916 c-113 -54 -160 -162 -123 -286 18 -59 84 -123 145 -140
35 -10 119 -14 303 -13 234 1 260 2 301 21 190 84 176 370 -20 431 -8 2 -137
6 -286 7 -265 3 -271 3 -320 -20z"/>
<path d="M5726 2663 c-28 -8 -87 -47 -113 -74 -44 -48 -74 -166 -53 -209 4 -8
14 -28 21 -45 20 -42 368 -388 415 -411 26 -12 60 -19 100 -19 50 0 69 5 110
30 63 40 106 107 112 179 8 96 -4 114 -207 319 -102 104 -204 198 -225 209
-40 20 -124 31 -160 21z"/>
</g>
</svg>
