<svg version="1" xmlns="http://www.w3.org/2000/svg" width="933.333" height="933.333" viewBox="0 0 700.000000 700.000000"><path d="M310.1 105.2c-10.5 1.3-28.2 6.1-37.9 10.1-16.3 6.9-34 19.1-44.7 30.9-6.3 6.9-15.5 19.2-15.5 20.6 0 .7-.4 1.2-1 1.2-.5 0-1 .5-1 1 0 .6-1 2.7-2.3 4.8-4.6 7.3-13.3 29.6-16.6 42.8-1 3.9-1.3 4.1-6.6 5.3C123 235.7 83.9 289 89.1 352.1c2 24.2 10 45 25 64.9 13.9 18.5 25 23.6 41.6 19.1 12.2-3.3 21.4-16.6 20.9-30.2-.3-8.1-3.1-14.5-9.7-22.1-6.6-7.6-11.6-15.9-13.6-22.8-2.3-7.4-2.2-7.4-2.9-16.5-.8-10.6 1.4-22.3 6.2-32.2 7-14.7 24.3-27.7 40.8-30.9 1.2-.2 3.2-.6 4.6-.9 1.4-.3 6.3-.8 11-1.1 11.2-.7 15.6-1.9 21-5.6 5.2-3.4 9.4-8.9 11.5-14.8 1.4-4.1 1.8-6.4 3-18.5 1.4-13.6 7.4-31.3 14.4-41.9 12.3-18.9 30.7-30.5 53.1-33.4 7.2-.9 28.3-.8 34 .2 37.7 6.4 62.5 37 67.5 83.1 1.4 12.8 8 22.1 19.3 27.3 5.5 2.5 6.2 2.5 30.2 2.8 26.1.2 30.4.5 38.8 3 22.6 6.5 38.1 22.5 42.7 44.2 1.6 7.6 1.4 22.1-.5 29.7-2.2 9-8 19.3-14.4 26-5.3 5.4-14.4 12.5-16 12.5-2.3 0-16.1 7.7-19.4 10.7-17.7 16.7-9.8 46.5 13.8 52.1 5.3 1.2 14.7.3 21.1-2.1 28.3-10.7 51.4-31.5 64.8-58.3 8.6-17.3 12.5-34.6 12.5-55.4.1-14.2-.9-22.7-3.9-33.9-12.4-46.3-48.6-77.9-99-86.6-4.7-.8-14.3-1.6-23-2-4.4-.2-8.5-.4-9.2-.4-.6-.1-1.7-2.5-2.3-5.4-3.4-14.4-13.5-36.2-23.4-50.6-6.5-9.5-20.9-24.3-30.6-31.4-17.4-12.7-37.3-20.8-62-25.2-6-1.1-39.2-1.3-46.9-.3z"/><path d="M330.2 318.5c-6.4 1.5-11.8 5.6-15.2 11.6-2.4 4.2-2.5 5.1-2.4 21.4 0 18.7.8 21.7 7.1 27.7 12.1 11.5 33.7 5.4 37.8-10.7 1.1-4.5 1.2-29.5.1-34.4-1.1-4.9-6.4-11.5-11.1-13.6-5.6-2.6-10.7-3.2-16.3-2zM228.6 376.6c-5.9 1.5-11.1 5.6-14 10.9-2.5 4.9-2.8 5.8-2.8 11.3 0 5.1 1.6 9.4 5.1 14 2.3 3.2 14.6 11 26 16.5 22.3 10.9 43.1-13.4 29.1-33.8-2.1-3-5.6-5.6-13.7-10.3-17.4-9.8-20.9-10.8-29.7-8.6zM429.9 376.6c-4.4 1.3-21 10.2-27 14.5-6.6 4.7-10.3 16-8 24.5 1.4 5.4 7.5 12.2 12.9 14.5 8.9 3.9 14.9 2.5 32.6-7.4 13.8-7.7 17.8-13 18.2-23.7.2-7.3-1.1-11-5.3-15.5-3.6-4-7-6.1-11.1-7-5.8-1.2-7.7-1.2-12.3.1zM330.8 426.5c-.2.2-1.8.7-3.6 1-4.3.7-10 4.4-14 8.9-11.6 13.3-11 31.2 1.5 42.7 13 12 32.4 11 43.8-2.3 16.4-19.2 3.8-48.7-21.5-50.3-3.2-.2-5.9-.2-6.2 0zM247.5 482.4c-6.8 2.4-25.2 13.4-29.1 17.1-8.6 8.6-8.7 22.8-.3 31.5 4.7 4.8 9.8 7.1 16.1 7.2 6.3 0 7.6-.5 21-7.9 16-8.9 19.8-13 21.3-23.4 2.3-15.3-14.7-29.7-29-24.5zM414.4 482.1c-16.9 2.2-25.5 19.8-16.9 34.4 3.3 5.7 9.9 10.2 27.3 18.7 10.5 5.1 20 3.8 27.6-3.8 4.3-4.4 5.9-8.3 6.2-15.3.4-10.3-3.8-16.9-14.6-22.8-1.9-1.1-6.4-3.6-10-5.6-9.5-5.2-13.6-6.4-19.6-5.6zM331.2 529.2c-8.7 1.5-14.4 6.5-17.5 15.3-2.1 6-1.6 32.6.7 38 5.3 12.2 21.1 17.1 33 10.1 9-5.3 11.3-12.1 11.1-32.6-.2-11.2-.6-14.3-2.2-18-2.5-5.4-6.4-9.3-11.8-11.6-4.8-2-7.5-2.2-13.3-1.2z"/></svg>