<?xml version="1.0" standalone="no"?>
<!DOCTYPE svg PUBLIC "-//W3C//DTD SVG 20010904//EN"
 "http://www.w3.org/TR/2001/REC-SVG-20010904/DTD/svg10.dtd">
<svg version="1.0" xmlns="http://www.w3.org/2000/svg"
 width="700.000000pt" height="700.000000pt" viewBox="0 0 700.000000 700.000000"
 preserveAspectRatio="xMidYMid meet">
<metadata>
Created by potrace 1.11, written by Peter Selinger 2001-2013
</metadata>
<g transform="translate(0.000000,700.000000) scale(0.100000,-0.100000)"
fill="#000000" stroke="none">
<path d="M3101 5948 c-105 -13 -282 -61 -379 -101 -163 -69 -340 -191 -447
-309 -63 -69 -155 -192 -155 -206 0 -7 -4 -12 -10 -12 -5 0 -10 -5 -10 -10 0
-6 -10 -27 -23 -48 -46 -73 -133 -296 -166 -428 -10 -39 -13 -41 -66 -53 -615
-138 -1006 -671 -954 -1302 20 -242 100 -450 250 -649 139 -185 250 -236 416
-191 122 33 214 166 209 302 -3 81 -31 145 -97 221 -66 76 -116 159 -136 228
-23 74 -22 74 -29 165 -8 106 14 223 62 322 70 147 243 277 408 309 12 2 32 6
46 9 14 3 63 8 110 11 112 7 156 19 210 56 52 34 94 89 115 148 14 41 18 64
30 185 14 136 74 313 144 419 123 189 307 305 531 334 72 9 283 8 340 -2 377
-64 625 -370 675 -831 14 -128 80 -221 193 -273 55 -25 62 -25 302 -28 261 -2
304 -5 388 -30 226 -65 381 -225 427 -442 16 -76 14 -221 -5 -297 -22 -90 -80
-193 -144 -260 -53 -54 -144 -125 -160 -125 -23 0 -161 -77 -194 -107 -177
-167 -98 -465 138 -521 53 -12 147 -3 211 21 283 107 514 315 648 583 86 173
125 346 125 554 1 142 -9 227 -39 339 -124 463 -486 779 -990 866 -47 8 -143
16 -230 20 -44 2 -85 4 -92 4 -6 1 -17 25 -23 54 -34 144 -135 362 -234 506
-65 95 -209 243 -306 314 -174 127 -373 208 -620 252 -60 11 -392 13 -469 3z"/>
<path d="M3302 3815 c-64 -15 -118 -56 -152 -116 -24 -42 -25 -51 -24 -214 0
-187 8 -217 71 -277 121 -115 337 -54 378 107 11 45 12 295 1 344 -11 49 -64
115 -111 136 -56 26 -107 32 -163 20z"/>
<path d="M2286 3234 c-59 -15 -111 -56 -140 -109 -25 -49 -28 -58 -28 -113 0
-51 16 -94 51 -140 23 -32 146 -110 260 -165 223 -109 431 134 291 338 -21 30
-56 56 -137 103 -174 98 -209 108 -297 86z"/>
<path d="M4299 3234 c-44 -13 -210 -102 -270 -145 -66 -47 -103 -160 -80 -245
14 -54 75 -122 129 -145 89 -39 149 -25 326 74 138 77 178 130 182 237 2 73
-11 110 -53 155 -36 40 -70 61 -111 70 -58 12 -77 12 -123 -1z"/>
<path d="M3308 2735 c-2 -2 -18 -7 -36 -10 -43 -7 -100 -44 -140 -89 -116
-133 -110 -312 15 -427 130 -120 324 -110 438 23 164 192 38 487 -215 503 -32
2 -59 2 -62 0z"/>
<path d="M2475 2176 c-68 -24 -252 -134 -291 -171 -86 -86 -87 -228 -3 -315
47 -48 98 -71 161 -72 63 0 76 5 210 79 160 89 198 130 213 234 23 153 -147
297 -290 245z"/>
<path d="M4144 2179 c-169 -22 -255 -198 -169 -344 33 -57 99 -102 273 -187
105 -51 200 -38 276 38 43 44 59 83 62 153 4 103 -38 169 -146 228 -19 11 -64
36 -100 56 -95 52 -136 64 -196 56z"/>
<path d="M3312 1708 c-87 -15 -144 -65 -175 -153 -21 -60 -16 -326 7 -380 53
-122 211 -171 330 -101 90 53 113 121 111 326 -2 112 -6 143 -22 180 -25 54
-64 93 -118 116 -48 20 -75 22 -133 12z"/>
</g>
</svg>
