<svg version="1" xmlns="http://www.w3.org/2000/svg" width="933.333" height="933.333" viewBox="0 0 700.000000 700.000000"><path d="M513.8 82.5c-.2.1-3.2.5-6.8.9-3.6.3-7.6.8-9 1.1-22.1 4.3-34.4 8.2-50.5 15.9-18.5 8.8-35.7 20.5-50.3 34.1-6.5 6.1-21.2 22.9-21.2 24.3 0 .6-.4 1.2-.8 1.4-.4.1-3.3 4.1-6.4 8.8-11.9 18.1-23.8 47.2-23.8 58.1.1 22.1 28.2 31 41.2 13 1.4-2 3.8-7.2 5.3-11.6 12.6-38.1 37.7-67.4 72.4-84.6 9.3-4.7 29.1-12.1 29.9-11.4.2.2-.7 4.3-2.1 9.2-3.3 11.6-5.4 21.3-6.4 29.3-1.2 9.8-.9 40.6.5 48 .7 3.6 1.4 7.6 1.6 9 1.9 11.7 9.2 33.3 15.8 46.4 23 45.9 68.5 81.9 117.8 93.1 4.1.9 8.2 1.9 9 2.2 1.9.6-9.4 11.2-21 19.5-11.6 8.4-22.7 14.1-36.1 18.8-14 4.9-15.7 5.7-19.2 9.5-8.7 9.3-7.7 24.2 2.4 32.8 8.1 6.9 14.6 7.3 31.4 1.6 14.8-5 31.9-13.1 43.2-20.7 4.7-3.1 9.6-6.4 10.9-7.3 18.6-12.4 48.9-48.6 55-65.8 1.9-5.2 1.7-13.9-.5-18.6-1.9-4.3-7.7-10-12-11.7-1.4-.6-8.7-1.2-16.1-1.3-7.4-.1-16.2-.6-19.5-.9-53.4-6.3-97.7-43.8-112.4-95.1-3.8-13.3-4.5-19-4.6-35 0-18.1.5-22.3 3.9-35.6 4-14.9 5.8-19.2 18.7-42.4 2.8-5.1 3.3-7 3.3-12.1-.1-9.2-4.1-15.5-12.9-20.4-3.5-2-5.6-2.3-17.2-2.5-7.3-.2-13.3-.1-13.5 0zM229.9 257.4c-.2.2-2.9.6-6 .9-18.7 1.9-39.5 9-56.6 19.3-4.3 2.6-8 5-8.3 5.3-.3.3-2.3 1.9-4.5 3.6-12.1 8.9-28.3 29-36.3 45-4 8.1-10.8 26.4-13.6 36.6l-1.6 5.7-5.2 1.2C45.2 386.8 8.4 427.2 2.5 479.5c-7.5 66 34.8 122.4 101.8 135.9l11.2 2.3 147.5-.2c81.1-.1 149.1-.5 151-.8 1.9-.4 4.9-.9 6.5-1.2 26.5-4.4 51.4-17.1 69.4-35.5 6-6.2 15.1-17.2 15.1-18.4 0-.3 1.5-2.9 3.3-5.8 6.1-9.7 12.9-28.4 14.3-39.3.3-2.2.9-6.3 1.3-9 2-14.2-.6-38-6-54-7.5-22.1-23.7-44.8-39.7-55.7-2.6-1.7-4.9-3.5-5.2-3.8-1-1.3-13.2-8-19.7-10.8-17.3-7.5-33.6-10.9-55.8-11.7-11.2-.4-10.5-.3-10.5-1.8 0-2-5.5-18.6-8.7-26.2-8.2-19.3-16.9-32.2-32.3-47.5-15.4-15.3-37.1-28.1-56.2-33-8.7-2.3-11.5-2.9-15.3-3.4-2.3-.4-5.2-.9-6.5-1.2-2.7-.7-37.5-1.5-38.1-1zm34.1 62.1c15.9 2.8 29.8 10 40.2 20.7 8.1 8.3 12.7 15.9 19.7 32.3 2.3 5.4 5.7 20.1 6.7 29.5 1.5 13.5 8.9 23.8 20.2 28 5.2 2 7.9 2.2 31.7 2.5 20.9.2 27.4.6 33 2 23.1 5.9 38.8 20 45 40.5 2 6.6 2.7 23.3 1.3 31-3.2 18.1-14.3 33.1-30.8 42.2-6.5 3.6-10.4 4.8-22 6.9-6 1-280.8 1.5-289.5.4-20-2.4-36.2-11.7-45.9-26.4-7.1-10.6-9.5-18.5-10.1-32.6-.9-24.7 10.7-45.2 31.5-55.3 10.3-5.1 17.4-6.9 28.8-7.7 16.2-1.1 22.5-3.5 29.1-11 4.8-5.5 6.9-11.3 8.1-22.2.5-5.4 1.2-11.2 1.5-12.8 4.6-24.6 16.8-44.7 34-56.3 6.7-4.5 19.1-9.8 25.1-10.8 2.2-.3 4.2-.8 4.6-1 .4-.2 4.9-.7 10-1.1 5.1-.3 9.4-.6 9.5-.7.4-.3 14.4 1.2 18.3 1.9z"/></svg>