<?xml version="1.0" standalone="no"?>
<!DOCTYPE svg PUBLIC "-//W3C//DTD SVG 20010904//EN"
 "http://www.w3.org/TR/2001/REC-SVG-20010904/DTD/svg10.dtd">
<svg version="1.0" xmlns="http://www.w3.org/2000/svg"
 width="700.000000pt" height="700.000000pt" viewBox="0 0 700.000000 700.000000"
 preserveAspectRatio="xMidYMid meet">
<metadata>
Created by potrace 1.11, written by Peter Selinger 2001-2013
</metadata>
<g transform="translate(0.000000,700.000000) scale(0.100000,-0.100000)"
fill="#000000" stroke="none">
<path d="M5138 6175 c-2 -1 -32 -5 -68 -9 -36 -3 -76 -8 -90 -11 -221 -43
-344 -82 -505 -159 -185 -88 -357 -205 -503 -341 -65 -61 -212 -229 -212 -243
0 -6 -4 -12 -8 -14 -4 -1 -33 -41 -64 -88 -119 -181 -238 -472 -238 -581 1
-221 282 -310 412 -130 14 20 38 72 53 116 126 381 377 674 724 846 93 47 291
121 299 114 2 -2 -7 -43 -21 -92 -33 -116 -54 -213 -64 -293 -12 -98 -9 -406
5 -480 7 -36 14 -76 16 -90 19 -117 92 -333 158 -464 230 -459 685 -819 1178
-931 41 -9 82 -19 90 -22 19 -6 -94 -112 -210 -195 -116 -84 -227 -141 -361
-188 -140 -49 -157 -57 -192 -95 -87 -93 -77 -242 24 -328 81 -69 146 -73 314
-16 148 50 319 131 432 207 47 31 96 64 109 73 186 124 489 486 550 658 19 52
17 139 -5 186 -19 43 -77 100 -120 117 -14 6 -87 12 -161 13 -74 1 -162 6
-195 9 -534 63 -977 438 -1124 951 -38 133 -45 190 -46 350 0 181 5 223 39
356 40 149 58 192 187 424 28 51 33 70 33 121 -1 92 -41 155 -129 204 -35 20
-56 23 -172 25 -73 2 -133 1 -135 0z"/>
<path d="M2299 4426 c-2 -2 -29 -6 -60 -9 -187 -19 -395 -90 -566 -193 -43
-26 -80 -50 -83 -53 -3 -3 -23 -19 -45 -36 -121 -89 -283 -290 -363 -450 -40
-81 -108 -264 -136 -366 l-16 -57 -52 -12 c-526 -118 -894 -522 -953 -1045
-75 -660 348 -1224 1018 -1359 l112 -23 1475 2 c811 1 1491 5 1510 8 19 4 49
9 65 12 265 44 514 171 694 355 60 62 151 172 151 184 0 3 15 29 33 58 61 97
129 284 143 393 3 22 9 63 13 90 20 142 -6 380 -60 540 -75 221 -237 448 -397
557 -26 17 -49 35 -52 38 -10 13 -132 80 -197 108 -173 75 -336 109 -558 117
-112 4 -105 3 -105 18 0 20 -55 186 -87 262 -82 193 -169 322 -323 475 -154
153 -371 281 -562 330 -87 23 -115 29 -153 34 -23 4 -52 9 -65 12 -27 7 -375
15 -381 10z m341 -621 c159 -28 298 -100 402 -207 81 -83 127 -159 197 -323
23 -54 57 -201 67 -295 15 -135 89 -238 202 -280 52 -20 79 -22 317 -25 209
-2 274 -6 330 -20 231 -59 388 -200 450 -405 20 -66 27 -233 13 -310 -32 -181
-143 -331 -308 -422 -65 -36 -104 -48 -220 -69 -60 -10 -2808 -15 -2895 -4
-200 24 -362 117 -459 264 -71 106 -95 185 -101 326 -9 247 107 452 315 553
103 51 174 69 288 77 162 11 225 35 291 110 48 55 69 113 81 222 5 54 12 112
15 128 46 246 168 447 340 563 67 45 191 98 251 108 22 3 42 8 46 10 4 2 49 7
100 11 51 3 94 6 95 7 4 3 144 -12 183 -19z"/>
</g>
</svg>
