<?xml version="1.0" standalone="no"?>
<!DOCTYPE svg PUBLIC "-//W3C//DTD SVG 20010904//EN"
 "http://www.w3.org/TR/2001/REC-SVG-20010904/DTD/svg10.dtd">
<svg version="1.0" xmlns="http://www.w3.org/2000/svg"
 width="700.000000pt" height="700.000000pt" viewBox="0 0 700.000000 700.000000"
 preserveAspectRatio="xMidYMid meet">
<metadata>
Created by potrace 1.11, written by Peter Selinger 2001-2013
</metadata>
<g transform="translate(0.000000,700.000000) scale(0.100000,-0.100000)"
fill="#000000" stroke="none">
<path d="M5515 5593 c-239 -42 -401 -120 -545 -263 -85 -86 -104 -126 -106
-230 -2 -72 1 -93 22 -138 31 -66 91 -127 153 -155 35 -17 65 -22 126 -22 95
1 146 22 232 98 66 58 113 82 179 94 195 36 374 -111 380 -312 3 -88 -15 -146
-63 -210 -46 -59 -113 -103 -185 -120 -41 -9 -609 -12 -2517 -11 -1838 1
-2479 -2 -2522 -11 -137 -28 -238 -144 -243 -281 -5 -134 62 -240 186 -297
l58 -26 2523 -1 c1387 0 2541 4 2562 7 40 8 54 10 98 20 243 53 483 237 606
465 85 158 115 286 114 475 -2 310 -176 615 -447 785 -79 50 -179 90 -286 115
-68 16 -273 28 -325 18z"/>
<path d="M750 3289 c-87 -4 -114 -10 -156 -32 -212 -108 -225 -405 -23 -532
77 -49 12 -48 1929 -49 l1805 -1 49 -23 c68 -31 110 -65 146 -117 82 -119 77
-271 -13 -399 -42 -60 -194 -130 -262 -120 -78 11 -102 17 -146 40 -27 15 -53
32 -57 38 -16 27 -104 89 -150 106 -64 24 -169 21 -232 -7 -62 -28 -132 -100
-158 -162 -30 -72 -26 -186 8 -256 51 -102 220 -237 381 -303 238 -98 523 -91
757 19 510 238 700 861 409 1339 -52 85 -65 102 -145 183 -152 156 -374 260
-582 273 -116 8 -3428 10 -3560 3z"/>
</g>
</svg>
