<?xml version="1.0" encoding="utf-8"?>
<!-- Generator: Adobe Illustrator 18.0.0, SVG Export Plug-In . SVG Version: 6.00 Build 0)  -->
<!DOCTYPE svg PUBLIC "-//W3C//DTD SVG 1.1//EN" "http://www.w3.org/Graphics/SVG/1.1/DTD/svg11.dtd">
<svg version="1.1" id="Layer_1" xmlns="http://www.w3.org/2000/svg" xmlns:xlink="http://www.w3.org/1999/xlink" x="0px" y="0px"
	 viewBox="0 0 91 91" enable-background="new 0 0 91 91" xml:space="preserve">
<g>
	<path d="M57.6,65.6c0-1.9-1.6-3.5-3.5-3.5H5.6c-1.9,0-3.5,1.6-3.5,3.5c0,1.9,1.6,3.5,3.5,3.5h48.5C56,69.1,57.6,67.5,57.6,65.6z"/>
	<path d="M75.4,76.9H20.2c-1.9,0-3.5,1.6-3.5,3.5c0,1.9,1.6,3.5,3.5,3.5h55.2c1.9,0,3.5-1.6,3.5-3.5C78.9,78.5,77.3,76.9,75.4,76.9z
		"/>
	<path d="M66.2,61.6c-2.2,0-4,1.8-4,4c0,2.2,1.8,4,4,4h0.2c2.2,0,4-1.8,4-4c0-2.2-1.8-4-4-4H66.2z"/>
	<path d="M88.5,32.8c-0.6-0.9-1.7-1.4-2.7-1.3c-4.8,0.4-9.5-2.1-11.9-6.3c-2.4-4.2-2.2-9.5,0.5-13.4c0.6-0.9,0.7-2.1,0.2-3
		s-1.5-1.6-2.6-1.7c-3.7-0.2-7.4,0.8-10.6,2.6c-5.3,3.1-8.9,8.4-9.7,14.5c-0.2,1.6,0.9,3.1,2.6,3.4c1.6,0.2,3.1-0.9,3.4-2.6
		c0.6-4.3,3-7.9,6.7-10.1c0.8-0.5,1.6-0.8,2.5-1.1c-1.4,4.8-0.8,10,1.8,14.4c2.6,4.4,6.8,7.5,11.6,8.7c-0.7,0.6-1.4,1.1-2.2,1.6
		c-0.8,0.5-1.7,0.8-2.5,1.1c-1.6,0.5-2.4,2.2-1.9,3.8c0.4,1.3,1.6,2.1,2.8,2.1c0.3,0,0.6,0,0.9-0.2c1.3-0.4,2.5-1,3.6-1.6
		c3.2-1.9,5.8-4.6,7.6-7.9C89.2,34.9,89.1,33.7,88.5,32.8z"/>
	<path d="M6,56c2.2,0,4-1.8,4-4c0-4.8,3.5-8,8.7-8c2.2,0,3.9-1.7,4-3.9c0-1.1,0.6-11.1,10.9-11.1c4.4,0,7.5,1.7,9.4,5.1
		c1.6,2.9,1.8,6,1.8,6c0.1,2.1,1.9,3.8,4,3.8h4.5c5.2,0,8.7,3.2,8.7,8c0,2.2,1.8,4,4,4c2.2,0,4-1.8,4-4c0-9.3-7-16-16.7-16h-1.1
		c-0.4-1.6-1-3.4-2-5.3C46.9,24.4,41,21,33.6,21c-7.4,0-13.3,3.4-16.5,9.6c-1,2-1.6,4-2,5.6C7.3,37.7,2,43.8,2,52
		C2,54.2,3.8,56,6,56z"/>
</g>
</svg>
