<?xml version="1.0" encoding="utf-8"?>
<!-- Generator: Adobe Illustrator 18.0.0, SVG Export Plug-In . SVG Version: 6.00 Build 0)  -->
<!DOCTYPE svg PUBLIC "-//W3C//DTD SVG 1.1//EN" "http://www.w3.org/Graphics/SVG/1.1/DTD/svg11.dtd">
<svg version="1.1" id="Layer_1" xmlns="http://www.w3.org/2000/svg" xmlns:xlink="http://www.w3.org/1999/xlink" x="0px" y="0px"
	 viewBox="0 0 91 91" enable-background="new 0 0 91 91" xml:space="preserve">
<g>
	<path d="M57.6,41.7h-0.8c-0.3-1.3-0.8-2.8-1.7-4.4c-2.8-5.2-7.7-8.1-13.9-8.1c-7.7,0-13.3,4.4-15.3,12c-0.5,1.9,0.6,3.8,2.5,4.3
		c1.9,0.5,3.8-0.6,4.3-2.5c1.8-6.8,6.9-6.8,8.6-6.8c8.2,0,9.1,7.6,9.1,9.1c0.1,1.9,1.6,3.3,3.5,3.3h3.8c4.3,0,7.1,2.6,7.1,6.5
		c0,3.1-2.2,6.5-7.1,6.5H39H27.4H3.9c-1.9,0-3.5,1.6-3.5,3.5c0,1.9,1.6,3.5,3.5,3.5h23.4H39h18.6c8,0,14.1-5.8,14.1-13.5
		C71.7,47.4,65.7,41.7,57.6,41.7z"/>
	<path d="M75.4,43.4c1-1.9,1.5-4,1.5-6.1c0-7.3-6-13.3-13.3-13.3c-2.7,0-5.2,0.8-7.4,2.3c-1.3,0.9-1.6,2.6-0.7,3.8
		c0.8,1.3,2.6,1.6,3.8,0.7c1.3-0.9,2.8-1.3,4.4-1.3c4.3,0,7.8,3.5,7.8,7.8c0,1.3-0.3,2.5-0.9,3.6c-0.7,1.3-0.2,3,1.2,3.7
		c0.4,0.2,0.8,0.3,1.3,0.3C73.9,44.9,74.9,44.3,75.4,43.4z"/>
	<path d="M63.6,20.5c1.5,0,2.8-1.2,2.8-2.8V13c0-1.5-1.2-2.8-2.8-2.8c-1.5,0-2.8,1.2-2.8,2.8v4.8C60.8,19.3,62.1,20.5,63.6,20.5z"/>
	<path d="M87.8,34.5H83c-1.5,0-2.8,1.2-2.8,2.8c0,1.5,1.2,2.8,2.8,2.8h4.8c1.5,0,2.8-1.2,2.8-2.8C90.6,35.7,89.3,34.5,87.8,34.5z"/>
	<path d="M77.3,26.3c0.7,0,1.4-0.3,1.9-0.8l3.4-3.4c1.1-1.1,1.1-2.8,0-3.9c-1.1-1.1-2.8-1.1-3.9,0l-3.4,3.4c-1.1,1.1-1.1,2.8,0,3.9
		C75.9,26,76.6,26.3,77.3,26.3z"/>
	<path d="M79.3,49.1c-1.1-1.1-2.8-1.1-3.9,0c-1.1,1.1-1.1,2.8,0,3.9l3.4,3.4c0.5,0.5,1.2,0.8,1.9,0.8c0.7,0,1.4-0.3,1.9-0.8
		c1.1-1.1,1.1-2.8,0-3.9L79.3,49.1z"/>
	<path d="M47.9,25.4c0.5,0.5,1.2,0.8,1.9,0.8c0.7,0,1.4-0.3,1.9-0.8c1.1-1.1,1.1-2.8,0-3.9l-3.4-3.4c-1.1-1.1-2.8-1.1-3.9,0
		c-1.1,1.1-1.1,2.8,0,3.9L47.9,25.4z"/>
	<path d="M12.5,56.7h28c1.9,0,3.5-1.6,3.5-3.5c0-1.9-1.6-3.5-3.5-3.5h-28c-1.9,0-3.5,1.6-3.5,3.5C9,55.2,10.5,56.7,12.5,56.7z"/>
	<path d="M52.4,73.7H17.3c-1.9,0-3.5,1.6-3.5,3.5c0,1.9,1.6,3.5,3.5,3.5h35.1c1.9,0,3.5-1.6,3.5-3.5C55.9,75.3,54.3,73.7,52.4,73.7z
		"/>
</g>
</svg>
