<?xml version="1.0" encoding="utf-8"?>
<!-- Generator: Adobe Illustrator 18.0.0, SVG Export Plug-In . SVG Version: 6.00 Build 0)  -->
<!DOCTYPE svg PUBLIC "-//W3C//DTD SVG 1.1//EN" "http://www.w3.org/Graphics/SVG/1.1/DTD/svg11.dtd">
<svg version="1.1" id="Layer_1" xmlns="http://www.w3.org/2000/svg" xmlns:xlink="http://www.w3.org/1999/xlink" x="0px" y="0px"
	 viewBox="0 0 91 91" enable-background="new 0 0 91 91" xml:space="preserve">
<g>
	<path d="M83.4,65.2c-1.9-1-4.4-0.3-5.4,1.6c-2.3,4.3-7.1,6.5-14.1,6.5c-12.1,0-18.3-6.1-18.3-18.1V35.8c0-12,6.1-18.1,18.3-18.1
		c7,0,11.8,2.2,14.1,6.5c1,1.9,3.5,2.7,5.4,1.6c1.9-1,2.7-3.5,1.6-5.4c-2.6-4.9-8.4-10.8-21.1-10.8c-16.7,0-26.3,9.5-26.3,26.1v19.4
		c0,16.6,9.6,26.1,26.3,26.1c12.7,0,18.5-5.9,21.1-10.8C86.1,68.6,85.3,66.2,83.4,65.2z"/>
	<path d="M17.9,9.7c-7.8,0-12.4,5.2-12.4,13.9s4.6,13.9,12.4,13.9c3.7,0,12.4-1.4,12.4-13.9C30.3,14.9,25.6,9.7,17.9,9.7z
		 M17.9,29.6c-1.9,0-4.4,0-4.4-5.9c0-5.9,2.5-5.9,4.4-5.9c1.9,0,4.4,0,4.4,5.9C22.3,29.6,19.7,29.6,17.9,29.6z"/>
</g>
</svg>
