<?xml version="1.0" encoding="utf-8"?>
<!-- Generator: Adobe Illustrator 18.0.0, SVG Export Plug-In . SVG Version: 6.00 Build 0)  -->
<!DOCTYPE svg PUBLIC "-//W3C//DTD SVG 1.1//EN" "http://www.w3.org/Graphics/SVG/1.1/DTD/svg11.dtd">
<svg version="1.1" id="Layer_1" xmlns="http://www.w3.org/2000/svg" xmlns:xlink="http://www.w3.org/1999/xlink" x="0px" y="0px"
	 viewBox="0 0 91 91" enable-background="new 0 0 91 91" xml:space="preserve">
<g>
	<path d="M17.8,14.1H64c2.2,0,4-1.8,4-4s-1.8-4-4-4H17.8c-2.2,0-4,1.8-4,4S15.6,14.1,17.8,14.1z"/>
	<path d="M64.3,27.8c0-2.2-1.8-4-4-4h-46c-2.2,0-4,1.8-4,4s1.8,4,4,4h46C62.5,31.8,64.3,30,64.3,27.8z"/>
	<path d="M72.9,41.4H32.1c-2.2,0-4,1.8-4,4s1.8,4,4,4h40.8c2.2,0,4-1.8,4-4S75.1,41.4,72.9,41.4z"/>
	<path d="M76.1,5.6H76c-2.5,0-4.5,2-4.5,4.5c0,2.5,2,4.5,4.5,4.5h0.2c2.5,0,4.5-2,4.5-4.5C80.6,7.6,78.6,5.6,76.1,5.6z"/>
	<path d="M62.8,59.4H39.2c-2.2,0-4,1.8-4,4s1.8,4,4,4h23.6c2.2,0,4-1.8,4-4S65,59.4,62.8,59.4z"/>
	<path d="M46.5,77.4H35.3c-2.2,0-4,1.8-4,4s1.8,4,4,4h11.2c2.2,0,4-1.8,4-4S48.7,77.4,46.5,77.4z"/>
</g>
</svg>
