<?xml version="1.0" standalone="no"?>
<!DOCTYPE svg PUBLIC "-//W3C//DTD SVG 20010904//EN"
 "http://www.w3.org/TR/2001/REC-SVG-20010904/DTD/svg10.dtd">
<svg version="1.0" xmlns="http://www.w3.org/2000/svg"
 width="700.000000pt" height="700.000000pt" viewBox="0 0 700.000000 700.000000"
 preserveAspectRatio="xMidYMid meet">
<metadata>
Created by potrace 1.11, written by Peter Selinger 2001-2013
</metadata>
<g transform="translate(0.000000,700.000000) scale(0.100000,-0.100000)"
fill="#000000" stroke="none">
<path d="M2787 5884 c-1 -1 -29 -5 -62 -9 -33 -3 -69 -8 -80 -10 -11 -3 -37
-7 -57 -10 -250 -34 -600 -167 -843 -320 -406 -255 -717 -611 -917 -1051 -80
-175 -164 -461 -183 -623 -4 -30 -8 -61 -10 -70 -22 -119 -22 -456 0 -581 3
-14 7 -45 10 -70 7 -59 30 -167 54 -255 11 -38 23 -81 26 -95 4 -14 10 -34 15
-45 4 -11 23 -58 40 -105 87 -228 227 -465 393 -665 67 -82 229 -243 307 -306
30 -24 60 -49 67 -55 28 -27 247 -167 330 -212 209 -113 477 -208 698 -246 17
-3 41 -8 55 -11 66 -13 255 -28 365 -28 73 -1 268 11 310 18 52 9 89 14 130
20 22 4 58 11 80 17 22 5 47 11 56 13 106 21 330 104 474 176 359 181 623 399
862 714 103 135 118 170 118 270 -1 85 -21 145 -68 198 -58 65 -170 108 -261
100 -25 -2 -83 -14 -128 -27 -253 -73 -534 -80 -793 -22 -86 19 -119 28 -185
51 -396 139 -732 438 -910 810 -44 91 -103 252 -114 307 -2 13 -9 43 -15 68
-19 82 -26 174 -26 320 1 210 17 318 76 500 81 249 210 458 406 657 117 118
147 174 146 273 0 168 -135 302 -306 305 -32 0 -59 0 -60 -1z m-715 -901 c-15
-28 -79 -220 -97 -293 -41 -159 -68 -378 -68 -540 0 -108 6 -221 14 -264 4
-23 10 -65 13 -95 4 -29 8 -56 10 -60 2 -3 7 -23 10 -44 35 -222 189 -584 333
-787 234 -326 497 -557 827 -725 141 -71 199 -95 340 -140 119 -39 311 -82
376 -85 84 -4 -348 -166 -495 -186 -22 -3 -46 -7 -53 -10 -57 -18 -365 -25
-490 -11 -328 37 -684 194 -935 411 -45 39 -94 83 -109 98 -279 285 -462 664
-506 1053 -9 79 -8 313 2 395 33 280 135 556 289 784 90 134 210 269 332 373
63 53 208 154 213 148 2 -2 -1 -12 -6 -22z"/>
<path d="M4990 5783 c-166 -57 -260 -184 -255 -345 5 -137 78 -249 198 -304
53 -24 74 -28 147 -28 73 0 93 4 142 28 75 38 135 96 167 165 22 47 26 70 26
146 0 76 -4 99 -26 146 -58 122 -166 192 -304 195 -44 1 -87 0 -95 -3z"/>
<path d="M3906 4310 c-63 -25 -119 -79 -147 -144 -55 -127 15 -301 141 -350
100 -39 190 -24 282 48 139 108 98 370 -69 442 -58 24 -149 26 -207 4z"/>
<path d="M6011 3899 c-82 -18 -156 -77 -201 -161 -85 -158 -20 -338 150 -417
212 -98 460 98 418 331 -30 166 -204 283 -367 247z"/>
</g>
</svg>
