<svg version="1" xmlns="http://www.w3.org/2000/svg" width="933.333" height="933.333" viewBox="0 0 700.000000 700.000000"><path d="M278.7 111.6c-.1.1-2.9.5-6.2.9-3.3.3-6.9.8-8 1-1.1.3-3.7.7-5.7 1-25 3.4-60 16.7-84.3 32-40.6 25.5-71.7 61.1-91.7 105.1-8 17.5-16.4 46.1-18.3 62.3-.4 3-.8 6.1-1 7-2.2 11.9-2.2 45.6 0 58.1.3 1.4.7 4.5 1 7 .7 5.9 3 16.7 5.4 25.5 1.1 3.8 2.3 8.1 2.6 9.5.4 1.4 1 3.4 1.5 4.5.4 1.1 2.3 5.8 4 10.5 8.7 22.8 22.7 46.5 39.3 66.5 6.7 8.2 22.9 24.3 30.7 30.6 3 2.4 6 4.9 6.7 5.5 2.8 2.7 24.7 16.7 33 21.2 20.9 11.3 47.7 20.8 69.8 24.6 1.7.3 4.1.8 5.5 1.1 6.6 1.3 25.5 2.8 36.5 2.8 7.3.1 26.8-1.1 31-1.8 5.2-.9 8.9-1.4 13-2 2.2-.4 5.8-1.1 8-1.7 2.2-.5 4.7-1.1 5.6-1.3 10.6-2.1 33-10.4 47.4-17.6 35.9-18.1 62.3-39.9 86.2-71.4 10.3-13.5 11.8-17 11.8-27-.1-8.5-2.1-14.5-6.8-19.8-5.8-6.5-17-10.8-26.1-10-2.5.2-8.3 1.4-12.8 2.7-25.3 7.3-53.4 8-79.3 2.2-8.6-1.9-11.9-2.8-18.5-5.1-39.6-13.9-73.2-43.8-91-81-4.4-9.1-10.3-25.2-11.4-30.7-.2-1.3-.9-4.3-1.5-6.8-1.9-8.2-2.6-17.4-2.6-32 .1-21 1.7-31.8 7.6-50 8.1-24.9 21-45.8 40.6-65.7 11.7-11.8 14.7-17.4 14.6-27.3 0-16.8-13.5-30.2-30.6-30.5-3.2 0-5.9 0-6 .1zm-71.5 90.1c-1.5 2.8-7.9 22-9.7 29.3-4.1 15.9-6.8 37.8-6.8 54 0 10.8.6 22.1 1.4 26.4.4 2.3 1 6.5 1.3 9.5.4 2.9.8 5.6 1 6 .2.3.7 2.3 1 4.4 3.5 22.2 18.9 58.4 33.3 78.7 23.4 32.6 49.7 55.7 82.7 72.5 14.1 7.1 19.9 9.5 34 14 11.9 3.9 31.1 8.2 37.6 8.5 8.4.4-34.8 16.6-49.5 18.6-2.2.3-4.6.7-5.3 1-5.7 1.8-36.5 2.5-49 1.1-32.8-3.7-68.4-19.4-93.5-41.1-4.5-3.9-9.4-8.3-10.9-9.8-27.9-28.5-46.2-66.4-50.6-105.3-.9-7.9-.8-31.3.2-39.5 3.3-28 13.5-55.6 28.9-78.4 9-13.4 21-26.9 33.2-37.3 6.3-5.3 20.8-15.4 21.3-14.8.2.2-.1 1.2-.6 2.2zM499 121.7c-16.6 5.7-26 18.4-25.5 34.5.5 13.7 7.8 24.9 19.8 30.4 5.3 2.4 7.4 2.8 14.7 2.8 7.3 0 9.3-.4 14.2-2.8 7.5-3.8 13.5-9.6 16.7-16.5 2.2-4.7 2.6-7 2.6-14.6s-.4-9.9-2.6-14.6c-5.8-12.2-16.6-19.2-30.4-19.5-4.4-.1-8.7 0-9.5.3z"/><path d="M390.6 269c-6.3 2.5-11.9 7.9-14.7 14.4-5.5 12.7 1.5 30.1 14.1 35 10 3.9 19 2.4 28.2-4.8 13.9-10.8 9.8-37-6.9-44.2-5.8-2.4-14.9-2.6-20.7-.4zM601.1 310.1c-8.2 1.8-15.6 7.7-20.1 16.1-8.5 15.8-2 33.8 15 41.7 21.2 9.8 46-9.8 41.8-33.1-3-16.6-20.4-28.3-36.7-24.7z"/></svg>